<svg width="31" height="31" viewBox="0 0 31 31" fill="none" xmlns="http://www.w3.org/2000/svg">
<path d="M14.6215 1.10546C15.0218 0.59009 15.8006 0.590091 16.2009 1.10546L17.1892 2.37763C17.4996 2.7773 18.0598 2.88201 18.4937 2.62148L19.8747 1.79222C20.4342 1.45627 21.1604 1.73758 21.3475 2.36278L21.8095 3.90603C21.9546 4.39088 22.4391 4.69085 22.9378 4.60466L24.5252 4.33029C25.1682 4.21915 25.7437 4.74377 25.6924 5.39435L25.5657 7.00027C25.5258 7.5048 25.8692 7.95954 26.3654 8.05932L27.9447 8.37691C28.5845 8.50557 28.9316 9.20266 28.6487 9.79076L27.9504 11.2425C27.731 11.6985 27.887 12.2466 28.3136 12.5189L29.6715 13.3855C30.2216 13.7366 30.2935 14.512 29.8173 14.9582L28.6417 16.0597C28.2724 16.4057 28.2198 16.9731 28.5192 17.3811L29.4724 18.6798C29.8585 19.2059 29.6454 19.9549 29.0402 20.1989L27.5461 20.8013C27.0767 20.9905 26.8227 21.5006 26.9546 21.9892L27.3742 23.5445C27.5442 24.1746 27.075 24.796 26.4224 24.8049L24.8117 24.8269C24.3056 24.8338 23.8845 25.2177 23.8309 25.721L23.6604 27.3229C23.5913 27.9718 22.9292 28.3817 22.3175 28.1543L20.8076 27.5929C20.3332 27.4166 19.8019 27.6224 19.5701 28.0723L18.8325 29.5044C18.5336 30.0846 17.7682 30.2277 17.2799 29.7947L16.0747 28.7257C15.6961 28.3899 15.1263 28.3899 14.7476 28.7257L13.5425 29.7947C13.0542 30.2277 12.2888 30.0846 11.9899 29.5044L11.2523 28.0723C11.0205 27.6224 10.4892 27.4166 10.0148 27.5929L8.50484 28.1543C7.89315 28.3817 7.23106 27.9718 7.16198 27.3229L6.99146 25.721C6.93789 25.2177 6.51678 24.8338 6.01073 24.8269L4.39997 24.8049C3.74742 24.796 3.27814 24.1746 3.44815 23.5445L3.8678 21.9892C3.99964 21.5006 3.74565 20.9905 3.27627 20.8013L1.78222 20.1989C1.17696 19.9549 0.963848 19.2059 1.34998 18.6798L2.30314 17.3811C2.60259 16.9731 2.55001 16.4057 2.18069 16.0597L1.00513 14.9582C0.528901 14.512 0.600754 13.7366 1.15087 13.3855L2.50879 12.5189C2.93541 12.2466 3.09135 11.6985 2.87197 11.2425L2.17367 9.79076C1.89078 9.20265 2.23789 8.50557 2.87768 8.37691L4.45698 8.05932C4.95315 7.95954 5.29655 7.5048 5.25673 7.00027L5.13001 5.39435C5.07867 4.74377 5.65415 4.21915 6.29722 4.33029L7.8846 4.60466C8.38331 4.69085 8.86779 4.39087 9.01292 3.90603L9.47488 2.36277C9.66202 1.73758 10.3882 1.45627 10.9477 1.79222L12.3287 2.62148C12.7626 2.88201 13.3227 2.7773 13.6332 2.37763L14.6215 1.10546Z" fill="#D7E7FF"/>
<path d="M20.3348 15.1549C20.4254 15.2463 20.4762 15.3698 20.4762 15.4985C20.4762 15.6271 20.4254 15.7506 20.3348 15.842L15.9948 20.1821C15.9022 20.2706 15.7792 20.3202 15.6512 20.3207C15.5872 20.3204 15.5238 20.3082 15.4643 20.2846C15.3765 20.2477 15.3017 20.1856 15.2491 20.1062C15.1965 20.0269 15.1687 19.9337 15.169 19.8385V15.9807H10.8289C10.701 15.9807 10.5784 15.9299 10.4879 15.8394C10.3975 15.749 10.3467 15.6263 10.3467 15.4985C10.3467 15.3706 10.3975 15.2479 10.4879 15.1575C10.5784 15.067 10.701 15.0162 10.8289 15.0162H15.169V11.1584C15.1687 11.0632 15.1965 10.97 15.2491 10.8907C15.3017 10.8113 15.3765 10.7492 15.4643 10.7123C15.5534 10.6776 15.6505 10.6688 15.7443 10.6869C15.8382 10.7051 15.925 10.7494 15.9948 10.8148L20.3348 15.1549Z" fill="#135CE9"/>
</svg>
