<svg width="323" height="141" viewBox="0 0 323 141" fill="none" xmlns="http://www.w3.org/2000/svg">
<path d="M220 75.5001L219.568 75.2484L220 75.5001ZM137.5 13.5L137.166 13.1284L137.5 13.5ZM171.5 132.5L171.332 132.971L171.353 132.978L171.375 132.984L171.5 132.5ZM322.467 117.18C322.566 116.922 322.437 116.633 322.18 116.533L317.979 114.918C317.722 114.819 317.432 114.947 317.333 115.205C317.234 115.463 317.363 115.752 317.62 115.851L321.354 117.287L319.918 121.021C319.819 121.278 319.947 121.568 320.205 121.667C320.463 121.766 320.752 121.637 320.851 121.38L322.467 117.18ZM0.5 60.5L0.327528 60.9693C1.37347 61.3537 2.43325 61.7424 3.5063 62.135L3.67809 61.6655L3.84989 61.1959C2.77733 60.8035 1.71801 60.415 0.672472 60.0307L0.5 60.5ZM10.1209 64.0099L9.95086 64.48C12.0609 65.2433 14.2138 66.0174 16.4058 66.7993L16.5738 66.3284L16.7418 65.8575C14.5513 65.076 12.3998 64.3025 10.291 63.5397L10.1209 64.0099ZM23.0391 68.6166L22.8735 69.0883C25.004 69.8361 27.1659 70.5885 29.3559 71.343L29.5187 70.8703L29.6816 70.3976C27.4935 69.6437 25.3335 68.892 23.2046 68.1448L23.0391 68.6166ZM36.0138 73.0855L35.8539 73.5592C38.0006 74.2836 40.1702 75.0079 42.36 75.7301L42.5166 75.2552L42.6732 74.7804C40.4857 74.059 38.3183 73.3354 36.1737 72.6117L36.0138 73.0855ZM49.0251 77.3749L48.872 77.8509C51.0347 78.5461 53.2137 79.2373 55.4067 79.9227L55.5558 79.4454L55.705 78.9682C53.5147 78.2837 51.3383 77.5933 49.1781 76.8989L49.0251 77.3749ZM62.1079 81.4619L61.963 81.9404C64.145 82.6013 66.3379 83.2546 68.5394 83.8986L68.6798 83.4187L68.8202 82.9389C66.6218 82.2958 64.4319 81.6434 62.2529 80.9834L62.1079 81.4619ZM75.2695 85.3101L75.1341 85.7914C77.3326 86.4101 79.5371 87.0177 81.7453 87.6126L81.8754 87.1298L82.0054 86.647C79.801 86.0531 77.6 85.4465 75.4049 84.8288L75.2695 85.3101ZM88.5047 88.8734L88.3805 89.3577C90.5994 89.9268 92.8195 90.4813 95.0386 91.0193L95.1564 90.5334L95.2742 90.0475C93.0596 89.5105 90.8437 88.9571 88.6289 88.3891L88.5047 88.8734ZM101.828 92.1012L101.717 92.5888C103.954 93.0973 106.188 93.5872 108.415 94.0567L108.518 93.5674L108.622 93.0782C106.399 92.6098 104.171 92.121 101.939 91.6137L101.828 92.1012ZM115.235 94.9234L115.14 95.4144C117.403 95.8504 119.656 96.2631 121.898 96.6506L121.983 96.1579L122.069 95.6652C119.833 95.2788 117.586 94.8673 115.33 94.4324L115.235 94.9234ZM128.754 97.2547L128.679 97.7491C130.962 98.0936 133.231 98.4091 135.481 98.6935L135.544 98.1974L135.607 97.7013C133.365 97.418 131.104 97.1036 128.828 96.7603L128.754 97.2547ZM142.353 98.9662L142.304 99.4638C144.607 99.6918 146.889 99.8835 149.144 100.037L149.178 99.5378L149.212 99.039C146.967 98.8866 144.696 98.6957 142.402 98.4687L142.353 98.9662ZM156.017 99.8837L156.001 100.383C158.324 100.459 160.614 100.488 162.869 100.469L162.864 99.9688L162.86 99.4688C160.62 99.4881 158.343 99.4589 156.033 99.384L156.017 99.8837ZM169.711 99.7495L169.739 100.249C172.073 100.116 174.361 99.9237 176.597 99.668L176.54 99.1712L176.483 98.6744C174.267 98.9279 171.999 99.1187 169.683 99.2503L169.711 99.7495ZM183.324 98.1665L183.414 98.6582C185.726 98.232 187.971 97.7262 190.144 97.136L190.013 96.6535L189.882 96.171C187.737 96.7534 185.519 97.2533 183.233 97.6748L183.324 98.1665ZM196.532 94.5372L196.711 95.0042C198.905 94.1639 201.005 93.2176 203.004 92.159L202.77 91.7171L202.536 91.2753C200.575 92.3137 198.512 93.2435 196.353 94.0703L196.532 94.5372ZM208.574 88.1039L208.868 88.5079C210.745 87.1395 212.499 85.6392 214.12 83.9999L213.765 83.6483L213.409 83.2968C211.827 84.8964 210.115 86.3618 208.279 87.6999L208.574 88.1039ZM218.144 78.4017L218.553 78.6886C219.215 77.7448 219.841 76.7661 220.432 75.7518L220 75.5001L219.568 75.2484C218.991 76.2388 218.379 77.194 217.734 78.1149L218.144 78.4017ZM220 75.5001L220.432 75.7518C221.066 74.6636 221.655 73.5774 222.2 72.4939L221.753 72.2692L221.306 72.0446C220.771 73.1095 220.192 74.1776 219.568 75.2484L220 75.5001ZM224.576 65.5878L225.049 65.7501C225.873 63.3488 226.489 60.9689 226.909 58.6186L226.417 58.5306L225.924 58.4427C225.514 60.7414 224.911 63.0717 224.104 65.4255L224.576 65.5878ZM227.103 51.2998L227.603 51.3052C227.63 48.8075 227.44 46.3569 227.051 43.9644L226.557 44.0446L226.064 44.1247C226.443 46.4614 226.629 48.8547 226.603 51.2944L227.103 51.2998ZM224.786 36.9891L225.26 36.8272C224.464 34.5016 223.479 32.2498 222.325 30.0831L221.884 30.3181L221.443 30.5531C222.572 32.6744 223.535 34.8775 224.313 37.1509L224.786 36.9891ZM217.992 24.1676L218.394 23.8702C216.943 21.9094 215.348 20.0428 213.628 18.2813L213.27 18.6307L212.912 18.98C214.602 20.71 216.167 22.542 217.59 24.465L217.992 24.1676ZM207.858 13.7598L208.168 13.3677C206.256 11.8538 204.242 10.4514 202.144 9.17103L201.884 9.59779L201.623 10.0246C203.687 11.2841 205.667 12.6634 207.547 14.1518L207.858 13.7598ZM195.455 6.18053L195.663 5.7259C193.44 4.70812 191.153 3.81998 188.819 3.07174L188.667 3.54787L188.514 4.02399C190.809 4.76001 193.06 5.63375 195.247 6.63515L195.455 6.18053ZM181.612 1.74965L181.705 1.25848C179.299 0.800369 176.865 0.492037 174.419 0.343818L174.389 0.842902L174.359 1.34199C176.761 1.48757 179.153 1.79048 181.518 2.24083L181.612 1.74965ZM167.109 0.888116L167.072 0.389493C164.636 0.570625 162.207 0.920344 159.803 1.44885L159.91 1.93719L160.017 2.42554C162.374 1.90749 164.756 1.56446 167.147 1.38674L167.109 0.888116ZM152.936 4.01809L152.758 3.55092C150.496 4.41371 148.274 5.45305 146.107 6.67797L146.353 7.11323L146.599 7.5485C148.721 6.34855 150.899 5.33045 153.115 4.48527L152.936 4.01809ZM140.304 11.1509L139.996 10.7564C139.036 11.504 138.092 12.2944 137.166 13.1284L137.5 13.5L137.834 13.8717C138.744 13.0534 139.67 12.2783 140.611 11.5454L140.304 11.1509ZM137.5 13.5L137.166 13.1284C136.341 13.8704 135.501 14.6871 134.654 15.5732L135.015 15.9188L135.377 16.2643C136.208 15.3947 137.03 14.5956 137.834 13.8717L137.5 13.5ZM130.501 21.2294L130.104 20.9261C128.748 22.7031 127.404 24.6341 126.103 26.6983L126.526 26.9649L126.949 27.2315C128.234 25.1919 129.561 23.2855 130.899 21.5327L130.501 21.2294ZM123.05 33.019L122.606 32.7879C121.547 34.8203 120.542 36.9428 119.614 39.1412L120.075 39.3357L120.535 39.5302C121.453 37.3574 122.446 35.2593 123.493 33.2501L123.05 33.019ZM117.633 45.862L117.158 45.7067C116.438 47.9094 115.804 50.1679 115.275 52.4701L115.762 52.5822L116.249 52.6943C116.772 50.4226 117.397 48.1929 118.108 46.0173L117.633 45.862ZM114.526 59.4483L114.03 59.3841C113.731 61.6916 113.547 64.0294 113.494 66.3864L113.994 66.3977L114.493 66.409C114.546 64.0891 114.727 61.7867 115.022 59.5125L114.526 59.4483ZM114.233 73.3683L113.735 73.4146C113.95 75.7255 114.303 78.0441 114.81 80.3601L115.298 80.2532L115.787 80.1464C115.289 77.8718 114.942 75.5937 114.731 73.322L114.233 73.3683ZM117.216 86.9567L116.745 87.1246C117.517 89.2907 118.438 91.4453 119.52 93.5797L119.966 93.3537L120.412 93.1276C119.349 91.0312 118.445 88.9156 117.687 86.7888L117.216 86.9567ZM123.503 99.3802L123.088 99.659C124.354 101.545 125.761 103.407 127.318 105.24L127.699 104.917L128.08 104.593C126.547 102.788 125.163 100.956 123.918 99.1015L123.503 99.3802ZM132.479 109.984L132.132 110.345C133.77 111.915 135.531 113.457 137.422 114.967L137.734 114.576L138.046 114.186C136.177 112.694 134.439 111.172 132.825 109.624L132.479 109.984ZM143.363 118.707L143.083 119.121C144.959 120.388 146.94 121.627 149.029 122.836L149.279 122.403L149.53 121.97C147.46 120.773 145.499 119.546 143.643 118.292L143.363 118.707ZM155.414 125.702L155.191 126.15C157.212 127.161 159.321 128.146 161.52 129.103L161.719 128.645L161.919 128.187C159.736 127.236 157.643 126.258 155.638 125.255L155.414 125.702ZM168.163 131.27L167.985 131.738C169.081 132.155 170.196 132.566 171.332 132.971L171.5 132.5L171.668 132.029C170.539 131.627 169.43 131.218 168.341 130.803L168.163 131.27ZM171.5 132.5L171.375 132.984C172.523 133.281 173.665 133.567 174.803 133.845L174.921 133.359L175.039 132.873C173.907 132.597 172.768 132.311 171.625 132.016L171.5 132.5ZM181.763 134.926L181.659 135.415C183.981 135.912 186.282 136.369 188.563 136.787L188.653 136.295L188.743 135.803C186.472 135.387 184.181 134.932 181.868 134.437L181.763 134.926ZM195.589 137.455L195.514 137.949C197.861 138.304 200.186 138.617 202.49 138.89L202.549 138.393L202.607 137.897C200.314 137.626 198 137.314 195.664 136.961L195.589 137.455ZM209.535 139.102L209.493 139.6C211.858 139.8 214.202 139.957 216.525 140.072L216.55 139.572L216.575 139.073C214.263 138.958 211.931 138.802 209.577 138.604L209.535 139.102ZM223.566 139.797L223.559 140.297C225.929 140.33 228.277 140.321 230.607 140.27L230.596 139.77L230.585 139.27C228.268 139.321 225.931 139.33 223.573 139.297L223.566 139.797ZM237.614 139.49L237.643 139.989C240.003 139.852 242.344 139.672 244.667 139.452L244.62 138.954L244.573 138.456C242.262 138.675 239.933 138.854 237.585 138.991L237.614 139.49ZM251.6 138.166L251.665 138.661C254.004 138.355 256.326 138.007 258.632 137.622L258.549 137.129L258.467 136.635C256.172 137.019 253.862 137.365 251.535 137.67L251.6 138.166ZM265.457 135.85L265.556 136.34C267.863 135.873 270.155 135.367 272.434 134.826L272.319 134.34L272.203 133.853C269.935 134.392 267.653 134.895 265.357 135.36L265.457 135.85ZM279.127 132.609L279.258 133.092C281.525 132.478 283.78 131.83 286.026 131.15L285.881 130.672L285.736 130.193C283.5 130.87 281.254 131.516 278.997 132.127L279.127 132.609ZM292.576 128.542L292.734 129.016C294.958 128.275 297.174 127.504 299.382 126.705L299.212 126.235L299.042 125.765C296.841 126.561 294.634 127.329 292.418 128.067L292.576 128.542ZM305.791 123.767L305.972 124.233C308.154 123.386 310.33 122.513 312.503 121.617L312.313 121.155L312.122 120.693C309.955 121.586 307.785 122.456 305.61 123.301L305.791 123.767ZM318.782 118.414L318.981 118.873C320.056 118.406 321.13 117.934 322.203 117.457L322 117L321.797 116.543C320.726 117.019 319.655 117.49 318.583 117.956L318.782 118.414Z" fill="#727272"/>
</svg>
