<svg width="78" height="80" viewBox="0 0 78 80" fill="none" xmlns="http://www.w3.org/2000/svg">
<path d="M38.9751 -0.00244141C17.622 -0.00244141 0.32959 17.9001 0.32959 39.9976C0.32959 62.0951 17.622 79.9976 38.9751 79.9976C60.3136 79.9976 77.6206 62.0951 77.6206 39.9976C77.6206 17.9001 60.316 -0.00244141 38.9629 -0.00244141H38.9751ZM38.9751 1.75506C48.8332 1.75506 58.1188 5.74006 65.0977 12.9526C72.0619 20.1401 75.9447 29.8676 75.9204 39.9976C75.9204 50.2051 72.0765 59.8151 65.0977 67.0426C58.209 74.2176 48.7942 78.2526 38.9751 78.2401C29.156 78.2526 19.7413 74.2176 12.8525 67.0426C5.88831 59.8551 1.99331 50.1276 2.01767 39.9976C2.01767 29.7901 5.87369 20.1801 12.8404 12.9526C19.7291 5.76506 29.156 1.72756 38.9751 1.75506ZM37.0337 15.8301C30.7418 17.5626 24.9175 20.8826 17.1543 30.0226C9.39113 39.1626 10.8624 46.7151 10.8624 46.7151C10.8624 46.7151 13.006 41.5201 18.1579 36.0501C20.606 33.4601 22.4207 32.5876 23.6777 32.5876C24.7933 32.5226 25.7336 33.4476 25.7336 34.5926V53.1476C25.7336 54.9826 24.579 55.3876 23.5145 55.3601C22.6132 55.3476 21.7752 55.0226 21.7752 55.0226C27.066 62.9126 39.7278 64.0201 39.7278 64.0201L45.2841 57.9251L45.4108 58.0426L50.4993 62.4951C59.8118 56.8176 64.3036 46.2976 64.3036 46.2976C60.1431 50.8026 57.5025 51.8576 55.929 51.8576C54.5332 51.8451 53.9875 51.0101 53.9875 51.0101C53.912 50.6201 53.7854 44.9676 53.7342 39.3176C53.6831 33.4701 53.7342 27.6126 54.0143 27.5976C55.6245 24.4976 60.752 18.2476 60.752 18.2476C51.1741 20.1876 45.9588 26.6326 45.9588 26.6326C44.412 25.3826 41.2649 25.5901 41.2649 25.5901C42.7361 26.4226 44.2074 28.8451 44.2074 30.8501V50.5901C44.2074 50.5901 40.9969 53.4926 38.5245 53.4926C37.0532 53.4926 36.1519 52.6726 35.6574 51.9951C35.4674 51.7351 35.3018 51.4476 35.1751 51.1351V26.7601C34.8316 27.0201 34.4127 27.1626 33.9961 27.1776C33.4627 27.1776 32.917 26.9051 32.5492 26.1101C32.2691 25.5101 32.0913 24.6126 32.0913 23.2976C32.0913 18.8051 37.0386 15.8226 37.0386 15.8226L37.0337 15.8301Z" fill="black"/>
</svg>
