<svg width="84" height="84" viewBox="0 0 84 84" fill="none" xmlns="http://www.w3.org/2000/svg">
<path d="M77.2184 30.5328C76.2158 30.5328 75.2865 30.8442 74.5182 31.3714C73.5947 24.9527 68.0731 20.0002 61.4025 20.0002H22.5935C15.923 20.0002 10.4024 24.9536 9.47889 31.3714C8.70962 30.8442 7.78123 30.5328 6.77864 30.5328C4.13794 30.5328 1.99902 32.6727 1.99902 35.3124V48.2269C1.99902 50.8657 4.13794 53.0056 6.77864 53.0056C7.78123 53.0056 8.70962 52.6951 9.47889 52.167C10.4024 58.5847 15.923 63.5381 22.5935 63.5381H61.4035C68.0741 63.5381 73.5937 58.5867 74.5182 52.1689C75.2874 52.6951 76.2158 53.0056 77.2194 53.0056C79.8582 53.0056 81.999 50.8666 81.999 48.2269V35.3124C81.998 32.6727 79.8572 30.5328 77.2184 30.5328ZM70.8798 50.2731C70.8798 55.4979 66.6283 59.7474 61.4035 59.7474H22.5935C17.3688 59.7474 13.1173 55.4969 13.1173 50.2731V33.2662C13.1173 28.0405 17.3678 23.79 22.5935 23.79H61.4035C66.6283 23.79 70.8798 28.0405 70.8798 33.2662V50.2731Z" fill="#6A00FF"/>
<path d="M51.4251 33.3813C50.4166 33.3813 49.7137 33.4419 49.3467 33.5639V40.7148H51.2113C53.7778 40.7148 55.3368 39.2172 55.3368 36.9866C55.3368 33.9622 53.0749 33.3813 51.4251 33.3813Z" fill="#6A00FF"/>
<path d="M58.7611 25.9559H25.2335C19.8086 25.9559 15.4097 30.0073 15.4097 35.0036V48.5342C15.4097 53.5295 19.8086 57.5818 25.2335 57.5818H58.7611C64.186 57.5818 68.5849 53.5305 68.5849 48.5342V35.0036C68.5839 30.0073 64.186 25.9559 58.7611 25.9559ZM35.2906 53.6096H30.1253L23.3113 30.1098H28.2617L30.921 40.4998C31.6239 43.2811 32.3258 46.0926 32.8149 48.9344H32.9076C33.4269 46.1219 34.1298 43.2508 34.863 40.4998L37.5828 30.1098H42.4414L35.2906 53.6096ZM56.0374 53.6096C55.7016 52.937 55.1217 50.8908 54.5721 48.048C53.96 45.0217 53.0121 44.0747 50.8731 44.0747H49.3453V53.6105H44.8527V30.4163C46.4118 30.141 48.6122 29.9282 50.9044 29.9282C53.8682 29.9282 59.8574 30.2943 59.8574 36.589C59.8574 39.4611 58.024 41.5707 55.8246 42.4269V42.5167C57.4744 43.159 58.3901 44.7474 58.9397 47.1313C59.6123 49.9116 60.2235 52.7241 60.6823 53.6105L56.0374 53.6096Z" fill="#6A00FF"/>
</svg>
