<svg width="84" height="84" viewBox="0 0 84 84" fill="none" xmlns="http://www.w3.org/2000/svg">
<path d="M48.5688 2.02732L70.6275 2L33.6191 43.5669L23.974 54.3449L13 41.9977L48.5688 2.02732ZM48.3636 39.1416C48.6499 38.7167 49.1766 38.9261 49.5763 38.8715L70.6086 38.8776L51.4399 60.3971L40.4093 48.0772L48.3636 39.1416Z" fill="#44D1FD"/>
<path d="M29.415 60.4177L40.4106 48.0767L51.4413 60.3965L51.4872 60.4511L40.4133 72.7801L29.415 60.4177Z" fill="#1FBCFD"/>
<path d="M40.4087 72.7812L51.4826 60.4523L70.6134 81.9718C63.4073 81.99 56.2039 81.9657 49.0004 81.9839C48.5899 82.0871 48.336 81.6652 48.074 81.4042L40.4087 72.7812Z" fill="#08589C"/>
</svg>
