<svg width="84" height="84" viewBox="0 0 84 84" fill="none" xmlns="http://www.w3.org/2000/svg">
<g clip-path="url(#clip0_739_81)">
<path d="M41.9751 1.99756C20.622 1.99756 3.32959 19.9001 3.32959 41.9976C3.32959 64.0951 20.622 81.9976 41.9751 81.9976C63.3136 81.9976 80.6206 64.0951 80.6206 41.9976C80.6206 19.9001 63.316 1.99756 41.9629 1.99756H41.9751ZM41.9751 3.75506C51.8332 3.75506 61.1188 7.74006 68.0977 14.9526C75.0619 22.1401 78.9447 31.8676 78.9204 41.9976C78.9204 52.2051 75.0765 61.8151 68.0977 69.0426C61.209 76.2176 51.7942 80.2526 41.9751 80.2401C32.156 80.2526 22.7413 76.2176 15.8525 69.0426C8.88831 61.8551 4.99331 52.1276 5.01767 41.9976C5.01767 31.7901 8.87369 22.1801 15.8404 14.9526C22.7291 7.76506 32.156 3.72756 41.9751 3.75506ZM40.0337 17.8301C33.7418 19.5626 27.9175 22.8826 20.1543 32.0226C12.3911 41.1626 13.8624 48.7151 13.8624 48.7151C13.8624 48.7151 16.006 43.5201 21.1579 38.0501C23.606 35.4601 25.4207 34.5876 26.6777 34.5876C27.7933 34.5226 28.7336 35.4476 28.7336 36.5926V55.1476C28.7336 56.9826 27.579 57.3876 26.5145 57.3601C25.6132 57.3476 24.7752 57.0226 24.7752 57.0226C30.066 64.9126 42.7278 66.0201 42.7278 66.0201L48.2841 59.9251L48.4108 60.0426L53.4993 64.4951C62.8118 58.8176 67.3036 48.2976 67.3036 48.2976C63.1431 52.8026 60.5025 53.8576 58.929 53.8576C57.5332 53.8451 56.9875 53.0101 56.9875 53.0101C56.912 52.6201 56.7854 46.9676 56.7342 41.3176C56.6831 35.4701 56.7342 29.6126 57.0143 29.5976C58.6245 26.4976 63.752 20.2476 63.752 20.2476C54.1741 22.1876 48.9588 28.6326 48.9588 28.6326C47.412 27.3826 44.2649 27.5901 44.2649 27.5901C45.7361 28.4226 47.2074 30.8451 47.2074 32.8501V52.5901C47.2074 52.5901 43.9969 55.4926 41.5245 55.4926C40.0532 55.4926 39.1519 54.6726 38.6574 53.9951C38.4674 53.7351 38.3018 53.4476 38.1751 53.1351V28.7601C37.8316 29.0201 37.4127 29.1626 36.9961 29.1776C36.4627 29.1776 35.917 28.9051 35.5492 28.1101C35.2691 27.5101 35.0913 26.6126 35.0913 25.2976C35.0913 20.8051 40.0386 17.8226 40.0386 17.8226L40.0337 17.8301Z" fill="black"/>
</g>
<defs>
<clipPath id="clip0_739_81">
<rect width="77.9487" height="80" fill="white" transform="translate(3 2.00012)"/>
</clipPath>
</defs>
</svg>
