<svg width="515" height="627" viewBox="0 0 515 627" fill="none" xmlns="http://www.w3.org/2000/svg">
<path d="M290.344 562.367C290.15 563.145 289.761 563.729 289.372 563.729L289.177 563.923C287.816 564.701 286.26 565.285 284.704 565.868L284.12 566.063C283.537 566.452 282.564 566.841 281.981 567.23C281.203 567.619 279.647 568.202 278.869 568.591C278.285 568.786 276.924 569.953 276.535 569.953C276.146 569.953 274.979 570.925 273.812 571.314C272.84 571.703 270.311 573.259 269.922 573.259C269.533 573.259 268.755 573.843 268.561 574.037C268.366 574.232 267.199 574.815 267.005 575.01C266.616 575.204 265.449 575.788 264.865 575.982C264.476 576.371 262.531 577.344 261.753 577.733C260.975 578.122 258.447 579.094 258.058 579.483H257.864L256.891 579.872C256.113 580.455 254.363 581.428 253.001 582.206L251.834 582.789C251.251 583.178 250.667 583.373 250.084 583.567L248.917 583.956C247.75 584.734 246.583 585.318 246.194 585.318C245.805 585.318 245.027 586.096 244.832 586.29C244.638 586.485 243.471 587.068 243.082 587.068C242.693 587.068 241.332 587.457 240.359 587.457V588.43C240.359 588.624 239.581 588.819 238.998 589.013H238.803C238.414 589.013 237.636 589.402 237.053 589.986C236.469 590.569 233.746 591.542 233.163 591.931C232.579 592.32 231.607 593.487 231.412 593.292C231.412 593.098 231.023 593.098 230.829 593.487C230.634 593.876 229.273 594.265 229.273 594.265C229.273 594.459 229.078 594.654 228.689 594.459H228.3C228.106 594.459 227.911 594.459 227.911 594.459C227.522 594.848 227.328 595.432 226.939 595.432L226.356 595.626C225.772 595.821 224.8 596.404 224.216 596.793C223.633 597.182 220.715 598.738 219.354 599.71L218.187 600.488C217.992 600.683 217.603 600.877 217.409 600.877C217.02 600.877 216.436 600.877 216.047 601.072C215.853 601.072 215.853 601.655 215.658 601.85L215.464 602.044C215.075 602.239 214.686 602.628 214.491 602.822H214.297H213.713C213.324 603.211 212.935 603.795 212.741 603.989C212.546 604.184 211.185 603.989 210.796 603.989V604.184L210.601 604.962C209.824 605.156 209.046 605.545 208.851 605.74C208.657 605.934 207.684 606.129 207.101 606.323L206.906 606.907L206.712 607.49C205.934 607.879 205.156 608.268 205.156 608.268C205.156 608.268 204.767 608.074 204.572 608.074C204.378 607.879 203.6 608.657 203.405 609.046C203.211 609.241 201.46 610.213 200.682 610.602L199.904 611.186L199.126 611.769C197.959 612.158 196.792 612.742 196.403 613.13C196.014 613.519 194.264 613.908 194.264 613.908C194.264 614.103 192.708 615.075 191.347 615.853L190.18 616.242C189.791 616.437 189.207 616.242 189.013 616.437L188.429 617.02C187.651 617.604 186.484 617.798 185.901 617.409L185.706 618.187L185.512 618.576C184.928 618.965 184.345 619.16 183.956 619.354C183.761 619.354 182.011 619.938 181.038 620.132C180.066 620.521 176.954 622.077 176.37 622.466L175.787 622.661L173.453 623.244C170.925 624.217 168.202 625.189 167.229 625.384C166.257 625.578 163.923 626.162 163.923 626.162C163.728 626.162 163.339 625.967 162.95 626.162C162.561 626.162 161.589 626.162 161.589 625.967C161.589 625.773 161.005 625.189 160.616 625.384C160.228 625.578 159.061 625.773 159.255 625.384C159.255 624.995 157.894 625.578 157.31 625.384C156.727 625.189 155.365 624.995 155.171 625.189H154.976L153.42 625.384C151.67 625.384 150.308 625.578 150.308 625.384C150.308 625.384 149.919 624.995 149.53 624.8C149.141 624.606 147.196 624.411 146.029 623.633V622.661C146.029 622.466 146.613 620.521 146.613 620.521L146.807 620.327C147.002 620.132 147.196 619.549 147.196 619.16C147.196 618.771 147.196 617.409 147.002 617.215C146.807 617.02 145.64 617.02 145.64 616.437C145.64 615.853 145.057 614.103 144.473 613.908C143.89 613.714 142.723 612.158 141.751 611.964L142.334 610.991L142.529 610.408C142.334 609.824 142.14 608.463 141.945 607.685C141.751 606.907 140 603.211 139.222 601.461L138.444 599.905V599.71C138.639 599.516 138.833 598.738 138.833 597.96C139.028 597.182 138.25 595.432 138.25 595.432C138.25 595.432 138.444 595.043 138.639 594.848C138.833 594.459 138.833 593.487 138.444 593.487C138.055 593.292 136.888 594.654 136.11 595.043C135.332 595.432 132.026 597.376 130.47 598.154C128.914 599.127 124.441 601.85 124.052 601.85C123.663 602.044 121.718 603.017 120.551 603.6C119.384 604.184 116.077 606.323 115.494 606.518C114.91 606.712 112.771 608.074 112.187 608.463C111.604 608.657 109.465 609.63 109.076 609.824C108.687 610.019 107.325 610.797 106.547 610.991C105.769 611.38 103.241 612.158 102.463 612.547C101.685 612.742 99.3508 613.714 98.7673 613.908C98.3783 614.103 96.0444 613.52 95.8499 613.52C95.6554 613.52 95.072 613.714 95.4609 613.714C95.6554 613.714 96.2389 614.297 95.8499 614.492H95.6554L94.683 614.686C93.516 614.881 92.5435 614.881 92.349 614.881C92.1545 614.881 91.1821 614.492 90.4041 614.297C89.6261 614.103 87.4867 613.52 87.4867 612.547L86.5142 611.964L85.9307 611.575C85.5417 610.797 85.3472 610.213 85.5417 610.408C85.7362 610.408 86.5142 610.602 86.7087 610.213C86.7087 610.019 86.5142 609.435 86.3197 609.435L85.7362 609.824C85.1528 609.63 83.9858 608.852 83.2078 608.074L82.6243 607.296L82.4298 607.101C82.6243 606.518 82.4298 606.129 82.0408 606.129C81.6519 606.129 82.2353 605.351 82.2353 605.156C82.2353 605.156 81.4574 604.573 80.6794 604.184L80.8739 603.406C80.8739 602.822 80.6794 602.433 80.2904 602.044L79.9014 601.85C79.3179 601.461 79.5124 600.877 79.9014 600.877C80.4849 600.683 81.6519 600.099 81.8464 599.71C82.0408 599.321 83.0133 598.932 83.5968 598.932L83.9858 598.738C84.5693 598.543 84.7638 597.96 85.3472 597.765L85.7362 597.571C86.1252 597.376 87.2922 597.182 88.2646 596.987V595.626V595.432C88.2646 595.237 88.4592 595.043 88.8481 595.237C89.2371 595.432 90.0151 594.848 90.0151 594.265H91.3766C91.5711 594.265 91.96 593.876 91.96 593.681V593.487C91.7655 593.292 91.5711 593.098 91.3766 593.292C91.1821 593.292 90.7931 593.292 90.9876 592.709L91.1821 592.32C91.1821 592.125 91.3766 591.931 91.96 592.125L92.349 592.32C92.9325 592.32 94.0995 591.736 95.072 591.153V590.18V589.986C95.072 589.791 95.2664 589.597 95.4609 589.402C95.6554 589.208 96.2389 589.208 96.2389 589.402L96.4334 589.597C96.4334 589.791 96.6279 589.986 96.8224 589.986C97.0169 589.986 97.4059 589.791 97.4059 589.791L97.6004 589.208C98.1838 588.624 98.5728 588.235 98.5728 588.041V587.846V587.263C99.3508 586.874 99.9343 586.679 100.129 586.485C100.323 586.485 101.101 586.29 101.296 586.29C101.49 586.29 101.49 585.707 101.296 585.512C101.101 585.512 100.518 584.54 100.907 584.345C101.296 583.956 103.046 584.151 103.241 583.762C103.435 583.373 104.797 582.789 105.186 582.4L105.575 582.206C106.158 581.817 106.158 581.622 105.575 581.233C105.575 581.233 105.769 580.65 105.964 580.65L106.547 580.455C107.325 580.261 107.909 580.455 108.103 580.65C108.103 580.844 108.492 581.039 108.881 580.261L108.298 579.678L107.909 579.289C108.492 579.289 109.659 578.9 110.437 578.511L110.631 577.733V577.538C110.243 577.149 110.048 576.76 110.242 576.76C110.437 576.566 111.02 575.982 110.631 575.982H110.437L109.659 576.371C108.687 576.955 107.714 577.538 107.52 577.927C107.325 578.316 105.964 578.705 105.964 578.511C105.964 578.316 105.575 578.122 105.38 578.316C105.186 578.511 104.602 579.094 104.408 579.094C104.213 579.094 104.408 579.288 104.797 579.872C105.186 580.455 103.046 580.844 103.046 580.65C103.046 580.455 103.241 579.872 103.241 579.872C103.046 579.872 101.685 580.65 100.323 581.428C98.7673 582.206 93.7105 585.123 92.349 586.096L90.9876 586.874L89.8206 587.457C88.4592 588.235 86.5142 589.402 85.5417 589.986L84.7638 590.764L83.9858 591.542C82.8188 592.125 81.4574 592.903 80.6794 593.292C80.0959 593.487 78.151 594.848 77.373 595.237C76.595 595.626 73.4831 597.571 71.9271 598.349L70.3712 599.127L69.5932 599.516C68.8152 599.71 67.6483 600.294 67.0648 601.072H66.4813H64.7309C63.5639 601.85 62.0079 602.822 61.0355 603.211C60.2575 603.6 57.9236 605.156 57.1456 605.351C56.3676 605.545 54.8117 607.296 54.2282 607.685C53.6447 608.074 51.3108 608.463 50.9218 608.657L50.7273 608.852L50.1438 609.63C48.9768 610.019 47.6154 610.602 46.8374 610.797C46.0594 610.991 44.1145 612.353 43.531 612.547L42.9475 612.742C42.753 612.936 42.364 612.936 41.9751 613.13C41.1971 613.519 40.4191 614.297 39.6411 614.492L38.6686 614.686C37.8907 615.075 36.3347 615.659 35.3622 615.853C34.3898 616.242 31.4724 615.853 31.2779 616.048C31.0834 616.242 30.1109 616.437 29.7219 616.437C29.3329 616.242 27.777 615.659 27.1935 615.464C26.61 615.27 24.2761 616.437 22.9146 616.826H21.5532H20.3862C19.4137 616.437 18.2468 615.659 17.6633 615.075L17.8578 614.686L18.0523 613.908C18.2468 612.936 18.4413 611.769 18.6358 611.38C18.6358 610.991 17.2743 610.408 17.0798 610.213C16.8853 610.213 16.3018 609.824 15.9128 609.63C15.5238 609.435 15.3293 608.268 15.3293 607.879C15.3293 607.49 15.1349 606.518 14.9404 606.323L14.3569 606.518C13.7734 606.712 13.3844 606.518 13.5789 606.129L12.9954 605.74L13.1899 604.573C12.9954 603.795 12.2174 601.85 11.634 600.294L10.856 598.932L10.6615 598.349C10.2725 597.96 9.49452 597.182 9.30003 596.793C8.91104 596.404 8.13307 594.848 7.93857 594.265L7.74407 593.681C7.54957 593.292 7.16059 592.903 7.16059 592.32V591.931C6.77161 591.347 6.38262 590.958 6.18812 590.764V590.569L6.38261 589.986C6.38261 589.402 6.38261 588.624 6.38261 588.235C6.38261 587.846 6.9661 586.29 7.35508 585.123L8.52205 584.345C8.71654 584.151 8.52204 583.567 8.71654 583.567L9.10554 583.373C9.68902 583.178 9.88352 582.984 9.88352 582.789C9.88352 582.789 9.88351 582.4 10.2725 582.4C10.6615 582.4 10.856 581.233 11.0505 580.65C11.245 580.261 11.634 579.483 11.4395 579.094L12.0229 578.899L12.4119 578.705C12.4119 578.511 12.6064 578.122 12.8009 578.122H12.9954L13.5789 577.733C13.1899 577.344 13.3844 576.76 14.1624 576.566C14.7459 576.371 15.3293 574.815 15.5238 574.426C15.7183 574.037 16.8853 573.259 17.4688 573.065L16.8853 572.676C16.6908 572.676 16.8853 572.092 17.0798 572.092H18.2468C18.4412 571.314 18.8302 570.342 19.2192 569.758C19.6082 569.175 20.3862 567.619 20.5807 567.813C20.7752 567.813 21.5532 567.813 21.9421 567.424C22.3311 567.035 23.3036 565.868 23.1091 565.674C22.9146 565.479 21.9421 565.09 21.9421 565.285C21.9421 565.479 21.1642 565.479 20.9697 565.09L20.7752 564.896L20.3862 564.701C19.8027 564.701 19.0247 564.896 18.6358 564.896C18.2468 564.896 16.4963 564.312 15.5238 564.312C14.5514 564.312 12.2174 564.896 11.8285 565.09C11.4395 565.285 10.2725 563.923 11.245 562.757L10.078 561.59L9.88352 561.395C10.078 560.812 9.8835 560.423 9.68901 560.423C9.49451 560.423 8.71654 560.228 8.71654 560.228C8.71654 560.228 8.52205 559.839 8.52205 559.45C8.52205 559.256 8.52205 558.283 8.52205 557.894C8.52205 557.505 7.54958 556.922 7.54958 556.533L7.35508 556.338C6.9661 556.144 6.38262 556.144 5.99363 555.949L5.60463 555.755C5.21565 555.56 4.82665 554.782 4.82665 554.004C4.82665 553.226 3.27071 551.476 3.27071 551.476L4.43767 550.309C3.27071 549.725 1.90925 548.753 1.13128 548.169V547.391L0.936772 546.614C0.936772 545.641 0.936775 544.863 0.742281 545.058C0.547786 545.058 0.158807 545.058 0.158807 544.669H0.353298C0.742287 544.474 2.10375 544.474 0.353298 544.085C0.353298 544.085 0.158807 544.085 0.158807 543.891C-0.0356871 542.724 -0.23019 541.362 0.742281 540.39C0.936775 540.195 1.32576 540.001 1.71475 539.806C2.10374 539.612 2.68723 539.028 2.49273 539.028C1.71475 538.056 3.07622 538.639 3.07622 538.445C3.27071 538.056 3.4652 537.472 3.65969 537.083C4.24318 536.5 5.02115 535.916 5.79913 535.527L6.18812 535.138C6.38262 534.749 7.35508 533.582 8.32756 532.61L9.88352 532.804H10.078C10.2725 532.61 10.6615 532.221 10.856 531.832C11.0505 531.443 12.0229 531.054 12.2174 530.665C12.4119 530.276 13.9679 530.276 14.3569 530.081C14.7459 529.887 15.5238 528.914 16.1073 529.303L16.6908 528.72C16.3018 528.331 16.3018 528.137 16.6908 528.137C17.0798 528.137 18.0523 527.748 17.8578 527.359L18.0523 527.164L18.4412 526.581C19.2192 526.581 19.8027 526.386 19.8027 526.192C19.8027 525.997 20.5807 525.414 20.9697 525.219C21.3587 525.025 23.1091 524.636 23.6926 524.441C24.2761 524.247 25.2486 523.274 25.6375 523.274C25.832 523.274 26.8045 523.08 26.8045 522.691V522.496V522.302C26.999 522.107 27.777 522.107 28.7494 521.913V520.94C29.5274 520.746 30.8889 520.357 31.4724 519.968L32.0558 519.579L32.4448 519.384C33.0283 519.384 33.8063 519.19 34.1953 518.995L34.5843 518.801C35.1678 518.606 35.5567 518.412 36.1402 518.217C36.5292 518.023 36.9182 517.634 37.3072 517.439C37.5017 517.245 37.8907 517.245 38.2797 517.245C39.2521 517.05 40.2246 517.05 40.6136 516.078C40.8081 515.689 41.1971 515.494 41.7805 515.105C41.975 515.105 42.1695 515.689 42.753 515.105L43.142 514.716C43.7255 514.327 44.5035 514.327 45.087 514.716L45.4759 514.133C45.6704 513.938 45.6704 513.744 45.8649 513.744V513.549C45.8649 513.355 46.4484 513.355 46.8374 513.355C47.2264 513.355 48.3934 512.771 48.7823 512.771C49.1713 512.771 49.9493 512.188 50.1438 512.188L50.5328 511.993C50.7273 511.993 50.9218 511.994 50.9218 511.799L51.8943 510.438C53.8392 509.66 55.5896 508.882 55.9786 508.882C56.1731 508.687 57.3401 508.493 57.9236 508.298C58.507 508.104 60.063 507.131 60.2575 507.326C60.452 507.52 61.619 507.715 62.0079 507.326L62.5914 507.131L63.1749 506.937C63.9529 506.937 64.5364 506.937 64.5364 506.742C64.3419 506.548 64.5364 505.964 65.3143 505.964L65.7033 505.77L66.0923 505.575C66.2868 505.77 67.2593 505.575 67.8428 505.186L68.4263 504.797L68.6207 504.603C69.0097 504.603 69.2042 504.797 69.0097 504.992L68.8152 505.186C68.8152 505.186 69.0097 505.381 69.2042 505.381H69.3987C69.5932 505.381 69.9822 504.797 70.1767 504.214L70.9547 504.019C72.3161 503.63 73.8721 503.63 75.0391 502.658C75.0391 502.658 75.428 502.658 75.6225 502.658H76.206C76.7895 502.658 77.5675 502.658 77.9565 502.463C78.151 502.269 79.5124 501.88 80.0959 501.685C80.6794 501.491 82.4298 500.907 82.6243 500.907C82.8188 501.102 83.5968 501.491 83.5968 501.296C83.5968 501.102 84.3748 500.907 84.9583 500.907C85.5417 500.907 87.6812 500.324 88.0702 500.129C88.6536 499.935 90.0151 500.713 90.2096 500.713C90.4041 500.713 91.5711 501.296 92.5435 501.88C93.516 502.463 97.2114 501.491 98.3784 501.296L99.5453 501.491L100.518 501.685C101.685 501.491 102.852 501.296 103.241 501.102C103.63 501.102 104.602 501.491 104.991 501.296C105.38 501.102 106.158 501.102 106.158 501.491C106.158 501.88 107.52 501.491 107.714 501.296H107.909L108.687 501.685C109.465 502.269 110.437 503.047 110.826 503.436C111.215 503.825 112.576 504.408 112.382 504.408C112.187 504.603 112.382 505.186 112.771 505.77L113.16 506.353L113.938 507.52C115.299 508.493 116.077 509.271 115.883 509.66C115.688 509.854 115.105 510.632 115.494 511.021L115.883 511.216H116.077C116.466 510.827 117.05 510.827 117.439 511.021L117.828 511.41C118.022 511.605 117.828 511.799 117.828 511.993C117.828 512.382 116.466 511.799 117.244 512.577C117.633 513.16 117.244 513.355 117.05 513.549L116.855 513.938C116.661 514.522 116.855 515.105 117.244 515.3C117.633 515.494 117.828 516.856 117.828 517.05C118.022 517.245 118.995 518.606 119.967 519.968L119.773 521.329C119.578 522.107 119.773 522.885 120.745 523.469L121.134 523.663C121.329 524.052 121.523 524.636 121.718 524.83C121.912 525.219 123.274 525.608 123.857 525.803V525.997C124.052 526.775 124.441 526.775 125.024 526.386C125.024 526.386 125.413 526.386 125.413 526.581L125.608 526.775C125.802 526.97 125.997 527.359 125.802 527.359C125.608 527.359 125.219 527.942 125.413 528.331L125.608 528.526L125.802 528.915C125.997 529.304 125.997 529.692 126.191 529.887C126.191 530.081 125.608 531.248 125.024 532.61L123.663 533.582L123.079 533.971C122.69 534.944 122.301 535.916 122.107 536.111C121.912 536.5 120.356 537.472 119.967 538.25L119.384 538.445C118.217 538.834 119.384 539.028 119.189 539.223C118.8 539.417 118.606 539.806 118.217 540.001L117.439 540.584C116.466 541.168 115.494 541.946 115.299 542.335C115.105 542.724 113.743 543.502 113.938 543.891C114.132 544.28 112.382 544.863 111.604 545.252L111.02 545.641L110.437 546.224C109.465 547.002 109.27 547.391 109.659 547.391C110.243 547.391 112.187 546.419 113.743 545.641L115.299 545.252L116.077 545.058C116.077 544.474 116.077 543.696 116.077 543.696C116.272 543.696 116.466 543.696 116.661 543.696L116.855 543.891C117.05 544.28 117.439 544.28 117.828 543.891L118.022 543.696C118.217 543.502 118.411 543.307 118.411 543.307L119.773 543.502C120.356 542.724 121.134 541.751 121.523 541.362C121.718 540.973 123.857 540.779 124.441 540.39L125.219 540.195C125.608 540.195 125.997 540.001 126.191 539.612C125.997 539.223 125.997 539.028 126.191 539.028C126.386 539.028 127.358 538.834 127.552 538.639C127.747 538.445 128.33 537.667 128.525 537.278L129.303 537.472C129.692 537.472 130.47 536.889 130.859 536.5L131.248 536.111C131.637 535.916 132.22 535.527 132.22 535.527C132.415 535.527 132.804 535.527 133.193 535.333C133.582 535.333 134.943 534.555 135.332 534.166L135.721 533.777C136.11 533.193 136.499 534.555 136.694 533.777C136.888 532.804 137.472 533.777 137.666 533.582L138.055 533.193C138.444 533.388 138.639 533.388 138.639 532.999L138.833 532.804L139.028 532.61C139.417 532.61 140.195 532.415 140.778 532.415C141.362 532.415 142.917 531.248 143.306 530.859L143.695 530.47C144.084 530.665 144.473 530.665 144.473 530.47C144.473 530.276 144.862 529.498 145.057 529.692C145.251 529.887 145.835 530.276 146.224 530.081C146.613 529.887 147.196 529.498 147.391 528.915H148.169H148.752C149.336 528.72 150.114 528.137 150.308 527.748L150.892 527.553C151.281 527.553 151.281 527.164 151.67 527.553L151.864 527.748C152.253 527.748 152.837 527.359 153.226 526.97L154.004 526.775L154.587 526.581C155.171 525.997 156.532 525.414 157.31 525.025C158.088 524.636 161.2 524.052 162.172 523.858L162.756 523.274L163.534 522.691C164.701 522.496 165.673 522.691 165.868 523.08C166.062 523.469 166.646 524.441 166.646 524.441C166.646 524.441 166.84 524.247 166.84 524.052C166.84 523.858 166.451 522.885 166.451 522.496L167.618 521.913C168.591 521.329 170.147 521.718 170.536 520.551C170.536 520.551 170.925 520.551 171.119 520.551C171.897 521.135 171.897 521.524 170.73 522.107C170.73 522.107 171.703 522.107 172.87 521.913L173.453 521.718C174.037 521.524 174.62 521.524 175.204 521.524L176.176 521.718C176.371 521.135 176.565 520.746 176.76 520.94C176.954 521.135 177.537 521.718 177.537 521.524C177.537 521.329 177.732 520.357 177.732 519.384L179.288 518.217L179.482 518.023C179.677 517.828 180.066 518.023 180.26 518.412C180.455 518.801 181.622 519.579 182.4 519.19C183.178 518.801 185.512 518.606 185.512 518.217C185.512 517.828 185.317 517.245 185.123 517.439C184.928 517.828 183.567 517.828 183.567 517.634V517.439C183.567 517.245 183.178 516.467 184.345 517.05L184.539 517.245C185.317 516.661 186.095 516.467 186.29 516.856V517.05V517.245C186.29 517.634 186.484 517.828 186.679 517.828C186.873 517.828 187.651 517.439 187.846 517.05C188.04 516.661 188.818 515.3 189.207 515.689C189.596 516.078 190.763 516.661 191.152 516.272L191.541 516.078L192.125 515.883C192.708 515.689 193.68 515.494 194.264 515.494H194.847C195.625 515.689 196.209 515.494 196.792 515.105C196.987 514.911 197.181 514.716 197.376 514.716L198.932 513.744L199.321 513.549C199.71 513.355 200.682 513.16 201.655 512.966C202.627 512.771 205.156 511.993 205.934 511.993C206.712 511.993 208.851 511.799 209.24 511.993C209.629 511.993 209.629 512.966 209.046 513.16C208.462 513.355 208.073 514.716 208.462 514.522C208.657 514.327 209.824 514.327 210.407 514.716L210.99 515.105L211.574 515.494C212.352 515.689 213.324 516.272 213.908 516.661L212.935 517.245L212.741 517.439C212.741 518.217 213.13 518.606 213.324 518.217C213.519 517.828 214.102 517.439 214.102 518.023C214.102 518.606 213.324 519.384 213.908 519.384C214.297 519.384 215.853 519.19 216.436 519.19C217.02 518.995 217.409 517.828 217.603 518.023C217.798 518.217 218.576 518.217 218.965 518.023C219.354 517.634 220.91 517.05 221.299 517.05C221.688 517.05 222.271 516.272 222.66 516.467H223.049H223.244C223.438 516.467 223.633 516.272 223.633 516.078C223.633 515.883 224.022 515.494 224.605 515.3C225.189 514.911 227.133 514.327 227.522 514.133C227.911 513.938 228.106 512.966 228.3 512.966C228.3 512.966 228.689 512.771 229.078 512.966L229.273 513.16H229.467C229.467 513.355 230.051 512.966 230.44 512.188L230.829 511.605C231.023 511.41 231.218 511.41 231.412 511.41L232.385 511.605C233.163 511.021 233.941 510.438 234.33 510.243H234.719H235.302C235.886 510.049 236.469 509.854 236.664 509.66C236.858 509.465 236.858 508.882 237.247 508.687L237.636 508.493C238.22 508.298 238.803 508.298 239.387 508.298C239.776 508.298 238.998 507.131 240.165 507.715C240.165 507.715 240.748 507.326 241.137 507.131C241.332 506.937 241.526 506.742 241.721 506.742C242.11 506.548 242.693 506.353 243.277 506.159L243.665 505.964C244.249 505.964 245.027 505.77 245.416 505.381L245.805 504.992L246.194 504.603C246.583 504.214 247.166 504.019 247.361 504.019C247.555 504.019 248.139 503.825 247.944 503.436L248.528 503.047C249.111 502.658 249.306 503.047 249.889 503.241H250.084C250.473 503.047 251.251 502.463 251.834 502.074L252.418 502.658C252.612 502.852 253.001 502.658 252.612 502.074L252.418 501.88C252.418 501.685 253.196 501.296 253.974 501.102H254.752C254.946 501.102 254.946 500.324 255.724 500.324H256.113C256.502 500.324 257.475 500.324 258.253 500.129C259.031 499.935 260.392 498.184 260.975 497.99C261.559 497.795 263.698 497.406 264.476 497.017C265.06 496.628 266.032 496.239 266.227 496.434C266.421 496.628 267.005 496.823 267.199 496.628V496.434V496.239C267.005 496.045 267.005 495.656 267.394 495.461C267.783 495.267 268.755 495.073 269.728 495.073L270.506 494.878H270.895C271.284 494.684 272.84 495.267 274.396 496.045L275.757 496.823L275.952 497.017C276.146 497.212 276.729 497.601 277.313 497.795C277.896 497.99 279.452 497.601 280.23 497.212L281.008 497.601C281.981 497.99 282.759 498.379 283.926 498.184C284.12 498.184 286.454 499.351 286.843 499.546C287.038 499.74 287.621 499.546 287.816 499.74C288.205 499.935 288.399 500.324 288.788 500.324C289.566 500.518 289.372 500.907 289.372 501.296V501.491C289.177 501.685 288.788 502.269 288.594 502.658C288.399 503.047 289.761 504.214 289.566 504.408C289.372 504.603 288.983 505.381 289.177 505.964C289.372 506.548 290.928 507.326 290.733 507.715C290.539 508.104 290.15 509.076 290.344 509.076C290.539 509.271 290.733 509.66 290.733 509.854C290.733 510.049 290.344 510.632 290.344 510.827C290.15 511.021 289.566 511.021 289.372 511.216V511.41L289.761 511.993C290.344 512.577 290.733 512.966 290.928 512.771C290.928 512.771 291.511 512.577 291.511 512.771C291.511 512.966 291.317 513.744 291.317 513.744C291.317 513.744 291.122 514.327 291.317 514.522C291.511 514.911 291.706 516.661 291.9 517.439L292.484 518.217L292.873 518.606C292.678 519.384 293.262 520.162 294.039 520.357L294.623 520.551H294.817C295.401 520.94 295.595 521.524 295.401 521.718C295.206 521.913 295.012 522.302 295.012 522.885C295.012 523.274 294.039 524.83 293.845 525.803H292.484H292.095C291.706 526.192 291.9 526.775 292.484 527.164L292.873 527.359C293.067 527.553 293.067 527.359 293.262 526.775C293.456 526.581 293.651 526.192 293.845 526.192C295.012 526.192 295.595 524.636 297.151 525.608L299.68 524.247H299.874C300.069 524.052 300.458 524.052 300.847 523.858C301.236 523.858 302.403 523.08 302.597 522.885C302.792 522.691 304.542 522.691 305.126 522.107L305.709 521.718L308.043 521.329L308.432 521.718C308.821 521.524 309.599 520.94 310.182 520.551C310.766 520.162 312.516 518.606 312.711 518.023L313.683 518.606C314.267 518.995 315.239 518.412 315.823 518.995C316.212 518.801 316.99 518.412 317.573 518.023L318.351 517.828C320.685 517.05 321.269 516.661 322.241 517.245L323.214 517.634C324.381 517.634 325.159 517.245 324.964 517.05C324.77 516.856 325.159 515.883 325.937 515.494C326.715 515.105 329.437 514.133 329.632 514.133L330.021 514.327C330.41 514.522 330.799 514.522 330.993 514.133C330.993 513.549 331.577 513.549 331.966 513.744L333.327 514.327C334.689 514.133 335.856 513.549 335.856 513.16C335.856 512.771 337.801 512.382 338.968 512.188L339.94 511.799C340.524 511.605 341.107 511.41 341.885 511.41L342.469 511.216C342.858 510.827 343.441 510.632 343.635 510.827C343.83 511.021 344.413 511.605 344.608 511.605L345.191 511.216C345.775 510.827 346.553 510.632 347.136 511.021L347.525 510.243C347.525 510.049 348.303 510.243 348.692 510.243H348.887C349.081 510.243 349.665 510.049 350.248 509.854C350.832 509.66 352.777 509.66 353.749 509.854L354.527 509.076C354.722 508.882 354.916 508.687 355.305 509.076L355.5 509.271C355.889 509.271 356.472 509.076 356.861 508.882C357.25 508.687 359.195 508.687 359.779 508.298L359.973 508.493L360.751 509.076C361.334 508.687 362.307 508.104 363.085 507.715L363.668 507.52C363.668 507.52 363.863 507.52 364.057 507.715C365.224 508.298 365.419 508.298 365.808 507.909L366.391 507.326C366.975 507.52 367.753 507.909 367.947 507.909C368.142 507.909 368.92 507.131 369.114 506.937H369.309C370.087 506.937 369.698 507.52 369.698 507.715V507.909C369.698 508.104 370.67 507.715 371.837 507.131L372.81 506.742C373.977 506.353 373.588 506.548 374.171 507.52L374.755 508.493C374.171 508.493 373.977 508.687 374.366 509.076H374.755C375.338 509.076 375.922 508.298 376.116 508.298C376.7 508.687 377.283 508.882 377.672 508.493C378.255 508.104 378.255 508.493 378.644 508.687H378.839C379.033 508.493 379.033 508.104 378.644 507.909L379.228 507.715C379.422 507.715 379.811 507.909 379.811 508.104C380.006 508.493 380.006 508.687 380.395 508.298C380.395 507.909 381.173 507.909 382.145 508.104C383.118 508.298 384.868 510.049 384.479 510.243C384.09 510.438 383.896 511.216 384.285 511.605C384.674 511.994 385.841 512.771 386.23 512.577C386.619 512.382 387.786 511.994 387.786 511.799C387.786 511.605 388.369 511.216 389.147 511.216L388.369 511.993L387.98 512.383C388.564 512.966 389.342 513.549 389.536 513.744C389.731 513.938 388.953 514.716 388.758 514.716C388.564 514.522 387.98 514.133 387.98 514.327C387.98 514.522 387.98 514.716 387.98 515.105C387.98 515.494 389.731 516.078 390.509 516.467L389.731 517.245L389.536 517.439C389.925 518.023 390.509 518.801 390.898 518.995C391.287 519.19 391.481 519.968 391.676 520.162C391.87 520.357 391.287 521.135 391.092 521.329C390.898 521.524 391.092 522.107 391.092 521.913L391.287 521.718L391.481 521.524C391.676 521.329 392.259 521.329 392.454 521.524C392.648 521.718 392.843 522.691 392.648 523.08C392.259 523.469 390.898 523.663 390.314 523.663C389.731 523.663 388.175 523.858 388.175 524.247C388.175 524.636 387.98 525.414 387.591 525.219L387.786 524.636C387.786 523.858 387.591 523.469 387.397 523.469C387.008 523.469 386.23 523.469 386.23 523.663C386.23 523.663 386.424 524.247 386.619 524.441C386.813 524.83 385.257 525.414 385.452 525.219V525.025C385.452 524.636 385.646 524.052 385.452 523.858C384.868 523.469 384.868 524.052 384.479 524.441C384.09 524.83 383.507 525.025 382.923 525.414C382.729 525.414 382.34 525.414 381.951 525.414H381.562C381.173 525.414 380.2 525.608 379.228 525.997L378.45 526.386C378.061 526.581 377.089 526.775 378.061 527.359C377.866 527.553 377.088 527.748 376.505 527.942C375.727 528.137 374.366 529.692 374.171 529.692C373.977 529.692 373.199 529.498 372.226 529.303L371.837 530.081L371.448 530.859C370.865 530.665 370.087 530.859 370.087 531.054C369.892 531.248 369.503 531.832 369.309 532.026H369.114C367.558 531.832 366.391 532.415 365.613 533.388L365.224 533.971C364.641 534.36 364.057 534.36 363.863 534.166C363.863 533.971 362.696 533.777 361.529 534.166L360.556 534.555H360.362C360.167 534.749 359.779 535.333 359.39 535.916C359.001 536.5 358.417 537.667 358.612 537.278C358.612 536.889 358.223 535.916 357.834 536.111C357.445 536.305 356.667 537.667 356.472 537.278L356.278 537.083C355.889 536.889 355.5 537.083 355.5 537.472C355.5 537.667 355.111 537.861 354.722 537.861H353.166C352.193 538.834 350.443 540.001 349.276 540.39L348.109 540.584V540.973C348.692 541.362 348.498 541.557 348.109 541.946C347.914 542.14 347.72 542.335 347.525 542.335H347.331C346.942 542.335 346.747 541.946 346.942 541.557H347.72C347.525 541.168 347.331 540.779 346.942 540.973C346.553 541.168 345.775 541.751 345.58 541.751C345.386 541.946 344.608 541.557 344.413 541.751C344.219 541.751 342.663 542.724 341.496 543.307L340.329 543.891L339.94 544.085C339.551 543.891 338.968 544.085 338.773 544.085C338.579 544.28 338.579 544.474 338.968 544.474C339.357 544.474 340.718 544.474 340.913 544.863C341.107 545.058 341.302 545.835 340.913 546.03L340.718 546.224L340.524 546.419C340.329 546.613 339.94 546.613 339.94 546.419C339.94 546.225 339.162 546.224 338.579 546.808L338.19 547.391C338.19 547.586 338.19 547.78 338.384 547.975V548.169C338.384 548.364 338.19 548.558 337.995 548.558H337.801C337.412 548.364 336.828 548.169 336.634 548.169H336.439C336.245 548.169 335.661 548.169 335.272 547.975C334.883 547.975 334.3 547.002 333.522 546.808L330.215 546.224L329.048 546.614C328.27 547.586 327.492 547.975 327.103 547.391H326.909C326.52 547.391 326.131 547.586 325.937 547.975L325.548 548.364C325.353 548.947 325.353 549.725 325.353 549.92H325.937C326.131 550.309 326.131 550.698 325.937 550.892C325.937 551.087 325.353 551.67 324.964 551.281C324.575 550.892 324.381 550.309 323.992 549.92H323.408H323.214C323.214 549.725 323.019 549.531 323.019 549.336C323.019 549.336 322.825 549.142 322.436 549.142V550.309C321.269 550.309 320.491 550.698 320.685 551.087C320.88 551.476 322.241 551.67 322.436 551.865C322.436 552.254 322.436 553.226 322.241 553.226C321.852 553.226 320.88 551.865 320.296 551.281L319.324 552.254L319.129 552.448C318.74 552.643 318.546 552.643 318.74 552.837C318.935 552.837 318.935 553.226 318.546 553.615C317.962 553.81 318.74 555.171 318.351 555.366H318.157L317.573 555.171C316.99 554.782 316.406 554.588 316.601 554.977C316.601 555.171 316.601 555.949 316.406 555.949C316.212 555.949 315.434 556.338 315.628 556.727C315.823 556.922 316.017 557.894 315.434 557.894L315.239 557.7L314.85 557.505C314.85 557.116 314.656 556.533 314.656 556.338C314.656 556.144 314.85 555.171 315.239 554.782C315.823 554.393 315.434 552.837 315.045 553.032C314.656 553.226 313.878 554.004 313.878 554.393C313.878 554.782 313.878 555.56 313.489 555.366C313.1 555.171 311.155 556.338 310.766 556.338L310.377 556.144L309.988 555.949C309.599 555.949 309.016 555.949 308.627 555.949C308.432 556.144 308.238 557.116 308.043 557.505C306.876 557.505 307.265 558.283 307.071 558.672L306.876 558.867C306.487 559.061 306.098 559.061 306.098 558.867C306.098 558.672 305.515 558.478 305.32 558.672C305.126 558.867 304.153 559.645 303.764 559.45C303.375 559.45 303.57 560.228 303.764 560.423C303.959 560.617 303.959 561.006 303.959 561.201C303.959 561.395 305.32 561.784 305.515 561.979C305.709 562.173 305.904 562.951 305.32 563.34L304.542 562.562L304.348 562.173C303.764 561.979 303.181 561.784 303.181 561.784C303.181 561.784 302.208 561.979 301.625 562.173L301.819 562.951V563.534C301.43 563.34 300.652 562.951 300.263 562.951V563.534C300.263 563.729 300.069 564.118 299.874 564.312C299.485 564.118 299.291 563.923 299.096 563.729C299.096 563.534 299.291 562.756 299.68 562.367L299.874 562.173H300.263C300.458 561.979 300.652 561.784 300.652 561.59C300.652 561.395 300.263 561.201 300.069 561.201H299.485C298.902 561.201 298.513 561.395 298.513 561.784C298.707 561.979 297.735 562.367 297.346 562.367H296.957V562.173L296.568 561.395C295.595 561.201 294.623 561.006 294.428 561.006V561.201C294.428 561.395 294.428 561.59 294.623 561.784L295.79 562.757C296.179 563.534 296.762 564.312 296.957 564.507H297.151C297.346 564.507 297.54 564.312 297.54 564.118L297.735 563.923C297.735 563.34 298.513 564.118 299.291 565.479L300.458 566.257C300.847 566.452 301.236 566.452 301.43 566.063V565.868C301.625 565.674 301.819 565.479 302.208 565.479C302.403 565.479 303.181 565.479 303.375 565.09C303.57 564.896 304.153 564.507 304.542 565.09C304.931 565.479 305.904 566.646 305.32 566.646C304.931 566.646 303.959 567.619 303.181 567.813L302.597 568.202C302.403 568.202 302.208 567.813 302.403 567.813C302.403 567.619 302.597 567.035 302.208 567.035C302.014 567.035 301.625 567.619 301.625 568.202L301.43 568.591L301.236 568.98C301.43 568.98 301.43 569.369 301.236 569.564C301.041 569.758 299.874 570.147 299.291 569.758H298.902C297.929 569.953 298.318 568.98 297.735 568.786C297.151 568.591 296.957 568.591 297.346 568.202C297.929 567.813 298.124 567.23 299.096 567.813L299.485 568.008C299.874 567.23 299.485 566.646 298.707 566.646C297.929 566.646 296.373 567.424 295.595 567.813L295.401 568.397L295.206 568.786C295.595 569.369 295.984 569.953 296.179 570.342C296.373 570.536 295.595 571.314 294.623 570.925L293.845 570.731C293.651 569.758 293.456 568.98 293.65 568.98L293.456 569.369C293.067 569.953 293.067 569.953 293.845 570.147C294.234 570.147 294.428 570.536 294.817 570.342H295.012C295.012 569.953 295.012 569.369 294.817 568.786C294.623 568.397 294.817 567.23 294.428 567.23H294.234H293.845C293.651 568.008 293.651 569.175 293.456 569.564C293.456 570.147 293.456 570.925 294.039 571.12L294.623 571.314C295.206 571.509 295.206 571.703 294.428 572.092H294.234C294.234 572.287 294.039 572.481 294.039 572.87C294.039 573.065 293.65 573.648 293.262 573.648C293.067 573.648 292.095 573.843 291.706 574.426H291.122H290.539C290.344 574.815 289.955 575.204 289.566 575.399C289.177 575.593 288.01 575.982 287.621 575.982C287.232 575.982 286.843 575.204 287.038 575.01C287.232 574.815 287.621 574.426 287.232 574.232L287.038 574.037C286.649 573.843 286.454 573.454 286.843 573.259L287.232 573.065C287.816 573.065 288.594 573.065 288.983 573.065C289.372 573.259 290.344 571.898 290.539 571.703C290.733 571.509 291.706 571.314 292.289 570.925L291.706 570.536C291.511 570.342 291.317 570.342 291.122 570.147H290.928C290.733 570.147 290.539 569.953 290.733 569.758C290.928 569.564 291.511 568.98 291.317 568.98C291.122 568.98 290.344 568.98 290.15 569.369C289.761 569.758 289.177 571.509 288.788 571.703C288.399 571.703 287.038 571.898 287.038 571.703C287.232 571.509 287.427 570.731 287.232 570.536H287.038C286.843 570.536 286.454 570.536 286.454 570.731L286.065 571.12C285.871 571.703 285.093 571.898 284.509 571.898H283.926C283.731 571.898 283.537 572.287 283.537 572.481V572.676C283.731 572.87 283.537 573.065 283.148 573.065L282.953 572.87L282.564 572.676C282.175 572.287 282.175 572.092 282.37 571.898C282.564 571.703 282.953 571.12 283.148 570.536L282.953 570.147L282.759 569.758C282.953 569.369 283.148 569.175 283.148 568.98C283.148 568.98 283.537 568.397 283.926 568.008C284.315 567.619 286.454 566.452 287.232 566.063C287.816 565.674 289.761 564.701 289.761 564.701V564.896V565.285C289.566 565.674 289.566 565.868 289.761 565.674C289.955 565.479 290.733 565.285 290.928 565.09C291.122 565.09 291.9 564.896 292.484 565.09V564.312V563.729C293.067 562.951 293.651 562.368 293.845 562.173C294.039 561.979 294.039 561.979 293.845 561.979C293.651 561.979 292.873 561.979 292.484 562.173C292.095 562.173 291.706 563.145 291.317 563.34L290.344 562.367ZM287.038 569.564C286.843 569.564 286.065 569.758 285.482 569.758H285.093H284.315C283.926 570.147 283.926 570.731 283.926 570.925C284.12 571.12 284.704 571.314 285.093 571.12C285.482 570.925 286.065 568.786 286.26 569.369C286.26 569.564 287.232 569.564 287.038 569.564ZM113.743 573.065C111.604 574.232 111.604 574.621 113.549 575.399C113.549 574.621 113.743 574.037 113.743 573.065Z" fill="#D7E7FF"/>
<path d="M255.728 610.797C255.533 610.797 254.95 610.603 254.366 610.408C253.977 610.214 252.421 609.63 252.032 609.825C251.643 609.825 250.866 610.603 250.671 610.603C250.477 610.603 248.726 611.186 248.532 611.575H248.921C249.115 611.575 249.31 611.186 249.504 610.992L249.893 610.797C250.282 610.603 250.282 610.214 250.088 610.019C249.893 609.825 248.726 610.408 248.532 610.603C248.337 610.797 249.115 611.381 249.31 611.575C249.504 611.964 249.699 612.353 248.532 612.158C247.365 611.964 245.42 610.408 245.225 610.214C245.031 610.019 244.447 609.825 244.058 609.825L244.253 609.241L244.447 608.658C244.642 608.074 244.642 607.491 244.253 607.491H243.864H242.891C242.502 606.907 241.724 605.157 241.141 603.601L240.557 602.239V602.045C240.363 601.85 240.557 601.461 241.141 601.267C241.53 600.878 242.502 600.1 242.308 599.905C242.113 599.711 243.086 599.127 243.475 598.933L243.864 598.738C243.864 598.738 244.058 598.349 244.058 597.96C244.058 597.571 245.225 596.404 245.42 596.21C245.614 595.821 246.198 594.848 246.198 594.654V594.459V594.071C246.781 594.071 247.754 594.071 248.726 593.876V593.293V593.098C248.143 592.709 247.948 592.515 248.143 592.32C248.532 592.126 249.31 591.931 249.504 591.931C249.699 591.931 249.699 591.348 249.893 591.153H250.088H250.477C251.06 591.153 251.255 590.959 251.06 590.57C250.866 590.181 250.282 589.208 250.477 589.403C250.866 589.597 252.032 589.597 252.227 589.208L252.421 588.819C252.616 588.625 252.616 588.236 252.81 588.236L253.199 588.041C253.588 587.847 253.977 587.652 253.783 587.458C253.783 587.263 253.783 586.874 254.172 587.069C254.755 587.263 255.533 588.041 255.144 588.236L254.95 588.43V588.625C254.561 588.819 253.783 589.403 253.199 589.986L253.394 590.57C253.394 590.764 253.588 590.959 253.783 590.959H253.977C254.172 590.764 254.95 590.57 255.533 590.375V589.597L255.339 588.625C254.366 588.819 253.588 588.819 253.588 588.819C253.394 588.819 254.755 589.014 255.339 589.014C255.922 589.014 256.7 589.792 256.895 589.986C257.089 589.986 257.478 590.764 257.284 591.542H256.117C256.117 591.931 255.728 592.515 255.533 592.709C255.144 592.904 253.588 593.098 253.394 593.098C253.005 593.098 252.227 593.487 252.227 593.487C252.227 593.487 252.032 593.293 252.032 593.098C252.032 592.904 251.449 592.32 250.671 592.32L250.477 592.515C250.088 593.098 250.866 593.098 251.254 593.293H251.449C251.449 593.487 251.254 593.876 250.866 594.071H250.671L249.504 593.682C249.31 594.46 249.115 595.043 249.31 595.043C249.504 595.043 250.088 595.043 250.282 594.849C250.477 594.849 251.643 594.654 252.421 594.459L253.394 595.432C253.977 596.015 254.366 596.404 253.977 596.988L253.783 597.182C253.783 597.571 254.172 597.377 254.95 596.988L255.144 596.599C255.339 596.404 254.755 595.821 254.755 595.432L254.561 595.043C254.366 594.654 254.561 594.459 254.95 594.459C255.339 594.654 256.117 595.043 256.117 595.238C256.117 595.432 256.117 595.821 256.311 595.821C256.7 595.821 256.895 595.043 257.089 594.265C257.284 593.682 256.895 592.32 257.478 592.515C258.062 592.709 259.812 593.098 259.423 592.709C259.034 592.515 259.229 591.737 260.007 591.348L260.396 590.959L260.785 590.57C261.174 590.181 261.174 589.792 260.59 589.792C260.007 589.792 258.256 589.597 257.867 589.597C257.478 589.403 256.7 588.625 256.895 588.625C257.089 588.625 257.284 588.041 257.089 587.652C256.895 587.263 255.533 586.68 255.728 586.485C255.922 586.291 256.7 586.096 256.895 586.291L257.089 586.485C257.284 586.68 257.478 586.874 257.673 586.874C257.867 586.874 258.256 586.68 258.256 586.68V586.096C258.256 585.513 258.256 584.929 258.451 584.929C258.451 584.929 258.645 584.929 258.645 585.124L258.84 585.318C259.229 585.124 259.618 584.929 260.007 584.735L260.59 584.346C260.201 583.957 260.007 583.568 260.007 583.373C260.201 583.373 260.396 583.373 260.59 583.373C260.785 583.568 260.785 583.762 260.979 583.957L261.174 584.346C261.563 584.151 262.146 583.762 262.535 583.373C262.73 582.984 263.508 582.012 263.313 581.623V581.234L263.897 581.039L264.675 581.817C264.869 581.234 265.258 580.456 265.453 580.067C265.647 579.678 266.231 578.9 266.62 579.094C267.009 579.094 268.37 579.289 268.37 578.9C268.37 578.705 268.759 577.927 268.759 578.122C268.953 578.316 269.537 578.706 269.926 578.706L270.12 578.511L270.704 577.539C271.676 577.733 272.454 578.122 272.649 578.122C272.649 578.316 273.232 578.705 273.621 578.511C274.01 578.317 275.177 577.539 275.372 577.344L275.177 577.15C274.788 577.15 274.399 577.15 274.205 577.15C274.01 577.344 273.232 577.344 273.038 576.761L272.649 576.566L272.26 576.372C271.287 576.372 270.898 576.372 271.676 576.177C272.454 575.983 272.649 574.816 272.843 574.816C273.038 574.816 273.427 574.816 273.232 575.01C273.232 575.01 273.232 575.399 273.427 575.594C273.621 575.788 274.594 576.372 274.788 576.566L275.177 576.177L275.372 575.983C275.372 575.788 275.372 575.399 275.177 575.205C275.177 575.01 275.566 574.427 275.761 574.232C275.955 574.038 275.761 572.871 275.955 572.871C276.15 572.871 277.122 573.065 276.928 573.26C276.733 573.649 276.539 574.232 276.733 574.232C276.928 574.232 277.122 574.038 277.511 573.649C277.706 573.26 279.067 572.287 279.651 572.287L280.234 572.482C280.623 572.676 281.012 572.871 281.401 572.482V572.093L281.207 571.898C280.818 571.704 280.429 571.509 280.234 571.509C280.04 571.509 279.845 571.12 280.234 570.926L280.429 570.731V570.537C280.234 570.148 280.429 569.953 281.207 569.953C281.985 569.953 283.346 568.786 284.124 569.175L283.152 569.759C282.957 569.953 282.568 569.953 282.374 569.953L281.985 569.759C281.596 569.953 281.012 570.537 280.818 570.926L281.596 571.509L282.568 572.287C282.374 573.065 281.401 573.065 280.234 572.676L279.651 574.038H279.262L278.289 574.232C278.873 574.816 279.456 575.01 279.845 574.816C280.234 574.621 281.207 574.038 281.596 574.232C281.985 574.427 282.374 574.816 281.79 575.01C281.207 575.205 280.623 577.15 280.429 577.539V577.927C280.429 578.122 280.623 578.511 280.818 578.706H281.012C281.401 578.511 281.79 578.122 282.179 577.733L282.763 577.539C282.957 577.344 283.346 577.15 283.346 576.955L283.152 575.983C282.957 575.01 283.152 574.038 283.152 574.038C283.346 574.038 283.735 574.232 283.93 574.427C284.124 574.621 284.513 575.205 284.513 575.399C284.513 575.594 285.097 575.788 285.485 575.594L285.68 575.399L286.069 574.621C286.458 573.649 287.236 573.065 287.625 573.454C288.014 573.843 287.819 575.205 287.625 575.205C287.43 575.205 285.68 576.566 286.263 576.566H286.652H287.236C287.819 576.372 288.208 576.566 288.014 576.955C287.819 577.344 287.236 578.122 287.236 577.927C287.236 577.733 286.652 577.539 286.069 577.733L285.68 577.927C285.68 577.927 285.874 578.317 285.874 578.706V578.9C286.069 579.289 285.68 579.483 285.291 579.289C284.902 579.094 283.735 579.483 283.541 579.678C283.346 579.872 281.985 580.65 281.401 580.456C280.818 580.456 279.067 580.845 278.873 580.456C278.678 580.261 278.289 579.289 278.678 579.289H278.873C279.067 579.289 279.456 579.094 279.651 578.9C279.456 578.705 279.067 578.316 278.678 578.122C278.289 577.927 277.706 577.344 277.706 577.15C277.706 576.955 277.706 576.372 277.317 576.566C276.928 576.761 276.344 578.122 276.539 578.706V579.094V579.289C276.539 579.483 276.344 579.872 275.955 579.872L275.761 579.678C275.566 579.483 275.372 579.094 275.372 578.9C275.372 578.705 274.983 578.317 274.788 578.511C274.594 578.511 274.399 578.9 274.205 578.9C274.01 578.9 272.649 579.289 272.649 579.483V579.678V579.872C272.454 580.067 272.26 580.261 272.26 580.261C272.26 580.261 271.676 580.261 271.676 580.65C271.676 581.039 271.287 582.206 270.704 582.206C270.12 582.206 268.759 581.428 268.37 581.234L267.981 581.623C267.787 581.428 267.398 581.234 267.398 581.039C267.203 580.845 266.814 581.428 267.203 582.012L267.981 582.206C268.759 582.401 269.342 582.401 270.12 582.595H270.315C270.315 582.595 270.12 582.984 269.926 583.179C269.731 583.373 268.953 583.568 268.176 583.568L267.787 583.762L267.592 583.957C267.398 584.346 266.814 584.929 266.425 585.124L265.842 584.929H265.647C265.453 584.929 265.258 585.124 265.258 585.513C265.258 585.902 265.647 586.68 266.231 586.485C266.62 586.291 268.37 585.707 268.564 585.902C268.759 586.096 269.537 586.485 269.731 586.291C269.926 586.096 270.315 585.513 270.12 585.318C269.926 585.124 269.537 584.54 269.731 584.346C269.926 584.151 270.509 584.346 271.093 584.346L271.676 584.151L272.649 583.957C272.26 585.513 271.871 587.458 271.871 588.041C271.871 588.819 272.649 588.236 273.038 587.652C273.427 587.069 275.566 586.68 275.761 586.68C275.761 586.485 275.955 586.096 275.761 586.096C275.372 585.902 274.983 586.096 274.594 585.902C274.205 585.707 274.01 585.318 273.816 585.124L273.427 585.318V585.707C273.038 585.902 272.454 586.096 272.26 586.485V586.68C272.454 586.874 272.843 587.069 272.26 587.458L271.676 587.847C271.871 587.458 272.065 586.485 272.26 585.707C272.454 584.929 273.232 583.762 273.621 583.373L274.01 583.179C274.205 583.179 274.399 583.179 274.594 583.179C274.788 582.984 274.983 582.79 275.177 582.79L275.955 582.206C276.539 581.428 277.317 580.845 277.706 580.845C278.095 580.845 279.651 581.234 280.234 581.623L279.456 582.206L279.262 582.401C279.456 582.984 279.456 583.373 279.456 583.373C279.456 583.373 278.873 583.373 278.095 583.179V583.957C278.095 584.54 278.678 584.346 279.067 584.346H279.845C280.818 583.568 281.985 582.79 282.179 582.595C282.374 582.401 283.152 582.595 283.152 582.79C282.957 583.179 282.374 585.124 282.374 585.513C282.374 585.902 282.763 585.902 282.957 585.707C283.152 585.513 283.346 584.54 283.152 583.957L282.374 584.151C281.596 584.54 280.818 584.929 280.429 585.124C280.04 585.318 279.262 586.096 279.456 586.291C279.651 586.485 280.234 587.263 280.234 587.069C280.234 586.874 280.623 586.485 280.818 586.68C281.012 586.68 281.401 586.874 281.401 586.485C281.401 586.291 282.957 584.735 283.541 584.54C284.124 584.54 285.874 583.568 286.069 583.179C286.458 582.79 288.014 582.79 288.014 582.595C288.014 582.401 288.403 582.012 288.792 581.817C289.181 581.623 289.959 580.845 289.764 580.65C289.57 580.456 288.792 580.067 288.792 580.261C288.792 580.456 288.403 580.845 288.208 581.039C288.014 581.234 288.014 582.012 287.625 582.012C287.43 582.012 286.652 581.428 286.263 581.234C286.069 581.039 285.486 580.456 285.68 580.067C285.874 579.678 287.041 579.872 287.819 579.872L288.014 579.289C288.208 578.9 287.819 578.316 288.792 578.316H288.986C289.181 578.316 289.764 578.122 289.959 578.316C290.348 578.316 291.126 578.9 290.737 579.289H290.542C289.959 579.289 289.764 579.678 289.959 579.872C290.153 580.067 290.737 580.067 291.126 580.067L291.709 579.872C291.709 579.094 291.709 578.122 291.515 577.733L291.32 577.539L291.126 577.344C290.542 577.15 290.542 576.955 291.126 576.955C291.709 576.955 292.876 578.122 293.46 578.511L293.654 578.9C293.654 579.094 294.238 579.094 294.238 579.094C294.821 578.705 295.405 578.511 295.988 578.122C295.988 578.122 295.988 577.928 295.988 577.733C295.988 577.539 295.794 577.539 295.599 577.539L295.016 577.733C294.238 577.928 293.849 577.928 294.043 577.733C294.238 577.539 294.821 576.955 295.016 577.344C295.21 577.539 296.183 576.761 296.572 576.566C296.961 576.372 298.517 575.788 299.1 575.788H299.684H299.878C300.073 575.788 300.851 575.399 301.629 575.01L302.212 574.427L302.601 574.038C302.406 573.454 302.601 572.871 302.99 572.676C303.379 572.676 304.935 572.482 305.518 572.287C306.102 572.093 306.491 570.926 306.296 570.731L305.324 571.315C304.935 570.731 304.74 570.342 304.546 570.537C304.546 570.731 303.962 571.509 303.768 571.509C303.379 571.509 302.406 571.704 302.601 571.898C302.795 572.093 302.017 572.871 301.434 572.871V573.065C301.434 573.26 301.823 573.843 301.629 573.843C301.045 574.232 300.851 573.843 300.462 573.649H300.267C299.878 573.649 299.878 573.649 300.073 573.26C300.267 573.065 300.462 572.482 300.267 572.287C300.073 572.093 299.878 571.315 300.073 570.731L300.851 571.315C301.045 571.509 301.629 571.315 301.629 571.315C301.823 571.12 302.018 570.731 302.212 570.537C302.601 570.731 302.99 570.537 302.99 570.148L303.184 569.953L303.768 568.981C304.74 569.564 305.518 569.953 305.713 569.953C305.907 569.953 306.296 569.37 306.685 568.592L305.907 568.008L305.713 567.814C305.713 567.425 305.907 567.425 306.491 567.619L307.074 567.814H307.269C307.658 567.814 307.852 567.814 307.852 568.008C307.852 568.203 308.436 568.397 308.825 568.008V567.619L309.019 566.647C309.408 566.258 310.186 565.869 310.381 565.869C310.77 565.869 311.548 565.674 311.548 565.285C311.548 564.896 311.742 564.118 312.131 564.313C312.52 564.507 314.076 564.702 314.66 564.313C315.243 563.924 314.66 562.368 314.66 562.173C314.854 561.979 315.049 561.979 314.854 562.173C314.854 562.368 316.41 561.979 316.799 561.59C317.383 561.201 319.133 561.979 319.522 561.784V561.59L319.716 561.201C320.105 561.201 320.689 560.812 320.883 560.618C321.078 560.423 321.467 559.84 320.883 559.84C320.494 559.84 319.716 559.645 320.105 559.645C320.494 559.451 321.272 558.673 321.467 559.062C321.661 559.256 322.634 559.84 323.023 559.84C323.412 559.84 324.384 559.451 323.801 558.867C323.217 558.284 323.023 556.144 323.801 555.172L324.579 554.394H324.968H325.162C325.357 554.588 325.357 555.172 325.551 555.755V556.339V556.533C325.551 556.922 325.162 556.728 324.968 556.339H324.773H324.384C323.995 556.533 323.606 556.922 323.606 557.117C323.606 557.311 323.606 557.7 323.995 557.7C324.19 557.895 324.773 558.867 325.551 559.062L326.135 558.478C326.135 558.478 326.718 558.673 326.913 558.867C327.107 559.062 327.496 559.256 327.691 559.256H328.274C328.858 559.062 329.247 558.867 328.858 558.867C328.663 558.673 327.691 558.478 327.302 558.284C326.913 558.089 325.94 557.7 325.94 557.506V557.311V557.117C325.94 556.728 326.135 556.533 326.329 556.728C326.524 556.922 327.302 556.728 327.496 556.728C327.691 556.533 328.469 556.339 328.663 556.144C328.858 555.95 328.858 555.172 328.274 555.366C327.691 555.561 326.135 555.95 325.94 555.95C325.94 555.755 325.94 555.561 326.135 555.366C326.135 555.366 326.524 555.366 326.524 555.172L327.691 554.977C327.496 554.394 327.302 553.81 327.496 553.421L327.691 553.616L328.08 553.81C328.469 553.616 328.858 553.81 328.858 554.005C328.858 554.199 329.247 555.172 329.636 555.755C330.025 556.339 330.803 558.284 330.997 558.673L331.386 558.867C331.775 559.062 332.164 558.867 332.553 558.673C332.553 558.673 332.748 558.478 332.553 558.284C332.359 557.7 331.775 558.089 331.581 557.895C331.581 557.895 331.386 557.506 331.386 556.922C331.386 556.339 332.359 554.977 332.359 554.783C332.553 554.783 333.72 554.394 334.887 554.394L335.47 553.421C335.665 553.032 336.054 553.032 336.443 553.421L337.415 554.005C337.999 553.421 338.193 552.838 337.999 552.838C337.61 552.643 336.637 552.643 336.637 552.838C336.443 553.032 336.248 552.254 336.443 552.06H336.637H337.415C337.999 551.671 338.582 551.476 338.582 551.476H338.777L339.749 552.06C340.138 551.671 340.722 551.087 340.916 551.087C341.111 551.087 342.083 550.893 342.472 550.504C342.861 550.115 344.028 549.142 343.834 548.948C343.639 548.753 343.25 547.781 343.056 547.392C343.056 547.197 343.639 547.197 343.639 547.392L344.028 547.586C344.417 547.781 344.806 548.17 344.806 548.559C344.806 548.753 345.001 549.531 345.195 549.726C345.39 549.726 345.973 549.531 346.362 548.948C346.751 548.364 347.918 546.808 348.113 546.808C348.307 547.003 348.502 547.197 348.502 547.392C348.502 547.392 348.307 547.781 348.502 547.975H348.696C348.891 547.975 349.28 547.781 349.28 547.781V547.392C349.28 547.003 348.696 546.419 347.918 546.03C347.14 545.836 345.973 547.781 345.973 547.781C345.973 547.781 345.584 547.975 345.195 547.586C345.001 547.392 343.834 547.003 343.834 546.808C343.834 546.614 343.834 546.03 343.639 545.836C343.639 545.641 343.639 545.447 343.834 545.447C344.028 545.447 344.806 546.03 345.39 546.419L345.779 545.836L346.362 545.058C347.529 544.669 348.502 544.475 348.113 544.669C347.918 544.864 347.724 545.641 348.307 545.641H348.696H349.28C349.474 546.03 349.863 546.225 350.058 546.419C350.252 546.419 351.03 546.419 351.03 546.03C351.03 545.641 351.225 544.475 351.419 544.475C351.614 544.475 352.003 544.669 351.808 544.863V545.058V545.252C351.808 545.447 351.614 546.03 351.419 546.419L351.808 546.614L352.197 546.808C352.78 546.614 352.975 546.225 352.781 546.03L352.586 545.641L352.781 545.447L353.364 545.641C353.947 545.836 354.336 545.641 354.531 545.447V545.252V545.058C354.531 544.669 354.725 544.475 354.92 544.669C355.114 544.864 355.892 545.058 356.087 544.863C356.281 544.669 356.281 544.086 356.281 543.697C356.281 543.502 357.254 543.113 358.032 543.113C358.615 543.113 359.199 541.557 359.393 541.363H359.588C359.782 541.363 359.977 541.557 359.977 541.752C359.977 541.946 359.977 542.141 359.977 542.335C359.977 542.53 360.366 542.724 360.56 542.53L360.949 542.335C361.338 542.141 361.922 541.752 362.116 541.752C362.311 541.752 362.894 541.557 362.7 541.363C362.505 541.363 362.116 540.974 362.116 540.974C362.116 540.779 363.089 540.585 363.672 540.39C364.256 540.196 366.201 539.418 366.59 539.612H366.979H367.951C367.757 539.029 367.757 538.445 367.951 538.056C368.146 537.667 369.313 538.056 369.507 537.862L369.701 537.667C370.09 537.278 370.09 536.306 371.257 537.278C371.257 537.278 372.035 537.278 372.035 537.084C372.424 536.111 372.813 535.722 373.98 536.5H374.175C374.564 536.306 375.731 535.528 376.703 534.944L377.481 534.361C377.676 534.361 378.065 533.777 378.065 533.777V533.583C378.065 533.388 378.259 533.194 378.454 532.805C378.648 532.416 379.815 532.221 379.815 532.61V532.805C379.815 532.999 379.815 533.194 380.01 533.388C380.399 533.777 380.593 533.388 380.788 533.194L381.177 532.027C382.538 531.638 384.483 530.86 385.65 530.276H387.012C387.206 530.276 387.206 530.082 387.4 529.887L387.789 529.109C388.178 529.498 388.762 529.693 388.956 529.304C389.151 528.915 391.485 528.331 392.652 527.943L393.041 527.553C393.235 527.359 393.624 526.97 393.819 526.776C394.208 526.776 394.402 526.97 394.208 527.165C394.208 527.359 394.208 527.942 394.791 527.553C395.375 527.359 396.931 526.581 397.32 526.387C397.709 526.192 399.07 525.414 399.848 525.414C400.432 525.414 401.793 524.636 402.571 525.22L401.599 525.998C401.988 526.387 402.377 526.192 402.571 525.609C402.766 525.025 403.543 523.664 403.932 523.858C404.321 524.053 404.905 524.636 405.099 524.053L406.072 524.247C406.266 524.247 406.655 524.053 406.85 523.858C406.85 523.858 406.85 523.469 406.655 523.469C406.266 523.08 405.877 523.469 405.488 523.664C405.294 523.664 405.099 523.469 405.294 523.08C405.488 522.691 405.877 522.108 406.072 522.108C406.266 522.302 406.85 522.108 407.044 521.719C407.239 521.33 408.795 520.941 409.184 520.357H410.156H410.351C410.74 520.941 411.129 521.33 411.323 521.33C410.74 520.357 412.101 519.968 412.49 519.19C412.49 519.19 413.074 518.996 413.657 518.801L414.241 518.996C415.019 519.385 415.213 518.801 415.602 518.218C415.797 517.829 416.769 518.412 417.158 517.44C417.353 516.662 418.714 516.662 419.492 516.856C420.075 517.051 420.27 517.051 420.27 517.44V517.829C420.27 518.412 420.659 518.607 421.048 518.218V518.023L421.242 517.245C420.659 516.662 421.048 515.884 421.826 515.3L422.604 514.911C422.798 514.717 422.993 514.522 423.187 514.522C425.327 514.911 426.105 512.966 428.05 512.577H428.244C428.244 512.188 428.439 511.994 428.633 512.188C428.633 512.383 429.606 512.772 430.384 512.577C431.162 512.383 432.329 511.021 432.329 511.021V511.216V511.41C432.329 511.605 432.718 511.605 433.107 511.216L433.301 511.021C433.496 510.827 433.69 510.633 434.079 510.438C434.274 510.633 434.663 510.633 434.663 510.244L434.857 510.049L435.052 509.855C435.441 509.855 435.83 510.049 436.024 510.244C436.219 510.244 437.385 509.66 438.163 509.271C438.941 508.882 441.081 507.91 441.664 507.715L442.248 507.521C442.442 507.326 442.637 507.132 442.831 507.132L443.415 507.326C443.998 507.326 444.776 506.937 444.971 506.354H445.749C445.943 506.354 446.721 506.548 446.916 506.743H447.11C447.305 506.743 447.694 506.743 447.499 506.548C447.499 506.548 447.305 506.159 447.305 505.77H448.083C448.472 505.77 448.666 505.576 449.055 505.576C449.444 505.381 449.833 505.187 450.028 504.992C450.222 504.992 450.222 505.187 450.222 505.381C450.222 505.576 450.028 506.159 450.222 506.159C450.417 506.159 450.611 506.159 450.806 505.965L451 505.77L451.973 504.409C453.14 504.603 454.501 504.603 454.89 504.409L455.084 504.603C455.279 504.798 455.279 505.187 455.473 505.187L455.862 505.381C456.446 505.381 456.835 505.187 456.835 504.798C456.835 504.603 456.64 503.631 456.251 503.631C455.862 503.631 454.89 503.436 455.084 503.242L455.473 503.047C455.862 502.853 456.446 502.853 457.029 503.047C457.418 503.242 458.78 503.047 458.974 503.047H459.169C460.141 503.242 460.53 503.631 460.141 504.409C460.141 504.603 459.752 504.603 459.752 504.798V504.992C459.752 505.187 460.141 505.381 460.53 505.381L460.725 505.187L461.503 504.603C462.67 504.798 463.448 505.187 463.448 505.187C463.448 505.187 464.031 505.187 464.615 504.798H465.198H465.976C466.949 504.992 467.727 505.381 467.727 505.77C467.727 506.159 468.894 506.159 469.088 506.354C469.088 506.548 469.088 507.326 469.088 507.91H470.061C470.061 508.299 469.866 509.271 469.672 509.855L470.255 510.633C470.45 511.021 471.422 511.799 470.255 512.383C470.255 512.383 470.45 512.772 470.45 512.966C470.45 513.161 470.644 513.55 470.644 513.744L470.838 515.689L471.227 516.467C471.616 517.245 471.811 518.412 471.811 518.801C471.811 519.19 472.978 520.357 473.172 520.552C473.367 520.746 473.367 521.524 472.978 521.524H472.783C472.394 521.719 471.811 521.913 471.422 522.108C471.227 522.302 472.394 522.691 471.227 522.886H470.838C470.449 523.275 470.06 523.664 469.866 523.858C469.672 524.053 469.088 524.636 469.088 525.025H468.894L468.31 525.22C467.532 525.22 466.754 525.803 466.365 526.192L465.976 526.581L465.393 526.97C464.615 527.359 463.642 527.748 463.059 528.137C462.475 528.526 459.947 529.887 458.78 530.471L457.807 531.054C457.807 531.054 457.224 531.054 456.64 531.054C456.057 531.054 454.89 532.221 454.501 532.61C454.112 532.805 452.556 533.777 451.584 534.166C450.806 534.555 448.666 535.917 448.472 536.111C448.277 536.111 447.694 536.306 447.305 536.306C446.916 536.306 446.138 537.084 445.943 537.278C445.749 537.473 444.776 537.667 444.776 538.445H443.415H443.026C442.637 538.445 442.442 538.445 442.442 538.445C442.442 538.251 442.442 538.056 442.248 537.862C442.053 537.862 441.664 537.862 441.275 538.056C440.886 538.251 441.081 539.612 440.497 540.585L439.33 540.779L438.358 540.974C437.58 541.363 436.802 541.946 436.219 541.946C435.83 542.141 434.857 542.724 434.468 543.113L434.079 543.308L433.496 543.697C432.718 544.086 431.94 544.475 431.745 544.475H431.551H431.356C431.162 544.475 430.578 544.669 429.995 545.058C429.606 545.447 428.05 546.808 427.661 547.003C427.077 547.197 425.521 547.975 425.521 547.975C425.521 547.975 425.91 548.17 426.494 548.17C427.077 548.17 428.828 547.781 429.217 547.586L429.606 547.392L431.162 546.614C431.551 546.808 432.134 547.003 432.523 546.808C432.718 546.808 432.912 546.419 433.107 546.225C433.496 546.03 433.885 545.836 434.468 545.641H435.441C436.413 545.447 437.191 544.669 437.191 544.085L437.969 544.475L439.136 545.058C439.33 544.28 439.719 543.697 440.108 543.697C440.497 543.697 441.664 543.697 441.859 543.697V542.724C442.637 542.724 443.804 542.724 444.193 542.53C444.582 542.53 445.554 541.946 445.943 541.946C446.332 541.946 447.694 541.946 448.083 541.752C448.666 541.752 449.833 540.585 450.028 540.196L450.806 540.585C451.195 540.196 451.778 539.807 451.778 540.001C451.778 540.196 452.362 540.196 452.751 539.612L453.14 539.418C453.529 539.223 454.112 539.418 454.695 539.223H455.473C456.057 538.834 456.64 538.445 456.835 538.445H457.029C457.224 538.445 457.418 538.64 457.613 538.64C458.002 538.64 458.002 537.473 458.974 538.251L459.169 538.445C459.752 538.251 460.725 537.862 461.308 537.473L461.697 537.084C462.281 536.695 462.67 537.862 463.253 537.278L463.642 536.889C464.226 537.084 465.198 537.278 465.976 537.473L466.171 536.5V536.306C466.365 536.306 466.949 535.917 467.727 535.917C468.31 535.722 470.255 535.333 470.255 535.528C470.45 535.722 470.838 536.111 470.838 535.917C470.838 535.722 471.616 535.139 472.394 535.333L472.783 535.139C473.367 535.139 473.756 535.333 473.756 535.333C473.756 535.333 474.339 535.722 474.728 535.722C475.117 535.917 475.701 537.278 475.701 537.473C475.701 537.667 477.84 537.667 478.618 537.862C479.396 537.862 481.925 538.445 482.508 538.834C483.092 539.223 484.259 541.168 484.453 541.557H483.481C483.286 541.557 483.092 541.946 483.286 542.141L483.481 542.335C483.286 542.53 483.092 542.919 482.897 543.113C482.703 543.308 483.286 543.696 483.481 543.891C483.675 544.085 483.286 545.058 482.897 545.447L483.87 545.641L484.648 545.836C484.453 546.419 484.064 547.392 483.87 547.781C483.675 548.17 483.675 549.92 483.092 550.309H484.648C484.648 550.504 484.842 551.087 484.842 551.476C484.842 551.865 485.037 553.421 485.037 553.616L484.453 554.394C485.037 554.977 485.815 555.561 486.204 555.95C486.593 556.339 484.648 557.895 483.675 558.284L482.897 558.673C482.119 559.062 481.536 560.034 481.147 560.812C480.758 561.395 481.536 561.784 482.119 561.395C482.897 561.006 483.092 561.979 483.675 561.59C484.064 561.201 484.453 560.618 485.426 560.812H486.009C486.593 560.618 487.565 560.618 488.148 560.812H488.537C488.926 560.812 489.121 560.229 489.51 560.034L489.899 559.84C490.482 559.84 491.26 560.034 491.844 560.229C492.427 560.423 493.983 559.84 494.178 559.84C494.372 559.84 495.345 560.229 496.123 560.423C496.901 560.617 499.04 560.034 499.429 560.229C499.818 560.423 501.374 561.007 501.569 560.812C501.763 560.618 502.541 560.423 502.736 560.618C502.93 560.812 503.514 561.395 503.514 561.395C503.514 561.395 502.347 561.395 501.374 561.395H500.402H499.818C499.235 561.784 499.818 562.173 500.791 562.368L501.569 562.173C502.347 561.979 502.93 562.951 503.902 562.173L504.292 561.979C505.069 562.173 505.653 562.368 505.847 562.368C506.042 562.368 506.236 562.757 506.431 562.951C506.625 563.146 507.403 562.951 507.792 562.757C508.181 562.562 509.154 562.562 509.348 562.562C509.543 562.562 509.737 563.146 509.737 563.146C509.737 563.34 509.154 563.535 508.57 563.535C507.987 563.535 507.598 564.702 507.209 564.702C506.82 564.896 506.625 565.869 506.82 565.869C507.014 565.869 507.403 566.452 507.209 566.647C507.014 567.036 508.376 567.23 508.765 567.425H509.154C509.348 567.425 509.543 567.425 509.737 567.425H510.126C510.515 567.425 510.904 567.23 511.099 567.23C511.293 567.23 511.682 567.425 511.682 567.814C511.682 568.203 511.682 568.981 511.488 568.981C511.293 568.981 510.321 568.981 509.737 568.786C509.154 568.786 509.154 569.953 509.348 569.564C509.543 569.175 510.71 569.759 510.515 570.148C510.321 570.537 509.737 571.315 509.932 571.509C510.126 571.509 511.293 572.093 512.071 572.676L513.044 572.871C513.044 573.065 512.655 573.649 512.46 574.038C512.071 574.427 512.655 575.788 512.46 575.983C512.266 576.177 512.071 576.566 512.655 576.955L513.044 577.15C513.238 577.15 513.627 577.15 513.822 576.955C514.016 576.761 514.405 576.761 514.6 577.15V577.344C514.794 577.539 514.211 577.733 513.627 578.122C512.849 578.511 510.71 577.733 510.71 577.733C510.515 577.733 509.737 578.317 508.959 578.706C508.181 579.094 505.264 579.872 505.069 579.872C504.875 579.872 504.097 580.261 503.514 580.65L502.93 580.845L502.347 581.039C501.569 581.039 500.207 581.234 499.429 581.234L499.235 581.623L498.457 582.401C497.484 582.206 496.512 582.012 496.123 582.012C495.734 582.206 494.372 582.206 493.983 582.206C493.594 582.206 491.844 582.595 490.871 582.984C489.899 583.373 485.815 583.957 484.259 584.151C482.703 584.346 478.424 584.929 478.035 585.124H477.84L475.117 585.707H472.978C470.838 586.485 468.505 587.263 467.921 587.458C467.338 587.652 464.226 588.041 462.67 588.43H461.114H459.752C458.391 588.819 457.224 589.208 457.029 589.208C457.029 589.208 456.446 589.403 456.057 589.403C455.668 589.403 454.307 589.403 453.918 589.597C453.529 589.792 451.195 589.986 449.444 590.375L447.888 590.764C447.305 590.959 446.332 590.375 446.138 590.57L445.36 591.153C444.776 590.764 444.193 590.57 443.998 590.764C443.804 590.959 442.831 590.764 442.442 590.959C442.053 591.153 440.692 590.375 439.914 590.181L439.525 589.986C438.747 589.597 438.163 589.597 437.385 589.597H437.191C436.996 589.403 436.413 589.208 435.635 588.819C434.857 588.43 432.134 587.652 431.162 587.263L430.578 586.68L429.995 586.096C430.384 585.513 430.967 585.124 430.967 584.929C430.967 584.929 430.773 584.346 430.578 583.762L430.967 583.373L431.162 583.179C431.162 582.984 430.967 582.401 430.578 582.012C430.384 581.623 430.189 580.067 430.189 579.872C430.189 579.483 429.022 578.9 429.022 578.706C429.022 578.511 428.828 576.955 428.633 575.788L428.439 574.621V574.427C427.855 574.427 426.883 574.427 426.494 574.621C426.105 574.816 424.16 575.399 423.382 575.788C422.604 576.177 420.076 577.15 419.687 577.927L418.325 577.733L417.547 577.539C416.575 577.928 415.213 578.511 414.435 578.9C413.657 579.289 411.323 579.872 410.74 580.067C410.156 580.261 408.017 581.039 407.239 581.234C406.461 581.428 404.71 582.79 404.321 582.984C404.127 583.179 403.154 582.595 402.96 582.595C402.766 582.595 401.988 582.79 401.015 582.984C400.043 583.179 397.903 585.124 397.125 585.513C396.347 585.902 394.013 586.291 394.013 586.68C394.013 587.069 392.652 586.874 392.457 586.874C392.263 586.874 391.679 587.458 391.679 587.458C391.485 587.458 390.318 587.652 389.345 588.041L388.373 588.43L387.789 588.625C387.206 589.014 386.622 589.208 386.428 589.208C386.233 589.208 385.261 589.792 384.872 589.792C384.678 589.986 383.316 590.57 382.538 590.764L381.76 590.959C380.593 591.153 379.426 591.348 379.037 592.515C378.648 592.515 377.676 592.515 376.898 592.515C376.12 592.515 375.147 593.876 374.953 593.876C374.758 593.876 374.175 594.071 373.786 594.071C373.397 594.071 371.841 594.849 370.674 595.238C369.701 595.627 366.395 596.793 365.812 596.988C365.228 597.182 363.672 597.96 363.283 598.155C363.089 598.349 361.533 598.544 361.338 598.738C360.949 598.933 359.782 599.516 359.393 599.516C359.004 599.516 357.643 599.905 357.448 600.1C357.059 600.294 354.92 601.072 353.169 601.656L351.808 602.434L351.614 602.628C351.225 602.628 350.447 602.823 349.669 602.823L349.474 603.601C349.085 603.601 348.113 603.795 347.335 604.184C346.557 604.573 344.223 605.546 343.445 605.74C342.667 605.935 339.944 607.491 338.777 607.88L337.804 608.463L336.443 609.241C334.693 609.825 332.748 610.408 331.775 610.797C330.997 611.186 328.469 612.158 328.08 612.353C327.691 612.547 325.94 613.131 324.968 613.325C323.995 613.52 321.467 614.881 320.883 615.076C320.3 615.27 317.966 616.048 316.994 616.243L316.021 616.632H315.827C315.632 616.632 314.271 616.826 312.52 617.215L311.353 617.799C310.575 618.188 309.797 618.382 309.214 617.993C308.436 617.604 307.852 617.41 307.269 617.993H307.074C306.685 617.993 305.518 617.41 304.351 617.021C303.184 616.632 299.684 616.048 300.073 615.854V615.659V615.465C299.878 615.27 299.489 615.076 299.295 615.27L299.1 615.465L298.906 615.659C298.906 616.048 298.711 615.854 298.711 615.076C298.711 614.298 299.295 612.742 298.711 612.547L298.517 612.353C298.322 612.158 298.322 611.575 298.517 611.381L298.711 610.603C297.933 610.408 297.544 610.214 297.739 610.214C297.933 610.214 298.322 609.825 298.322 609.825C297.544 609.436 296.766 609.241 296.183 608.852C295.794 608.463 295.988 607.88 296.183 607.296C296.183 607.102 296.572 606.907 296.572 606.713L296.183 606.129C295.988 605.351 295.599 604.379 295.016 603.795L294.432 603.212L294.238 603.017C293.849 602.823 293.849 602.628 294.043 602.434C294.238 602.239 294.238 601.072 293.654 600.1V598.933V598.349C294.043 597.96 294.821 596.988 295.405 596.21L295.21 595.821C295.21 595.626 294.821 595.626 294.627 595.626C294.043 595.626 294.432 595.821 294.432 596.21C294.432 596.404 294.043 596.988 293.849 596.988H292.876C292.876 597.571 292.487 597.96 292.293 597.766C292.098 597.571 291.515 597.571 291.32 598.155C291.32 598.738 288.986 598.933 288.792 599.711L287.819 599.905C286.652 600.294 285.486 600.683 284.708 601.656L284.319 602.045C283.735 602.239 282.568 602.434 281.985 602.823C281.401 603.212 279.262 603.795 279.067 603.99L278.873 604.184L278.484 604.573C277.9 604.768 277.122 604.573 276.733 604.184C276.344 603.795 275.177 603.212 275.177 603.212C275.177 603.406 275.372 603.795 275.566 604.184L275.761 604.379L275.372 604.573C275.177 604.379 274.788 603.99 274.788 604.573C274.788 604.768 274.983 604.962 274.983 605.157H275.372C275.761 605.157 275.761 605.157 275.177 605.351C274.594 605.351 273.621 606.324 273.621 606.324H273.427L272.454 605.935C272.454 606.518 272.454 607.102 272.454 607.102C272.454 607.102 272.26 607.491 272.065 607.491C271.871 607.491 270.704 607.685 269.731 607.685L268.953 608.463C268.37 609.047 267.592 609.825 266.425 608.852H265.842C265.842 609.047 265.842 609.241 266.036 609.63V609.825C266.231 610.019 265.842 610.019 265.258 609.63C264.675 609.436 263.313 609.825 263.508 610.019C263.702 610.019 263.702 610.603 262.924 611.186L261.952 610.214C261.757 610.019 261.563 609.825 261.368 609.825H261.174C260.785 609.825 260.59 610.214 260.59 610.797V611.186C260.59 611.381 260.201 611.575 260.007 611.575H259.423C259.618 611.381 259.812 610.797 259.812 610.408L259.423 610.214C259.229 610.214 259.034 610.019 259.034 610.019L258.645 610.214C258.451 610.603 258.256 610.992 258.256 610.992C258.256 611.186 258.256 611.575 258.256 611.77C258.256 611.964 257.478 611.964 257.478 611.77C256.895 610.992 256.117 610.797 255.728 610.797ZM318.355 564.118C318.355 563.729 318.355 563.34 318.355 563.34C318.355 563.34 319.327 563.729 320.3 563.729L320.883 563.34L321.467 562.951C321.856 562.173 321.661 561.785 320.883 562.173L320.3 562.562L319.716 562.951C319.911 563.729 319.522 564.118 318.744 564.118L318.355 563.924L317.966 563.729C317.577 563.146 317.383 563.146 317.383 563.535C317.383 563.924 318.355 564.702 318.355 564.118ZM249.31 608.852C249.504 609.047 249.893 608.852 250.088 608.463L250.282 608.269C250.477 608.074 251.838 608.074 252.032 608.463C252.227 608.658 252.421 608.852 252.616 609.047C252.81 609.241 253.199 609.241 253.199 609.047C253.394 609.047 253.588 608.658 253.394 608.463C252.81 607.88 252.421 607.491 253.783 607.296H254.172C254.366 606.713 254.172 606.324 253.588 606.129C253.005 605.935 251.449 606.129 251.449 606.518V606.907V607.102C251.255 607.296 250.671 607.296 250.282 606.907L250.477 606.518V606.324C250.671 606.129 250.477 606.129 250.282 605.935H250.088C250.282 606.129 249.115 608.463 249.31 608.852ZM262.535 587.263C261.757 587.652 261.563 588.041 262.146 588.041C262.73 588.041 263.508 589.208 263.702 589.597C263.897 589.792 264.869 589.986 264.869 590.181C264.869 590.181 264.869 590.57 264.675 590.57C264.48 590.764 264.48 590.959 264.48 591.153C264.48 591.348 265.258 591.153 265.842 590.375L266.036 589.792L266.425 588.819C265.453 588.236 264.091 587.847 263.313 587.847L262.73 587.652L262.535 587.263ZM417.353 518.023C416.964 517.829 416.575 517.829 416.38 517.829C416.38 517.829 415.797 518.218 415.602 518.607C415.408 518.996 416.769 519.774 417.547 519.385L418.325 518.996L418.52 518.801C418.909 518.607 417.936 518.023 417.353 518.023ZM451.778 506.743C451.973 506.937 452.362 507.132 452.751 506.937C453.14 506.743 453.918 506.159 453.918 506.159C453.918 505.965 453.917 505.77 453.723 505.77H453.528H453.14C452.751 505.77 452.751 505.576 452.945 505.381V505.187V504.992C452.751 504.798 452.362 504.798 452.167 504.992C451.973 505.187 451.584 506.354 451.778 506.743ZM427.272 513.355C426.883 513.161 426.494 513.161 426.299 513.55C426.105 513.939 424.549 514.717 424.354 514.717C424.354 514.911 424.354 515.3 424.549 515.3H424.743L425.327 515.106C425.91 515.106 426.688 514.911 427.077 514.911C427.466 514.717 427.661 513.55 427.272 513.355ZM384.483 532.61C384.678 532.805 384.872 532.221 384.678 531.638L385.845 532.416L386.428 532.805C386.817 532.416 387.012 532.027 387.012 531.638C387.012 531.443 387.011 530.86 386.622 530.86C386.428 530.86 385.456 531.249 384.872 531.638L384.289 531.832C384.289 531.638 384.289 532.221 384.483 532.61ZM333.72 556.339C334.109 556.922 334.498 556.922 334.887 556.339C335.276 555.95 336.443 554.977 336.637 554.783C336.832 554.588 336.248 554.199 335.665 554.005L335.47 554.199C334.887 554.783 334.304 555.366 333.915 555.95L333.72 556.339ZM275.372 585.318C275.761 585.513 275.955 585.318 275.955 584.735C275.955 584.151 275.177 583.373 274.788 583.373C274.594 583.373 274.01 583.762 274.205 583.762C274.594 583.762 274.983 584.151 274.594 584.151C274.399 584.151 274.205 584.735 274.399 585.124L274.788 585.318H275.372ZM442.637 507.326C442.442 507.132 442.248 507.326 442.053 507.715L441.859 507.91L441.47 508.299C440.886 508.688 440.497 508.882 440.303 509.077C440.303 509.271 440.303 509.66 440.692 509.66H440.886H441.275C441.664 509.466 442.053 509.077 442.248 508.882C442.442 508.688 442.831 507.521 442.637 507.326ZM395.18 527.553C395.375 527.748 395.569 527.359 395.569 526.97C395.569 526.581 397.514 526.97 398.098 526.97L398.681 526.776C398.681 526.581 398.292 526.192 397.903 526.192C397.514 525.998 396.153 526.192 395.958 526.387C395.569 526.581 395.18 527.359 395.18 527.553ZM247.559 597.377C247.365 596.404 246.976 596.015 246.587 596.404C246.198 596.988 246.198 598.155 246.976 597.96L247.559 597.377ZM437.385 511.021C437.969 511.021 438.358 510.827 438.552 510.438L438.747 510.244C439.136 509.855 439.525 509.66 438.941 509.271H438.747C438.358 509.466 437.385 510.244 436.802 510.633H436.024H435.83C435.246 510.827 436.802 511.021 437.385 511.021ZM366.59 539.807C366.006 540.779 366.395 541.168 367.173 540.974L367.368 539.612C367.368 539.612 367.562 539.612 367.562 539.418V539.223C367.562 539.029 367.368 538.834 366.979 538.834L366.59 539.807ZM257.089 605.351C256.895 605.351 256.895 605.546 257.284 605.74C257.673 605.935 258.645 605.351 259.034 605.351H259.423C259.812 605.351 260.007 605.351 260.396 605.157C260.396 605.157 260.59 604.962 260.396 604.768V604.573C260.201 604.379 259.618 604.184 259.034 604.184C258.645 603.99 257.478 605.351 257.089 605.351ZM261.757 601.656C261.563 603.406 261.563 603.406 263.897 604.379C263.119 603.406 262.535 602.628 261.757 601.656Z" fill="#D7E7FF"/>
<path d="M175.047 251.948V455.23C175.047 484.061 191.662 500.187 225.379 500.187C259.096 500.187 276.199 484.061 276.199 455.23V108.299C276.199 93.1506 281.086 87.7754 296.723 87.7754H351.941C367.578 87.7754 372.954 93.1506 372.954 108.299V450.832C372.954 532.927 322.133 585.702 225.379 585.702C129.113 585.702 78.293 532.927 78.293 450.832V251.948C78.293 236.8 83.1795 231.425 98.8166 231.425H154.035C169.672 231.425 175.047 236.8 175.047 251.948Z" fill="#FF0000"/>
<path d="M319.276 1.83537C321.929 -0.611793 326.016 -0.611788 328.67 1.83537L421.698 87.6386C426.335 91.9153 423.309 99.659 417.001 99.659H230.944C224.637 99.659 221.611 91.9153 226.247 87.6386L319.276 1.83537Z" fill="#FF0000"/>
</svg>
