<svg width="214" height="70" viewBox="0 0 214 70" fill="none" xmlns="http://www.w3.org/2000/svg">
<path d="M54.8015 0.0209961H44.4199C43.7489 0.0209961 43.5391 0.251699 43.5391 0.901861V2.78943C43.5391 3.46056 43.7489 3.69126 44.4199 3.69126H47.5449V14.031C47.5449 14.6811 47.7547 14.9118 48.4257 14.9118H50.7957C51.4669 14.9118 51.6976 14.6811 51.6976 14.031V3.69126H54.8015C55.4727 3.69126 55.7035 3.46056 55.7035 2.78943V0.901861C55.7035 0.251699 55.4727 0.0209961 54.8015 0.0209961Z" fill="black"/>
<path d="M69.8253 0H67.4343C66.7841 0 66.5535 0.230703 66.5535 0.901837V5.53687H62.4847V0.901837C62.4847 0.230703 62.2749 0 61.6038 0H59.234C58.5628 0 58.332 0.230703 58.332 0.901837V14.0309C58.332 14.6811 58.5628 14.9118 59.234 14.9118H61.6038C62.2749 14.9118 62.4847 14.6811 62.4847 14.0309V9.20714H66.5535V14.0309C66.5535 14.6811 66.7841 14.9118 67.4343 14.9118H69.8253C70.4755 14.9118 70.7061 14.6811 70.7061 14.0309V0.901837C70.7061 0.230703 70.4755 0 69.8253 0Z" fill="black"/>
<path d="M83.8653 0.0209961H75.0776C74.4064 0.0209961 74.1758 0.251699 74.1758 0.901861V14.031C74.1758 14.6811 74.4064 14.9118 75.0776 14.9118H84.054C84.7042 14.9118 84.9349 14.6811 84.9349 14.031V12.1224C84.9349 11.4513 84.7042 11.2415 84.054 11.2415H78.3283V9.22815H82.7538C83.4248 9.22815 83.6555 8.99744 83.6555 8.32631V6.43873C83.6555 5.78856 83.4248 5.55786 82.7538 5.55786H78.3283V3.69126H83.8653C84.5363 3.69126 84.7671 3.46056 84.7671 2.78943V0.901861C84.7671 0.251699 84.5363 0.0209961 83.8653 0.0209961Z" fill="black"/>
<path fill-rule="evenodd" clip-rule="evenodd" d="M30.8294 22.1767H42.1709C48.5814 22.1767 52.7727 25.9161 52.7727 32.4498C52.7727 38.9424 48.6225 42.5997 42.2532 42.5997H37.1987V49.6265C37.1987 50.9004 36.7878 51.3523 35.4728 51.3523H30.8294C29.5145 51.3523 29.0625 50.9004 29.0625 49.6265V23.9026C29.0625 22.6286 29.5145 22.1767 30.8294 22.1767ZM37.1987 35.4084H41.2669C43.1983 35.4084 44.3488 34.2168 44.3488 32.4086C44.3488 30.6007 43.1983 29.3678 41.2669 29.3678H37.1987V35.4084Z" fill="#135CE9"/>
<path d="M55.8313 22.1767H76.1721C77.487 22.1767 77.9391 22.6286 77.9391 23.9026V27.6009C77.9391 28.9158 77.487 29.3678 76.1721 29.3678H70.0904V49.6265C70.0904 50.9004 69.6385 51.3523 68.3235 51.3523H63.6799C62.365 51.3523 61.9541 50.9004 61.9541 49.6265V29.3678H55.8313C54.5164 29.3678 54.1055 28.9158 54.1055 27.6009V23.9026C54.1055 22.6286 54.5164 22.1767 55.8313 22.1767Z" fill="#135CE9"/>
<path d="M98.2638 22.1354H102.948C104.222 22.1354 104.674 22.5875 104.674 23.9025V49.6264C104.674 50.9003 104.222 51.3523 102.948 51.3523H98.2638C96.99 51.3523 96.5379 50.9003 96.5379 49.6264V41.9426H100.677L92.6126 35.0598L84.4018 41.9426H88.566V49.6264C88.566 50.9003 88.155 51.3523 86.8402 51.3523H82.1966C80.8816 51.3523 80.4297 50.9003 80.4297 49.6264V23.9025C80.4297 22.5875 80.8816 22.1354 82.1966 22.1354H86.8402C88.155 22.1354 88.566 22.5875 88.566 23.9025V32.984H96.5379V23.9025C96.5379 22.5875 96.99 22.1354 98.2638 22.1354Z" fill="#135CE9"/>
<path fill-rule="evenodd" clip-rule="evenodd" d="M110.564 22.1767H122.275C128.48 22.1767 132.507 25.7107 132.507 32.08C132.507 36.107 130.863 38.9835 128.069 40.545C128.48 41.0792 128.85 41.6546 129.179 42.3119L132.877 49.3388C133.452 50.4483 133.165 51.3523 131.809 51.3523H127.371C125.193 51.3523 124.248 50.8181 123.59 49.3799L120.96 43.7502C120.262 42.3531 119.563 41.6546 117.878 41.6546H116.933V49.6265C116.933 50.9004 116.522 51.3523 115.207 51.3523H110.564C109.249 51.3523 108.797 50.9004 108.797 49.6265V23.9026C108.797 22.6286 109.249 22.1767 110.564 22.1767ZM121.371 34.792C123.097 34.792 124.083 33.7236 124.083 32.0389C124.083 30.3951 123.138 29.3678 121.371 29.3678H116.933V34.792H121.371Z" fill="#135CE9"/>
<path d="M142.131 22.1767C143.446 22.1767 143.898 22.6286 143.898 23.9026V40.9971C143.898 43.4215 145.295 44.7775 148.131 44.7775C150.966 44.7775 152.404 43.4215 152.404 40.9971V23.9026C152.404 22.6286 152.815 22.1767 154.13 22.1767H158.774C160.089 22.1767 160.541 22.6286 160.541 23.9026V40.6272C160.541 47.5307 156.267 51.9688 148.131 51.9688C140.035 51.9688 135.762 47.5307 135.762 40.6272V23.9026C135.762 22.6286 136.173 22.1767 137.488 22.1767H142.131Z" fill="#135CE9"/>
<path d="M174.954 40.2431C170.153 39.587 163.511 38.6792 163.511 30.765C163.511 25.3408 167.867 21.5602 175.716 21.5602C181.796 21.5602 185.249 23.3684 187.181 27.3132C187.755 28.5049 187.427 29.1214 186.194 29.6144L182.085 31.3814C180.975 31.8744 180.522 31.7101 179.866 30.5184C179.084 28.9569 177.605 28.3816 175.716 28.3816C172.921 28.3816 171.812 29.0802 171.812 30.5184C171.812 32.2855 174.236 32.6552 177.195 33.0251C181.962 33.6825 188.125 34.8332 188.125 42.5997C188.125 48.6401 182.66 51.9688 175.387 51.9688C169.264 51.9688 164.991 49.873 163.429 45.5993C162.976 44.3666 163.346 43.7913 164.538 43.3392L168.4 41.9422C169.633 41.5313 170.209 41.6544 170.825 42.8462C171.565 44.2843 173.168 45.0241 175.469 45.0241C178.222 45.0241 179.866 44.4488 179.866 42.6818C179.866 41.0792 177.769 40.6272 175.057 40.2574L174.954 40.2431Z" fill="#135CE9"/>
<path d="M191.186 22.1767H211.526C212.841 22.1767 213.294 22.6286 213.294 23.9026V27.6009C213.294 28.9158 212.841 29.3678 211.526 29.3678H205.446V49.6265C205.446 50.9004 204.993 51.3523 203.678 51.3523H199.035C197.72 51.3523 197.31 50.9004 197.31 49.6265V29.3678H191.186C189.871 29.3678 189.461 28.9158 189.461 27.6009V23.9026C189.461 22.6286 189.871 22.1767 191.186 22.1767Z" fill="#135CE9"/>
<path d="M8.1363 21.7292V38.8237C8.1363 41.2481 9.53345 42.6042 12.3688 42.6042C15.2042 42.6042 16.6424 41.2481 16.6424 38.8237V9.64941C16.6424 8.37555 17.0533 7.92352 18.3683 7.92352H23.0118C24.3268 7.92352 24.7788 8.37555 24.7788 9.64941V38.4539C24.7788 45.3574 20.5052 49.7954 12.3688 49.7954C4.27362 49.7954 0 45.3574 0 38.4539V21.7292C0 20.4555 0.410929 20.0033 1.72588 20.0033H6.36933C7.68429 20.0033 8.1363 20.4555 8.1363 21.7292Z" fill="#FF0000"/>
<path d="M20.2618 0.696577C20.4849 0.490789 20.8287 0.490789 21.0517 0.696577L28.8747 7.91199C29.2646 8.27163 29.0102 8.92281 28.4798 8.92281H12.8338C12.3033 8.92281 12.0489 8.27163 12.4388 7.91199L20.2618 0.696577Z" fill="#FF0000"/>
<path d="M88.9545 61.2722C89.2584 61.1494 89.5246 61.023 89.7534 60.8934C89.982 60.7636 90.1731 60.6356 90.3268 60.5094C90.4803 60.3796 90.5965 60.2551 90.6749 60.1356C90.7535 60.0161 90.7927 59.9068 90.7927 59.8078C90.7927 59.7738 90.7757 59.7344 90.7415 59.69C90.7074 59.6456 90.6545 59.6047 90.5828 59.5672C90.5145 59.5296 90.4274 59.4989 90.3216 59.475C90.2158 59.4477 90.093 59.434 89.953 59.434C89.5775 59.434 89.2294 59.4801 88.9084 59.5723C88.5875 59.6611 88.2957 59.7703 88.0328 59.8999C87.77 60.0298 87.5378 60.1663 87.3364 60.3096C87.1351 60.4496 86.9661 60.5725 86.8296 60.6783C86.7442 60.7432 86.6691 60.8079 86.6043 60.8729C86.5429 60.9343 86.4813 60.9907 86.4199 61.0419C86.362 61.0896 86.2987 61.1289 86.2305 61.1596C86.1622 61.1903 86.0803 61.2056 85.9847 61.2056C85.8413 61.2056 85.7287 61.1716 85.6467 61.1033C85.5683 61.0351 85.5291 60.9394 85.5291 60.8166C85.5291 60.6698 85.587 60.5144 85.7031 60.3505C85.8191 60.1833 85.9796 60.0177 86.1844 59.8539C86.3892 59.69 86.6298 59.5348 86.9064 59.3879C87.1829 59.2377 87.4799 59.1064 87.7973 58.9937C88.1183 58.8811 88.451 58.7906 88.7958 58.7222C89.1439 58.654 89.4922 58.6199 89.8403 58.6199C90.1988 58.6199 90.5077 58.649 90.7672 58.7069C91.0265 58.765 91.2381 58.8452 91.402 58.9475C91.5694 59.05 91.6922 59.1712 91.7707 59.3112C91.8526 59.4512 91.8936 59.603 91.8936 59.7669C91.8936 59.9306 91.8389 60.1014 91.7298 60.2789C91.6205 60.4565 91.4634 60.6339 91.2587 60.8114C91.0572 60.9888 90.8097 61.1596 90.5162 61.3234C90.2261 61.4838 89.8984 61.6307 89.5331 61.7638C89.8949 61.8833 90.1886 62.0097 90.4139 62.1427C90.6425 62.2725 90.8201 62.409 90.9464 62.5524C91.0761 62.6922 91.163 62.8391 91.2074 62.9928C91.2518 63.143 91.274 63.2982 91.274 63.4587C91.274 63.6942 91.2093 63.9263 91.0794 64.1549C90.9498 64.3837 90.7688 64.6005 90.5367 64.8053C90.3079 65.0067 90.0349 65.1945 89.7175 65.3685C89.4034 65.5392 89.0603 65.6878 88.6883 65.8141C88.3162 65.9369 87.9237 66.0325 87.5106 66.1008C87.0976 66.1724 86.6794 66.2083 86.256 66.2083C86.1058 66.2083 85.954 66.1998 85.8004 66.1827C85.6467 66.1655 85.505 66.1348 85.3754 66.0905C85.249 66.0461 85.1449 65.9863 85.063 65.9112C84.9845 65.8361 84.9453 65.739 84.9453 65.6195C84.9453 65.6058 84.9453 65.5938 84.9453 65.5836C84.9487 65.5699 84.9522 65.5546 84.9555 65.5376C84.9692 65.5102 84.9845 65.4778 85.0016 65.4403C85.0187 65.3992 85.058 65.36 85.1194 65.3225C85.1808 65.2849 85.2764 65.2542 85.4061 65.2303C85.5392 65.203 85.7287 65.1893 85.9745 65.1893C86.4012 64.4076 86.7528 63.7351 87.0292 63.1718C87.3092 62.6053 87.543 62.1393 87.7308 61.774C87.9185 61.4087 88.0755 61.139 88.2019 60.965C88.3315 60.7909 88.4579 60.7038 88.5807 60.7038C88.6354 60.7038 88.6883 60.7125 88.7394 60.7295C88.7906 60.7465 88.835 60.7704 88.8726 60.8011C88.9136 60.8285 88.946 60.8643 88.9699 60.9087C88.9937 60.9496 89.0057 60.9957 89.0057 61.0469C88.9784 61.0811 88.963 61.117 88.9597 61.1545C88.9562 61.1886 88.9545 61.2278 88.9545 61.2722ZM88.673 62.2503C88.5193 62.5984 88.3742 62.9108 88.2377 63.1872C88.1046 63.4637 87.9782 63.718 87.8588 63.9502C87.7393 64.179 87.625 64.3939 87.5156 64.5953C87.4098 64.7933 87.3057 64.9879 87.2034 65.1791C87.5993 65.1449 87.9681 65.0766 88.3093 64.9743C88.6541 64.8685 88.9528 64.7387 89.2053 64.5852C89.4615 64.4315 89.6611 64.2591 89.8044 64.068C89.9513 63.8768 90.0247 63.6755 90.0247 63.4637C90.0247 63.3682 90.0025 63.2675 89.9581 63.1617C89.9171 63.0559 89.8455 62.95 89.743 62.8442C89.6406 62.7384 89.5024 62.6343 89.3283 62.5318C89.1543 62.4294 88.9358 62.3356 88.673 62.2503Z" fill="black"/>
<path d="M94.287 63.1822C94.1266 63.1822 93.9713 63.2231 93.8211 63.305C93.6744 63.3836 93.5429 63.4894 93.4269 63.6224C93.3142 63.7522 93.2238 63.9008 93.1555 64.068C93.0873 64.2319 93.0531 64.4008 93.0531 64.5748C93.0531 64.6397 93.0582 64.7115 93.0684 64.7899C93.0786 64.865 93.0991 64.9368 93.1298 65.005C93.164 65.0698 93.2118 65.1245 93.2732 65.1689C93.3347 65.2131 93.4165 65.2353 93.519 65.2353C93.676 65.2353 93.8279 65.1945 93.9747 65.1125C94.1249 65.0272 94.2581 64.9179 94.3741 64.7848C94.4902 64.6483 94.5824 64.4947 94.6506 64.324C94.7189 64.1533 94.7531 63.9809 94.7531 63.8068C94.7531 63.7386 94.7479 63.6686 94.7377 63.5969C94.7309 63.5218 94.7104 63.4535 94.6762 63.3921C94.6455 63.3307 94.5994 63.2811 94.538 63.2436C94.4766 63.2025 94.393 63.1822 94.287 63.1822ZM94.5533 62.281C94.683 62.281 94.8213 62.298 94.968 62.3321C95.1182 62.3663 95.2566 62.4244 95.3827 62.5063C95.5091 62.5882 95.6132 62.6974 95.6951 62.8339C95.7804 62.9671 95.8231 63.1326 95.8231 63.3307C95.8231 63.433 95.8095 63.5508 95.7823 63.684C95.7549 63.8137 95.714 63.9502 95.6593 64.0935C95.6935 64.1346 95.7327 64.1636 95.7771 64.1806C95.8215 64.1977 95.8692 64.2062 95.9204 64.2062C95.9922 64.2062 96.0706 64.1858 96.1561 64.1448C96.2447 64.1039 96.3351 64.051 96.4274 63.9861C96.5195 63.9211 96.6117 63.8477 96.7039 63.7659C96.7961 63.684 96.883 63.6021 96.965 63.5201C97.0469 63.4382 97.1203 63.3614 97.1852 63.2897C97.2535 63.2146 97.3097 63.1515 97.3541 63.1002C97.378 63.0764 97.407 63.0644 97.4412 63.0644C97.489 63.0644 97.5317 63.0899 97.5692 63.1411C97.6068 63.189 97.6255 63.2573 97.6255 63.3461C97.6255 63.4347 97.5983 63.5371 97.5435 63.6533C97.4925 63.7693 97.3952 63.8904 97.2518 64.0168C97.1699 64.1055 97.0759 64.2079 96.9701 64.324C96.8643 64.44 96.7517 64.5493 96.6322 64.6517C96.5127 64.7541 96.3881 64.8412 96.2584 64.9128C96.1287 64.9845 95.999 65.0204 95.8692 65.0204C95.7804 65.0204 95.6935 65.0067 95.6082 64.9793C95.5263 64.9521 95.4425 64.9077 95.3572 64.8463C95.2344 65.0374 95.0944 65.2115 94.9373 65.3685C94.7803 65.5255 94.6046 65.6604 94.41 65.773C94.2187 65.8857 94.0106 65.9728 93.7853 66.0342C93.5634 66.099 93.3261 66.1315 93.0736 66.1315C92.978 66.1315 92.867 66.1126 92.7407 66.0751C92.6145 66.0375 92.4932 65.9761 92.3772 65.8909C92.2645 65.8021 92.1689 65.6878 92.0905 65.5477C92.0119 65.4077 91.9727 65.2372 91.9727 65.0357C91.9727 64.8992 91.9949 64.7354 92.0392 64.5441C92.0836 64.353 92.1502 64.1568 92.239 63.9553C92.3311 63.7506 92.4454 63.5492 92.582 63.3511C92.722 63.1496 92.8875 62.9706 93.0786 62.8135C93.2698 62.653 93.4883 62.525 93.7341 62.4294C93.9799 62.3304 94.2529 62.281 94.5533 62.281Z" fill="black"/>
<path d="M99.3067 63.1822C99.1463 63.1822 98.9909 63.2231 98.8407 63.305C98.6939 63.3836 98.5625 63.4894 98.4464 63.6224C98.3338 63.7522 98.2433 63.9008 98.175 64.068C98.1068 64.2319 98.0726 64.4008 98.0726 64.5748C98.0726 64.6397 98.0778 64.7115 98.0881 64.7899C98.0983 64.865 98.1188 64.9368 98.1495 65.005C98.1836 65.0698 98.2314 65.1245 98.2929 65.1689C98.3543 65.2131 98.4362 65.2353 98.5387 65.2353C98.6956 65.2353 98.8476 65.1945 98.9943 65.1125C99.1445 65.0272 99.2776 64.9179 99.3938 64.7848C99.5098 64.6483 99.6019 64.4947 99.6702 64.324C99.7384 64.1533 99.7726 63.9809 99.7726 63.8068C99.7726 63.7386 99.7674 63.6686 99.7573 63.5969C99.7504 63.5218 99.7299 63.4535 99.6959 63.3921C99.6651 63.3307 99.6191 63.2811 99.5575 63.2436C99.4961 63.2025 99.4125 63.1822 99.3067 63.1822ZM99.5729 62.281C99.7027 62.281 99.8409 62.298 99.9877 62.3321C100.138 62.3663 100.276 62.4244 100.402 62.5063C100.529 62.5882 100.633 62.6974 100.715 62.8339C100.8 62.9671 100.843 63.1326 100.843 63.3307C100.843 63.433 100.829 63.5508 100.802 63.684C100.775 63.8137 100.734 63.9502 100.679 64.0935C100.713 64.1346 100.752 64.1636 100.797 64.1806C100.841 64.1977 100.889 64.2062 100.94 64.2062C101.012 64.2062 101.09 64.1858 101.176 64.1448C101.264 64.1039 101.355 64.051 101.447 63.9861C101.539 63.9211 101.631 63.8477 101.723 63.7659C101.816 63.684 101.903 63.6021 101.985 63.5201C102.067 63.4382 102.14 63.3614 102.205 63.2897C102.273 63.2146 102.329 63.1515 102.374 63.1002C102.398 63.0764 102.427 63.0644 102.461 63.0644C102.509 63.0644 102.551 63.0899 102.589 63.1411C102.626 63.189 102.645 63.2573 102.645 63.3461C102.645 63.4347 102.618 63.5371 102.563 63.6533C102.512 63.7693 102.415 63.8904 102.271 64.0168C102.189 64.1055 102.096 64.2079 101.99 64.324C101.884 64.44 101.771 64.5493 101.652 64.6517C101.532 64.7541 101.408 64.8412 101.278 64.9128C101.148 64.9845 101.019 65.0204 100.889 65.0204C100.8 65.0204 100.713 65.0067 100.628 64.9793C100.546 64.9521 100.462 64.9077 100.377 64.8463C100.254 65.0374 100.114 65.2115 99.957 65.3685C99.8 65.5255 99.6241 65.6604 99.4295 65.773C99.2384 65.8857 99.0302 65.9728 98.8049 66.0342C98.5829 66.099 98.3458 66.1315 98.0931 66.1315C97.9975 66.1315 97.8867 66.1126 97.7603 66.0751C97.634 66.0375 97.5128 65.9761 97.3967 65.8909C97.2841 65.8021 97.1886 65.6878 97.11 65.5477C97.0316 65.4077 96.9922 65.2372 96.9922 65.0357C96.9922 64.8992 97.0144 64.7354 97.0588 64.5441C97.1032 64.353 97.1697 64.1568 97.2585 63.9553C97.3507 63.7506 97.465 63.5492 97.6016 63.3511C97.7415 63.1496 97.907 62.9706 98.0983 62.8135C98.2894 62.653 98.5078 62.525 98.7536 62.4294C98.9994 62.3304 99.2725 62.281 99.5729 62.281Z" fill="black"/>
<path d="M103.843 63.1208C104.052 63.23 104.238 63.3546 104.401 63.4945C104.565 63.6345 104.704 63.783 104.816 63.94C104.932 64.0936 105.019 64.2506 105.077 64.4111C105.139 64.5715 105.17 64.7286 105.17 64.8821C105.17 65.0767 105.113 65.2526 105.001 65.4096C104.891 65.5631 104.746 65.6946 104.565 65.8038C104.388 65.9096 104.183 65.9899 103.951 66.0444C103.722 66.1025 103.49 66.1315 103.254 66.1315C103.077 66.1315 102.905 66.111 102.737 66.0701C102.57 66.0326 102.417 65.9728 102.277 65.8909C102.14 65.809 102.022 65.7048 101.923 65.5785C101.824 65.4488 101.754 65.2951 101.713 65.1177C101.706 65.0904 101.703 65.0682 101.703 65.0511C101.703 64.959 101.736 64.8804 101.8 64.8155C101.865 64.7473 101.937 64.7132 102.015 64.7132C102.053 64.7132 102.094 64.72 102.138 64.7337C102.186 64.7473 102.222 64.778 102.246 64.8259C102.29 64.9078 102.352 64.9812 102.43 65.046C102.512 65.1109 102.603 65.1671 102.702 65.215C102.801 65.2594 102.905 65.2951 103.014 65.3225C103.126 65.3464 103.236 65.3584 103.342 65.3584C103.451 65.3584 103.555 65.348 103.654 65.3277C103.756 65.3071 103.845 65.2748 103.92 65.2304C103.999 65.186 104.06 65.1296 104.105 65.0613C104.149 64.9931 104.171 64.9095 104.171 64.8105C104.171 64.6364 104.132 64.4759 104.053 64.3292C103.975 64.1824 103.872 64.0475 103.746 63.9247C103.623 63.7984 103.482 63.6822 103.321 63.5764C103.164 63.4673 103.007 63.3631 102.85 63.2642C102.833 63.2538 102.807 63.2248 102.773 63.1771C102.739 63.1258 102.722 63.0746 102.722 63.0235C102.722 62.9825 102.732 62.9501 102.753 62.9262C102.807 62.8545 102.87 62.781 102.942 62.7059C103.014 62.6308 103.091 62.5626 103.173 62.5012C103.254 62.4363 103.343 62.3852 103.439 62.3476C103.534 62.3066 103.633 62.2861 103.736 62.2861C103.811 62.2861 103.881 62.2964 103.946 62.3168C104.011 62.3373 104.065 62.3647 104.11 62.3987C104.154 62.4294 104.188 62.4653 104.212 62.5063C104.239 62.5439 104.253 62.5796 104.253 62.6138C104.253 62.6616 104.241 62.7078 104.217 62.752C104.193 62.7964 104.161 62.8391 104.12 62.8802C104.082 62.921 104.038 62.9619 103.987 63.003C103.939 63.0439 103.891 63.0833 103.843 63.1208Z" fill="black"/>
<path d="M107.713 63.1564C107.587 63.4022 107.467 63.6429 107.355 63.8785C107.242 64.1107 107.136 64.3256 107.037 64.5237C106.996 64.6055 106.955 64.7011 106.914 64.8104C106.877 64.9162 106.858 65.01 106.858 65.0919C106.858 65.1398 106.868 65.1774 106.889 65.2046C106.913 65.2319 106.95 65.2456 107.001 65.2456C107.073 65.2456 107.164 65.2251 107.273 65.1842C107.382 65.1398 107.5 65.0834 107.626 65.0152C107.752 64.9436 107.886 64.8633 108.025 64.7745C108.165 64.6824 108.302 64.5884 108.435 64.4928C108.572 64.3939 108.701 64.2966 108.824 64.2011C108.947 64.102 109.056 64.0115 109.152 63.9296C109.207 63.8921 109.258 63.8733 109.306 63.8733C109.364 63.8733 109.411 63.8989 109.449 63.9501C109.487 64.0014 109.505 64.0663 109.505 64.1447C109.505 64.2233 109.487 64.3034 109.449 64.3853C109.411 64.4673 109.343 64.5476 109.244 64.626C109.022 64.8274 108.797 65.0187 108.568 65.1996C108.343 65.3805 108.118 65.5408 107.892 65.6809C107.671 65.8174 107.45 65.9267 107.232 66.0085C107.013 66.0904 106.802 66.1314 106.597 66.1314C106.46 66.1314 106.346 66.1126 106.254 66.075C106.162 66.041 106.087 65.9931 106.029 65.9317C105.974 65.8669 105.935 65.7935 105.911 65.7116C105.887 65.6261 105.875 65.5357 105.875 65.4402C105.875 65.2695 105.904 65.0919 105.962 64.9077C106.02 64.7233 106.085 64.5577 106.157 64.411C106.259 64.1993 106.36 63.9893 106.459 63.7812C106.561 63.573 106.66 63.3732 106.756 63.1821H106.536C106.344 63.1821 106.213 63.1514 106.141 63.0898C106.07 63.0284 106.034 62.9585 106.034 62.8801C106.034 62.8459 106.044 62.805 106.064 62.7571C106.088 62.7058 106.121 62.6598 106.162 62.6189C106.206 62.5745 106.259 62.5369 106.32 62.5062C106.382 62.4755 106.452 62.4602 106.53 62.4602H107.083L108.164 60.3147C108.232 60.1849 108.316 60.0928 108.415 60.0382C108.517 59.9801 108.623 59.9511 108.732 59.9511C108.835 59.9511 108.928 59.9785 109.014 60.033C109.099 60.0876 109.142 60.1781 109.142 60.3044C109.142 60.3693 109.126 60.4359 109.096 60.5042C109.068 60.5691 109.031 60.6458 108.983 60.7346C108.952 60.7925 108.915 60.8626 108.87 60.9446C108.826 61.023 108.778 61.1083 108.727 61.2006C108.679 61.2893 108.628 61.3831 108.573 61.4821C108.522 61.5811 108.471 61.6767 108.42 61.7688C108.304 61.9874 108.181 62.2177 108.051 62.4602H109.72C109.802 62.4602 109.877 62.4652 109.946 62.4755C110.014 62.4824 110.072 62.4994 110.12 62.5266C110.171 62.5506 110.21 62.5847 110.237 62.6291C110.265 62.6735 110.279 62.7332 110.279 62.8083C110.279 62.8459 110.272 62.8834 110.258 62.921C110.248 62.9585 110.226 62.9927 110.191 63.0234C110.161 63.0541 110.116 63.0797 110.058 63.1002C110.004 63.1207 109.932 63.1342 109.843 63.1411L107.713 63.1564Z" fill="black"/>
<path d="M110.807 61.5744C110.807 61.4958 110.82 61.4156 110.847 61.3336C110.878 61.2483 110.923 61.1716 110.981 61.1033C111.039 61.0351 111.11 60.9787 111.196 60.9343C111.284 60.8899 111.389 60.8677 111.508 60.8677C111.706 60.8677 111.844 60.907 111.923 60.9855C112.001 61.0606 112.04 61.1562 112.04 61.2722C112.04 61.3371 112.027 61.4087 112 61.4873C111.976 61.5657 111.938 61.6392 111.887 61.7074C111.836 61.7723 111.769 61.8269 111.687 61.8713C111.605 61.9157 111.508 61.9379 111.395 61.9379C111.184 61.9379 111.035 61.9055 110.95 61.8406C110.865 61.7723 110.817 61.6836 110.807 61.5744ZM110.243 62.7264C110.301 62.6308 110.368 62.5625 110.443 62.5216C110.518 62.4806 110.595 62.4602 110.673 62.4602C110.803 62.4602 110.914 62.5028 111.006 62.5882C111.102 62.6702 111.15 62.776 111.15 62.9056C111.146 62.9363 111.141 62.9671 111.134 62.9978C111.131 63.0285 111.121 63.0592 111.104 63.0899C111.056 63.1787 111.016 63.2538 110.986 63.3153C110.955 63.3767 110.926 63.4347 110.899 63.4894C110.875 63.5406 110.851 63.5917 110.827 63.6429C110.803 63.6942 110.774 63.7556 110.74 63.8273C110.699 63.9126 110.653 64.0066 110.602 64.1089C110.551 64.2078 110.501 64.3103 110.453 64.4161C110.409 64.5219 110.37 64.626 110.335 64.7285C110.305 64.8308 110.289 64.9248 110.289 65.01C110.289 65.1023 110.312 65.1637 110.356 65.1944C110.404 65.2218 110.47 65.2353 110.556 65.2353C110.651 65.2353 110.75 65.215 110.853 65.1739C110.958 65.133 111.064 65.0801 111.17 65.0152C111.276 64.9503 111.38 64.877 111.482 64.7951C111.585 64.7097 111.68 64.6244 111.769 64.5391C111.861 64.4537 111.945 64.3717 112.02 64.2933C112.099 64.2147 112.163 64.1447 112.215 64.0833C112.283 64.0184 112.351 63.986 112.419 63.986C112.481 63.986 112.53 64.0134 112.568 64.068C112.609 64.1226 112.629 64.1925 112.629 64.2779C112.629 64.3564 112.609 64.44 112.568 64.5288C112.53 64.6175 112.467 64.7011 112.378 64.7797C112.204 64.9571 112.027 65.1279 111.846 65.2917C111.665 65.4521 111.479 65.5955 111.288 65.7218C111.1 65.8448 110.911 65.9437 110.719 66.0188C110.528 66.0939 110.335 66.1315 110.141 66.1315C109.864 66.1315 109.646 66.0614 109.485 65.9215C109.328 65.7782 109.25 65.5562 109.25 65.2559C109.25 65.0988 109.272 64.9453 109.316 64.7951C109.361 64.6449 109.414 64.4997 109.475 64.3599C109.537 64.2165 109.601 64.0798 109.67 63.9502C109.738 63.817 109.796 63.6908 109.844 63.5713C109.861 63.5269 109.89 63.4587 109.931 63.3664C109.975 63.2743 110.021 63.1805 110.069 63.0849C110.124 62.9722 110.182 62.8527 110.243 62.7264Z" fill="black"/>
<path d="M113.528 62.8955C113.596 62.7486 113.681 62.6393 113.784 62.5677C113.886 62.496 113.987 62.4602 114.086 62.4602C114.168 62.4602 114.241 62.4909 114.306 62.5524C114.371 62.6104 114.403 62.6974 114.403 62.8135C114.403 62.8579 114.398 62.9057 114.388 62.9569C114.378 63.0081 114.359 63.0627 114.331 63.1208C114.407 63.0251 114.514 62.9278 114.654 62.8289C114.794 62.7264 114.948 62.636 115.115 62.5575C115.286 62.4756 115.46 62.409 115.637 62.3578C115.818 62.3065 115.989 62.281 116.149 62.281C116.33 62.281 116.48 62.3254 116.6 62.414C116.723 62.4995 116.784 62.6462 116.784 62.8544C116.784 62.9773 116.765 63.1054 116.728 63.2384C116.69 63.3716 116.641 63.5048 116.579 63.6379C116.521 63.7709 116.455 63.9024 116.38 64.0321C116.308 64.1584 116.236 64.2779 116.165 64.3906C116.093 64.5032 116.026 64.6074 115.965 64.7028C115.907 64.7951 115.861 64.8719 115.827 64.9333C115.782 64.9879 115.76 65.0511 115.76 65.1227C115.76 65.1501 115.769 65.1739 115.786 65.1944C115.803 65.215 115.83 65.2252 115.868 65.2252C115.892 65.2252 115.919 65.2235 115.95 65.22C115.98 65.2131 116.018 65.1945 116.062 65.1637C116.246 65.0955 116.434 65.0101 116.625 64.9077C116.82 64.8053 117.006 64.6978 117.184 64.5852C117.361 64.469 117.523 64.3547 117.67 64.2421C117.82 64.1261 117.945 64.0219 118.044 63.9297C118.071 63.9058 118.098 63.8888 118.126 63.8786C118.153 63.8682 118.179 63.8632 118.203 63.8632C118.261 63.8632 118.305 63.8853 118.336 63.9297C118.37 63.974 118.387 64.0304 118.387 64.0987C118.387 64.2045 118.353 64.3223 118.284 64.452C118.22 64.5817 118.115 64.7028 117.972 64.8155C117.777 64.9555 117.598 65.0835 117.435 65.1996C117.274 65.3156 117.108 65.4249 116.938 65.5272C116.77 65.6262 116.59 65.7201 116.395 65.8089C116.204 65.8942 115.979 65.9745 115.719 66.0496C115.63 66.0769 115.548 66.0973 115.473 66.111C115.402 66.1247 115.335 66.1315 115.274 66.1315C115.093 66.1315 114.96 66.0819 114.874 65.983C114.792 65.8805 114.751 65.739 114.751 65.5579C114.751 65.5341 114.751 65.5119 114.751 65.4915C114.755 65.4675 114.758 65.4419 114.762 65.4146C114.768 65.3088 114.796 65.1928 114.843 65.0665C114.895 64.9401 114.954 64.8105 115.023 64.6773C115.094 64.5441 115.17 64.4128 115.248 64.2829C115.327 64.1499 115.398 64.0253 115.463 63.9093C115.531 63.7898 115.588 63.684 115.632 63.5917C115.676 63.4996 115.699 63.4245 115.699 63.3664C115.699 63.3153 115.683 63.2726 115.653 63.2384C115.625 63.2009 115.583 63.1822 115.525 63.1822C115.306 63.1822 115.098 63.2469 114.9 63.3768C114.705 63.5064 114.523 63.6668 114.352 63.8581C114.181 64.0458 114.024 64.2454 113.881 64.4572C113.738 64.6688 113.611 64.8582 113.502 65.0254C113.434 65.1381 113.371 65.2594 113.313 65.389C113.258 65.5154 113.2 65.6348 113.138 65.7475C113.077 65.8566 113.007 65.9471 112.929 66.0189C112.853 66.0939 112.758 66.1315 112.642 66.1315C112.522 66.1315 112.429 66.0939 112.36 66.0189C112.292 65.9438 112.258 65.8516 112.258 65.7423C112.258 65.6843 112.282 65.5905 112.329 65.4606C112.377 65.331 112.439 65.1808 112.514 65.0101C112.589 64.8395 112.673 64.6568 112.765 64.4622C112.86 64.2642 112.954 64.0697 113.046 63.8786C113.142 63.684 113.232 63.5013 113.318 63.3307C113.403 63.16 113.473 63.0148 113.528 62.8955Z" fill="black"/>
<path d="M120.64 62.281C120.79 62.281 120.921 62.2997 121.034 62.3373C121.146 62.3748 121.242 62.4158 121.321 62.4602C121.409 62.5148 121.488 62.5746 121.556 62.6393C121.604 62.6086 121.655 62.5796 121.71 62.5524C121.758 62.5285 121.81 62.508 121.868 62.4909C121.926 62.4704 121.984 62.4602 122.043 62.4602C122.193 62.4602 122.309 62.4909 122.391 62.5524C122.473 62.6138 122.514 62.6872 122.514 62.7725C122.514 62.8169 122.502 62.8613 122.478 62.9057L121.28 65.1739L121.377 65.087C121.78 64.8513 122.111 64.6671 122.37 64.5339C122.63 64.3974 122.836 64.2966 122.99 64.2319C123.143 64.167 123.253 64.1277 123.318 64.1141C123.386 64.097 123.428 64.0885 123.446 64.0885C123.524 64.0885 123.584 64.1192 123.625 64.1806C123.669 64.2387 123.691 64.312 123.691 64.4008C123.691 64.4997 123.662 64.6005 123.604 64.7028C123.55 64.8053 123.464 64.8787 123.348 64.9231C123.195 65.0015 123.015 65.087 122.811 65.1791C122.606 65.2679 122.392 65.3668 122.171 65.476C121.949 65.5853 121.725 65.7081 121.5 65.8448C121.278 65.9778 121.07 66.1263 120.875 66.2902L119.882 68.0874C119.8 68.282 119.725 68.4408 119.656 68.5636C119.592 68.6865 119.527 68.7838 119.462 68.8555C119.397 68.9271 119.33 68.9767 119.262 69.004C119.194 69.0313 119.115 69.0449 119.027 69.0449C118.893 69.0449 118.788 68.9989 118.709 68.9068C118.634 68.8145 118.597 68.7037 118.597 68.5738C118.597 68.4373 118.629 68.2786 118.694 68.0977C118.759 67.9168 118.849 67.7205 118.965 67.5088C119.085 67.3007 119.228 67.0804 119.395 66.8483C119.562 66.6196 119.749 66.3858 119.953 66.1469L120.588 65.3378C120.459 65.4573 120.331 65.5598 120.204 65.645C120.078 65.7303 119.957 65.8004 119.841 65.855C119.725 65.9062 119.615 65.9438 119.513 65.9676C119.414 65.9915 119.327 66.0035 119.252 66.0035C119.115 66.0035 118.989 65.9728 118.873 65.9112C118.757 65.8465 118.656 65.7577 118.571 65.645C118.489 65.5324 118.424 65.3992 118.376 65.2457C118.329 65.092 118.305 64.9248 118.305 64.7439C118.305 64.3684 118.376 64.0288 118.52 63.7249C118.666 63.4212 118.853 63.1633 119.078 62.9517C119.307 62.7366 119.557 62.5711 119.831 62.4551C120.107 62.3389 120.377 62.281 120.64 62.281ZM120.445 63.1822C120.285 63.1822 120.129 63.2231 119.979 63.305C119.829 63.3836 119.696 63.4894 119.58 63.6224C119.464 63.7522 119.371 63.9024 119.303 64.0732C119.235 64.2437 119.201 64.4196 119.201 64.6005C119.201 64.6551 119.204 64.7148 119.211 64.7797C119.221 64.8412 119.24 64.8992 119.267 64.9538C119.298 65.0084 119.341 65.0544 119.395 65.092C119.453 65.1262 119.532 65.1432 119.631 65.1432C119.703 65.1432 119.786 65.1125 119.882 65.0511C119.981 64.9862 120.081 64.9061 120.184 64.8105C120.29 64.7115 120.392 64.6039 120.491 64.4879C120.59 64.3684 120.679 64.2522 120.757 64.1396C120.839 64.0269 120.904 63.9263 120.952 63.8375C121 63.7454 121.024 63.6772 121.024 63.6328C121.024 63.5577 121.003 63.4928 120.962 63.4382C120.921 63.3801 120.87 63.3324 120.808 63.2948C120.751 63.2573 120.687 63.2299 120.619 63.2129C120.554 63.1924 120.496 63.1822 120.445 63.1822Z" fill="black"/>
<path d="M128.448 63.1564C128.321 63.4022 128.202 63.6429 128.089 63.8785C127.976 64.1107 127.871 64.3256 127.772 64.5237C127.731 64.6055 127.69 64.7011 127.649 64.8104C127.611 64.9162 127.592 65.01 127.592 65.0919C127.592 65.1398 127.603 65.1774 127.623 65.2046C127.647 65.2319 127.685 65.2456 127.736 65.2456C127.808 65.2456 127.898 65.2251 128.007 65.1842C128.116 65.1398 128.234 65.0834 128.36 65.0152C128.487 64.9436 128.62 64.8633 128.76 64.7745C128.9 64.6824 129.036 64.5884 129.17 64.4928C129.306 64.3939 129.436 64.2966 129.559 64.2011C129.682 64.102 129.791 64.0115 129.886 63.9296C129.941 63.8921 129.992 63.8733 130.04 63.8733C130.098 63.8733 130.146 63.8989 130.183 63.9501C130.221 64.0014 130.24 64.0663 130.24 64.1447C130.24 64.2233 130.221 64.3034 130.183 64.3853C130.146 64.4673 130.078 64.5476 129.979 64.626C129.757 64.8274 129.531 65.0187 129.303 65.1996C129.077 65.3805 128.852 65.5408 128.627 65.6809C128.405 65.8174 128.185 65.9267 127.966 66.0085C127.748 66.0904 127.536 66.1314 127.331 66.1314C127.195 66.1314 127.08 66.1126 126.988 66.075C126.896 66.041 126.821 65.9931 126.763 65.9317C126.708 65.8669 126.669 65.7935 126.645 65.7116C126.621 65.6261 126.609 65.5357 126.609 65.4402C126.609 65.2695 126.638 65.0919 126.696 64.9077C126.754 64.7233 126.819 64.5577 126.891 64.411C126.993 64.1993 127.094 63.9893 127.193 63.7812C127.295 63.573 127.395 63.3732 127.49 63.1821H127.27C127.079 63.1821 126.947 63.1514 126.876 63.0898C126.804 63.0284 126.768 62.9585 126.768 62.8801C126.768 62.8459 126.778 62.805 126.799 62.7571C126.823 62.7058 126.855 62.6598 126.896 62.6189C126.94 62.5745 126.993 62.5369 127.055 62.5062C127.116 62.4755 127.186 62.4602 127.265 62.4602H127.818L128.898 60.3147C128.966 60.1849 129.05 60.0928 129.149 60.0382C129.251 59.9801 129.357 59.9511 129.467 59.9511C129.569 59.9511 129.663 59.9785 129.748 60.033C129.834 60.0876 129.876 60.1781 129.876 60.3044C129.876 60.3693 129.861 60.4359 129.83 60.5042C129.803 60.5691 129.765 60.6458 129.717 60.7346C129.687 60.7925 129.649 60.8626 129.605 60.9446C129.56 61.023 129.513 61.1083 129.461 61.2006C129.414 61.2893 129.362 61.3831 129.308 61.4821C129.257 61.5811 129.205 61.6767 129.154 61.7688C129.038 61.9874 128.915 62.2177 128.786 62.4602H130.455C130.537 62.4602 130.612 62.4652 130.68 62.4755C130.748 62.4824 130.806 62.4994 130.854 62.5266C130.905 62.5506 130.945 62.5847 130.972 62.6291C130.999 62.6735 131.013 62.7332 131.013 62.8083C131.013 62.8459 131.006 62.8834 130.992 62.921C130.982 62.9585 130.96 62.9927 130.926 63.0234C130.895 63.0541 130.851 63.0797 130.793 63.1002C130.738 63.1207 130.666 63.1342 130.578 63.1411L128.448 63.1564Z" fill="black"/>
<path d="M132.422 62.9823C132.405 62.979 132.389 62.9772 132.376 62.9772C132.362 62.9772 132.347 62.9772 132.33 62.9772C132.2 62.9772 132.079 63.0029 131.966 63.0541C131.853 63.1053 131.749 63.1736 131.654 63.2589C131.562 63.3408 131.478 63.4346 131.403 63.5406C131.331 63.6464 131.266 63.7522 131.208 63.858C131.15 63.9603 131.101 64.0594 131.06 64.1549C131.022 64.2505 130.993 64.3308 130.973 64.3955C131.092 64.3341 131.215 64.2642 131.341 64.1857C131.471 64.1071 131.592 64.032 131.705 63.9603C131.818 63.8887 131.915 63.8238 131.997 63.7658C132.082 63.7078 132.142 63.6686 132.176 63.648C132.33 63.5524 132.435 63.4636 132.493 63.3817C132.552 63.2964 132.581 63.223 132.581 63.1616C132.581 63.1103 132.563 63.0694 132.529 63.0387C132.499 63.008 132.463 62.9892 132.422 62.9823ZM132.606 62.2758C132.889 62.2758 133.101 62.344 133.241 62.4805C133.381 62.617 133.451 62.8066 133.451 63.0489C133.451 63.1923 133.413 63.3425 133.338 63.4995C133.263 63.6565 133.133 63.8169 132.949 63.9808C132.765 64.1413 132.517 64.3069 132.207 64.4774C131.9 64.6448 131.514 64.8137 131.05 64.9844C131.067 65.0834 131.12 65.162 131.208 65.2199C131.297 65.2746 131.415 65.3018 131.562 65.3018C131.719 65.3018 131.886 65.2797 132.063 65.2353C132.244 65.1875 132.422 65.1278 132.596 65.0562C132.773 64.9844 132.946 64.9077 133.113 64.8257C133.28 64.7403 133.431 64.6602 133.564 64.5851C133.7 64.51 133.813 64.4451 133.902 64.3905C133.994 64.3359 134.055 64.3017 134.086 64.288C134.117 64.2675 134.144 64.2557 134.168 64.2522C134.195 64.2488 134.219 64.2471 134.24 64.2471C134.28 64.2471 134.315 64.2573 134.342 64.2778C134.369 64.2949 134.391 64.3171 134.408 64.3444C134.429 64.3683 134.443 64.3955 134.45 64.4264C134.456 64.4536 134.46 64.4774 134.46 64.498C134.46 64.5287 134.456 64.5662 134.45 64.6106C134.443 64.6517 134.417 64.6994 134.373 64.754C134.356 64.7711 134.298 64.8172 134.199 64.8923C134.103 64.9674 133.978 65.0562 133.825 65.1585C133.671 65.261 133.492 65.3701 133.287 65.4862C133.086 65.5989 132.871 65.703 132.642 65.7985C132.417 65.8941 132.181 65.9727 131.935 66.0341C131.69 66.0989 131.447 66.1314 131.208 66.1314C131.004 66.1314 130.821 66.0922 130.66 66.0136C130.503 65.9352 130.369 65.8294 130.256 65.6962C130.147 65.563 130.063 65.4095 130.005 65.2353C129.947 65.0612 129.918 64.8786 129.918 64.6874C129.918 64.5407 129.947 64.3802 130.005 64.2061C130.063 64.0287 130.147 63.8511 130.256 63.6736C130.365 63.4962 130.498 63.3238 130.655 63.1564C130.816 62.9858 130.995 62.8356 131.193 62.7058C131.391 62.5761 131.608 62.472 131.843 62.3936C132.082 62.315 132.336 62.2758 132.606 62.2758Z" fill="black"/>
<path d="M137.482 62.752C137.482 62.8579 137.47 62.9756 137.446 63.1054C137.422 63.2316 137.383 63.3511 137.328 63.4637C137.274 63.5764 137.204 63.6703 137.118 63.7454C137.033 63.8205 136.927 63.8581 136.801 63.8581C136.733 63.8581 136.688 63.8477 136.668 63.8273C136.651 63.8068 136.642 63.7709 136.642 63.7197C136.642 63.689 136.642 63.6446 136.642 63.5867C136.646 63.5251 136.648 63.4672 136.648 63.4125C136.648 63.3511 136.639 63.2998 136.622 63.2589C136.605 63.2146 136.562 63.1924 136.494 63.1924C136.415 63.1924 136.327 63.2231 136.228 63.2845C136.132 63.3426 136.035 63.4193 135.936 63.5149C135.84 63.6106 135.746 63.7197 135.654 63.8427C135.562 63.9622 135.478 64.085 135.403 64.2113C135.332 64.3342 135.273 64.4537 135.229 64.5698C135.188 64.6858 135.168 64.7848 135.168 64.8667C135.168 64.9862 135.209 65.0801 135.291 65.1484C135.376 65.2166 135.49 65.2507 135.634 65.2507C135.787 65.2507 135.951 65.2252 136.125 65.1739C136.299 65.1227 136.472 65.0579 136.642 64.9793C136.816 64.9009 136.984 64.8155 137.144 64.7233C137.305 64.6312 137.45 64.5441 137.579 64.4622C137.713 64.3769 137.823 64.3051 137.912 64.2472C138.001 64.1858 138.059 64.1483 138.086 64.1346C138.141 64.1072 138.192 64.0935 138.24 64.0935C138.281 64.0935 138.315 64.1039 138.342 64.1242C138.373 64.1414 138.397 64.1636 138.414 64.1908C138.431 64.2147 138.443 64.2421 138.45 64.2728C138.457 64.3001 138.46 64.324 138.46 64.3445C138.46 64.3752 138.457 64.4128 138.45 64.4572C138.443 64.4981 138.417 64.5459 138.373 64.6005C138.356 64.621 138.3 64.6739 138.204 64.7592C138.112 64.8412 137.991 64.9385 137.841 65.0511C137.694 65.1637 137.523 65.2849 137.328 65.4146C137.137 65.5409 136.931 65.657 136.709 65.7629C136.491 65.8687 136.263 65.9556 136.028 66.0239C135.792 66.0956 135.56 66.1315 135.332 66.1315C135.157 66.1315 135.002 66.1041 134.866 66.0496C134.732 65.995 134.62 65.9216 134.528 65.8294C134.436 65.7338 134.365 65.6228 134.318 65.4965C134.27 65.3702 134.246 65.2372 134.246 65.0972C134.246 64.9436 134.282 64.7677 134.354 64.5698C134.425 64.3684 134.524 64.1636 134.65 63.9553C134.777 63.7471 134.925 63.5423 135.096 63.3409C135.267 63.1395 135.451 62.9602 135.649 62.8032C135.85 62.6462 136.059 62.52 136.274 62.4244C136.492 62.3287 136.712 62.281 136.934 62.281C137.009 62.281 137.079 62.2895 137.144 62.3066C137.212 62.3236 137.271 62.3509 137.318 62.3885C137.369 62.4227 137.409 62.4704 137.436 62.5318C137.467 62.5933 137.482 62.6667 137.482 62.752Z" fill="black"/>
<path d="M138.092 65.1945C138.174 65.0204 138.268 64.8275 138.374 64.6159C138.48 64.4008 138.585 64.1892 138.691 63.9809C138.8 63.7693 138.903 63.5695 138.998 63.3818C139.094 63.1907 139.174 63.0285 139.239 62.8955L140.929 59.5724C140.949 59.528 140.98 59.4853 141.021 59.4444C141.065 59.4033 141.115 59.3674 141.169 59.3367C141.224 59.3027 141.282 59.277 141.343 59.26C141.405 59.2394 141.466 59.2292 141.528 59.2292C141.678 59.2292 141.782 59.2583 141.84 59.3164C141.898 59.3709 141.927 59.4392 141.927 59.5211C141.927 59.5962 141.908 59.6765 141.871 59.7618C141.833 59.8437 141.791 59.9205 141.743 59.9922C141.593 60.2482 141.448 60.5076 141.308 60.7704C141.171 61.0299 141.033 61.2928 140.893 61.5589C140.756 61.8218 140.618 62.0848 140.478 62.3476C140.338 62.607 140.191 62.8646 140.038 63.1208C140.133 63.0285 140.234 62.933 140.34 62.8339C140.449 62.735 140.567 62.6445 140.693 62.5626C140.82 62.4806 140.958 62.414 141.108 62.363C141.258 62.3082 141.425 62.281 141.61 62.281C141.719 62.281 141.823 62.2912 141.922 62.3117C142.021 62.3321 142.108 62.3663 142.183 62.414C142.258 62.4584 142.318 62.5217 142.362 62.6036C142.407 62.6821 142.429 62.7793 142.429 62.8955C142.429 63.049 142.405 63.1907 142.357 63.3204C142.313 63.4467 142.255 63.5679 142.183 63.684C142.112 63.7967 142.033 63.9058 141.948 64.0116C141.862 64.1141 141.78 64.2199 141.702 64.3292C141.627 64.435 141.56 64.546 141.502 64.662C141.448 64.7779 141.413 64.9043 141.4 65.0408C141.4 65.0476 141.398 65.0545 141.395 65.0613C141.395 65.0681 141.395 65.075 141.395 65.0818C141.395 65.1501 141.417 65.1928 141.461 65.2098C141.509 65.2269 141.569 65.2354 141.64 65.2354C141.733 65.2354 141.832 65.2183 141.937 65.1843C142.043 65.1467 142.149 65.0989 142.255 65.0408C142.364 64.9794 142.472 64.9111 142.578 64.836C142.687 64.7609 142.789 64.6841 142.885 64.6056C142.984 64.5271 143.074 64.452 143.156 64.3803C143.238 64.3052 143.308 64.2404 143.366 64.1858C143.397 64.1585 143.429 64.1379 143.463 64.1243C143.497 64.1107 143.53 64.1039 143.561 64.1039C143.622 64.1039 143.673 64.1278 143.714 64.1755C143.759 64.2199 143.781 64.2813 143.781 64.3599C143.781 64.4315 143.755 64.5134 143.704 64.6056C143.656 64.6978 143.572 64.79 143.453 64.8821C143.265 65.046 143.074 65.203 142.88 65.3532C142.685 65.5034 142.489 65.6365 142.291 65.7525C142.093 65.8687 141.895 65.9608 141.697 66.0291C141.502 66.0973 141.311 66.1315 141.123 66.1315C140.881 66.1315 140.686 66.0769 140.54 65.9676C140.393 65.855 140.319 65.6793 140.319 65.4403C140.319 65.2661 140.348 65.1024 140.406 64.9487C140.468 64.7916 140.541 64.6414 140.627 64.4981C140.715 64.3514 140.809 64.2114 140.908 64.0782C141.007 63.9417 141.094 63.8085 141.169 63.6788C141.21 63.6208 141.241 63.5679 141.261 63.5201C141.285 63.4689 141.297 63.4143 141.297 63.3563C141.297 63.305 141.284 63.2641 141.256 63.2334C141.229 63.1992 141.186 63.1822 141.128 63.1822C140.927 63.1822 140.741 63.2316 140.57 63.3307C140.4 63.4297 140.243 63.556 140.099 63.7096C139.956 63.8632 139.823 64.0321 139.7 64.2165C139.577 64.3974 139.463 64.5715 139.357 64.7387C139.309 64.8138 139.26 64.9009 139.208 64.9999C139.16 65.0955 139.109 65.1945 139.055 65.2969C139.003 65.3992 138.949 65.5017 138.891 65.6042C138.833 65.7031 138.771 65.7919 138.706 65.8704C138.645 65.9488 138.578 66.012 138.507 66.0598C138.438 66.1077 138.367 66.1315 138.292 66.1315C138.172 66.1315 138.08 66.0956 138.015 66.0239C137.95 65.9556 137.918 65.8687 137.918 65.7629C137.918 65.6843 137.932 65.6023 137.959 65.5171C137.986 65.4283 138.031 65.3208 138.092 65.1945Z" fill="black"/>
<path d="M149.888 62.752C149.888 62.8579 149.877 62.9756 149.853 63.1054C149.829 63.2316 149.789 63.3511 149.735 63.4637C149.68 63.5764 149.61 63.6703 149.525 63.7454C149.44 63.8205 149.334 63.8581 149.207 63.8581C149.139 63.8581 149.095 63.8477 149.074 63.8273C149.057 63.8068 149.049 63.7709 149.049 63.7197C149.049 63.689 149.049 63.6446 149.049 63.5867C149.052 63.5251 149.054 63.4672 149.054 63.4125C149.054 63.3511 149.045 63.2998 149.028 63.2589C149.011 63.2146 148.969 63.1924 148.9 63.1924C148.822 63.1924 148.733 63.2231 148.634 63.2845C148.538 63.3426 148.441 63.4193 148.342 63.5149C148.246 63.6106 148.153 63.7197 148.06 63.8427C147.968 63.9622 147.885 64.085 147.81 64.2113C147.738 64.3342 147.68 64.4537 147.635 64.5698C147.595 64.6858 147.574 64.7848 147.574 64.8667C147.574 64.9862 147.615 65.0801 147.697 65.1484C147.782 65.2166 147.897 65.2507 148.04 65.2507C148.194 65.2507 148.357 65.2252 148.531 65.1739C148.706 65.1227 148.878 65.0579 149.049 64.9793C149.223 64.9009 149.39 64.8155 149.55 64.7233C149.711 64.6312 149.856 64.5441 149.986 64.4622C150.119 64.3769 150.23 64.3051 150.319 64.2472C150.407 64.1858 150.465 64.1483 150.493 64.1346C150.547 64.1072 150.598 64.0935 150.646 64.0935C150.687 64.0935 150.721 64.1039 150.749 64.1242C150.779 64.1414 150.803 64.1636 150.821 64.1908C150.838 64.2147 150.85 64.2421 150.856 64.2728C150.864 64.3001 150.867 64.324 150.867 64.3445C150.867 64.3752 150.864 64.4128 150.856 64.4572C150.85 64.4981 150.824 64.5459 150.779 64.6005C150.762 64.621 150.706 64.6739 150.61 64.7592C150.518 64.8412 150.397 64.9385 150.247 65.0511C150.1 65.1637 149.929 65.2849 149.735 65.4146C149.544 65.5409 149.337 65.657 149.115 65.7629C148.897 65.8687 148.67 65.9556 148.434 66.0239C148.199 66.0956 147.967 66.1315 147.738 66.1315C147.564 66.1315 147.408 66.1041 147.272 66.0496C147.139 65.995 147.026 65.9216 146.934 65.8294C146.842 65.7338 146.772 65.6228 146.724 65.4965C146.676 65.3702 146.652 65.2372 146.652 65.0972C146.652 64.9436 146.688 64.7677 146.76 64.5698C146.832 64.3684 146.931 64.1636 147.057 63.9553C147.183 63.7471 147.332 63.5423 147.502 63.3409C147.673 63.1395 147.857 62.9602 148.055 62.8032C148.257 62.6462 148.465 62.52 148.68 62.4244C148.898 62.3287 149.119 62.281 149.34 62.281C149.416 62.281 149.486 62.2895 149.55 62.3066C149.619 62.3236 149.677 62.3509 149.724 62.3885C149.776 62.4227 149.815 62.4704 149.842 62.5318C149.873 62.5933 149.888 62.6667 149.888 62.752Z" fill="black"/>
<path d="M152.951 63.1822C152.791 63.1822 152.635 63.2231 152.486 63.305C152.338 63.3836 152.208 63.4894 152.09 63.6224C151.978 63.7522 151.888 63.9008 151.82 64.068C151.751 64.2319 151.717 64.4008 151.717 64.5748C151.717 64.6397 151.723 64.7115 151.733 64.7899C151.742 64.865 151.764 64.9368 151.794 65.005C151.827 65.0698 151.876 65.1245 151.937 65.1689C151.999 65.2131 152.081 65.2353 152.183 65.2353C152.34 65.2353 152.492 65.1945 152.639 65.1125C152.788 65.0272 152.922 64.9179 153.038 64.7848C153.155 64.6483 153.246 64.4947 153.314 64.324C153.383 64.1533 153.418 63.9809 153.418 63.8068C153.418 63.7386 153.412 63.6686 153.402 63.5969C153.395 63.5218 153.375 63.4535 153.34 63.3921C153.31 63.3307 153.264 63.2811 153.202 63.2436C153.141 63.2025 153.057 63.1822 152.951 63.1822ZM153.217 62.281C153.348 62.281 153.486 62.298 153.632 62.3321C153.782 62.3663 153.921 62.4244 154.047 62.5063C154.173 62.5882 154.278 62.6974 154.359 62.8339C154.445 62.9671 154.488 63.1326 154.488 63.3307C154.488 63.433 154.474 63.5508 154.447 63.684C154.419 63.8137 154.378 63.9502 154.324 64.0935C154.357 64.1346 154.397 64.1636 154.441 64.1806C154.485 64.1977 154.533 64.2062 154.585 64.2062C154.657 64.2062 154.734 64.1858 154.821 64.1448C154.909 64.1039 154.999 64.051 155.091 63.9861C155.184 63.9211 155.275 63.8477 155.368 63.7659C155.461 63.684 155.547 63.6021 155.629 63.5201C155.712 63.4382 155.785 63.3614 155.85 63.2897C155.917 63.2146 155.975 63.1515 156.019 63.1002C156.041 63.0764 156.072 63.0644 156.105 63.0644C156.152 63.0644 156.195 63.0899 156.233 63.1411C156.271 63.189 156.289 63.2573 156.289 63.3461C156.289 63.4347 156.262 63.5371 156.207 63.6533C156.157 63.7693 156.06 63.8904 155.915 64.0168C155.833 64.1055 155.74 64.2079 155.634 64.324C155.528 64.44 155.415 64.5493 155.297 64.6517C155.176 64.7541 155.052 64.8412 154.923 64.9128C154.793 64.9845 154.663 65.0204 154.533 65.0204C154.445 65.0204 154.357 65.0067 154.272 64.9793C154.19 64.9521 154.106 64.9077 154.021 64.8463C153.898 65.0374 153.758 65.2115 153.602 65.3685C153.445 65.5255 153.269 65.6604 153.074 65.773C152.882 65.8857 152.674 65.9728 152.449 66.0342C152.227 66.099 151.99 66.1315 151.738 66.1315C151.642 66.1315 151.531 66.1126 151.405 66.0751C151.279 66.0375 151.157 65.9761 151.042 65.8909C150.929 65.8021 150.833 65.6878 150.755 65.5477C150.676 65.4077 150.637 65.2372 150.637 65.0357C150.637 64.8992 150.659 64.7354 150.703 64.5441C150.748 64.353 150.814 64.1568 150.903 63.9553C150.994 63.7506 151.11 63.5492 151.247 63.3511C151.387 63.1496 151.551 62.9706 151.742 62.8135C151.934 62.653 152.153 62.525 152.398 62.4294C152.644 62.3304 152.917 62.281 153.217 62.281Z" fill="black"/>
<path d="M157.636 65.8294C157.636 65.6656 157.673 65.4982 157.744 65.3276C157.82 65.1569 157.913 64.9812 158.026 64.8001C158.14 64.6192 158.261 64.4366 158.395 64.2522C158.529 64.0645 158.655 63.8734 158.774 63.6788C158.809 63.6242 158.836 63.573 158.856 63.5251C158.877 63.4741 158.886 63.4228 158.886 63.3716C158.886 63.317 158.871 63.2726 158.84 63.2384C158.81 63.2009 158.766 63.1822 158.707 63.1822C158.567 63.1822 158.433 63.2129 158.302 63.2743C158.173 63.3324 158.048 63.4108 157.928 63.5098C157.81 63.6054 157.696 63.7164 157.586 63.8427C157.48 63.969 157.38 64.1004 157.284 64.2369C157.191 64.3701 157.104 64.5032 157.022 64.6364C156.94 64.7694 156.866 64.8906 156.797 64.9999C156.737 65.1125 156.68 65.2353 156.629 65.3685C156.577 65.5017 156.521 65.6245 156.46 65.7372C156.402 65.8498 156.335 65.9438 156.259 66.0188C156.185 66.0973 156.09 66.1367 155.978 66.1367C155.855 66.1367 155.758 66.0973 155.686 66.0188C155.615 65.9403 155.578 65.8465 155.578 65.7372C155.578 65.6757 155.601 65.5801 155.645 65.4505C155.689 65.3208 155.745 65.1706 155.814 64.9999C155.887 64.8258 155.966 64.6414 156.055 64.4468C156.144 64.2522 156.23 64.0595 156.315 63.8682C156.405 63.6772 156.487 63.4979 156.562 63.3307C156.641 63.16 156.705 63.0148 156.756 62.8955C156.819 62.7486 156.898 62.6393 156.996 62.5677C157.1 62.496 157.2 62.4602 157.299 62.4602C157.384 62.4602 157.46 62.4926 157.524 62.5575C157.592 62.6189 157.627 62.7094 157.627 62.8289C157.627 62.9177 157.606 63.0148 157.565 63.1208C157.658 63.0353 157.757 62.9432 157.863 62.8442C157.968 62.7453 158.083 62.6547 158.205 62.5729C158.331 62.4874 158.473 62.4175 158.626 62.3629C158.78 62.3082 158.951 62.281 159.143 62.281C159.239 62.281 159.328 62.2929 159.414 62.3167C159.499 62.3408 159.575 62.3783 159.639 62.4294C159.707 62.4806 159.762 62.5472 159.803 62.6291C159.847 62.7111 159.873 62.81 159.88 62.9262C159.958 62.8476 160.044 62.7708 160.136 62.6957C160.228 62.6171 160.327 62.5472 160.434 62.4858C160.542 62.4244 160.66 62.3748 160.786 62.3373C160.912 62.2997 161.052 62.281 161.206 62.281C161.318 62.281 161.426 62.2929 161.528 62.3167C161.632 62.3408 161.721 62.3816 161.8 62.4397C161.882 62.4943 161.945 62.566 161.989 62.6547C162.037 62.7434 162.062 62.8528 162.062 62.9824C162.062 63.1872 162.013 63.3818 161.917 63.5662C161.826 63.7506 161.717 63.9195 161.59 64.0732C161.549 64.1242 161.495 64.1891 161.426 64.2676C161.358 64.3462 161.291 64.4298 161.227 64.5186C161.162 64.6074 161.106 64.6995 161.057 64.7951C161.01 64.8872 160.985 64.9743 160.985 65.0563C160.985 65.1314 161.008 65.1791 161.052 65.1996C161.101 65.22 161.162 65.2303 161.236 65.2303C161.381 65.2303 161.536 65.1876 161.703 65.1023C161.87 65.0169 162.033 64.9146 162.189 64.7951C162.349 64.6721 162.498 64.5459 162.635 64.4161C162.775 64.2829 162.886 64.1721 162.968 64.0833C162.988 64.0595 163.012 64.0423 163.039 64.0321C163.067 64.0219 163.094 64.0168 163.121 64.0168C163.182 64.0168 163.237 64.0441 163.285 64.0987C163.336 64.1533 163.361 64.225 163.361 64.3138C163.361 64.3821 163.342 64.4572 163.301 64.5391C163.26 64.621 163.19 64.7012 163.091 64.7797C162.905 64.9572 162.717 65.1279 162.522 65.2917C162.331 65.4521 162.136 65.5955 161.939 65.7218C161.744 65.8448 161.548 65.9438 161.349 66.0188C161.154 66.0939 160.96 66.1315 160.765 66.1315C160.513 66.1315 160.309 66.0718 160.151 65.9523C159.997 65.8328 159.921 65.6434 159.921 65.3839C159.921 65.2132 159.953 65.0528 160.019 64.9026C160.082 64.7524 160.163 64.609 160.259 64.4725C160.355 64.3325 160.455 64.1977 160.561 64.068C160.666 63.9383 160.759 63.8085 160.838 63.6788C160.871 63.6242 160.899 63.573 160.92 63.5251C160.94 63.4741 160.95 63.4228 160.95 63.3716C160.95 63.317 160.935 63.2726 160.903 63.2384C160.873 63.2009 160.829 63.1822 160.771 63.1822C160.631 63.1822 160.496 63.2129 160.367 63.2743C160.236 63.3324 160.111 63.4108 159.993 63.5098C159.873 63.6054 159.759 63.7164 159.649 63.8427C159.544 63.969 159.442 64.1004 159.347 64.2369C159.255 64.3701 159.169 64.5032 159.087 64.6364C159.005 64.7694 158.929 64.8906 158.86 64.9999C158.799 65.1125 158.743 65.2353 158.691 65.3685C158.641 65.5017 158.585 65.6245 158.523 65.7372C158.465 65.8498 158.398 65.9438 158.324 66.0188C158.248 66.0973 158.155 66.1367 158.042 66.1367C158.001 66.1367 157.956 66.128 157.909 66.111C157.861 66.0973 157.816 66.0769 157.775 66.0496C157.738 66.0222 157.705 65.9898 157.678 65.9523C157.655 65.9147 157.641 65.8737 157.636 65.8294Z" fill="black"/>
<path d="M168.83 63.5969C168.878 63.5695 168.922 63.5473 168.963 63.5303C169.004 63.5133 169.044 63.5048 169.082 63.5048C169.156 63.5048 169.213 63.5338 169.251 63.5917C169.287 63.6464 169.307 63.7147 169.307 63.7966C169.307 63.8853 169.283 63.9759 169.235 64.068C169.19 64.1601 169.121 64.2369 169.03 64.2985C168.665 64.5715 168.339 64.8206 168.053 65.0459C167.765 65.2712 167.493 65.4658 167.238 65.6297C166.986 65.7901 166.738 65.9147 166.496 66.0035C166.253 66.0923 165.993 66.1367 165.718 66.1367C165.458 66.1367 165.256 66.0888 165.113 65.9932C164.973 65.8977 164.903 65.7662 164.903 65.599C164.903 65.5853 164.903 65.5733 164.903 65.5631C164.903 65.5494 164.904 65.5341 164.908 65.517C164.921 65.4146 164.974 65.2969 165.067 65.1637C165.158 65.0306 165.269 64.8924 165.4 64.749C165.529 64.6055 165.668 64.4605 165.815 64.3138C165.961 64.167 166.096 64.0288 166.219 63.8989C166.346 63.7659 166.449 63.6446 166.531 63.5355C166.613 63.4262 166.654 63.3374 166.654 63.2691C166.654 63.2282 166.637 63.1959 166.603 63.1718C166.569 63.148 166.513 63.1361 166.434 63.1361C166.297 63.1361 166.156 63.1668 166.01 63.2282C165.865 63.2863 165.722 63.3664 165.579 63.4689C165.44 63.5679 165.301 63.6822 165.164 63.812C165.031 63.9417 164.904 64.0765 164.786 64.2165C164.669 64.3564 164.562 64.4981 164.462 64.6414C164.368 64.7814 164.286 64.9111 164.217 65.0306C164.196 65.0681 164.167 65.121 164.129 65.1893C164.093 65.2575 164.052 65.3345 164.008 65.4197C163.962 65.505 163.915 65.5938 163.863 65.6859C163.816 65.7747 163.772 65.8601 163.731 65.9421C163.69 66.0205 163.652 66.0905 163.618 66.152C163.586 66.2168 163.565 66.2612 163.551 66.285C163.535 66.3157 163.506 66.3738 163.465 66.4591C163.427 66.5445 163.383 66.6435 163.331 66.7561C163.279 66.8723 163.225 66.9934 163.167 67.1198C163.112 67.2459 163.059 67.3654 163.009 67.4781C162.96 67.5907 162.918 67.6897 162.881 67.7751C162.843 67.8604 162.819 67.9185 162.808 67.9492C162.775 68.038 162.735 68.1216 162.691 68.2002C162.644 68.2786 162.591 68.3469 162.533 68.4049C162.471 68.4664 162.402 68.5141 162.328 68.5483C162.249 68.5858 162.162 68.6045 162.066 68.6045C161.943 68.6045 161.843 68.579 161.764 68.5278C161.682 68.48 161.641 68.3861 161.641 68.2462C161.641 68.178 161.651 68.1079 161.673 68.0363C161.692 67.9645 161.718 67.8929 161.749 67.8212C161.779 67.7529 161.812 67.6847 161.846 67.6164C161.876 67.5515 161.907 67.4884 161.933 67.4269C162.118 67.0856 162.305 66.7425 162.496 66.3977C162.688 66.0564 162.87 65.7185 163.044 65.3839C163.222 65.0459 163.386 64.7148 163.536 64.3906C163.687 64.0663 163.81 63.7556 163.91 63.4587C163.938 63.3971 163.974 63.3102 164.023 63.1975C164.07 63.0849 164.125 62.9739 164.185 62.8646C164.248 62.7555 164.316 62.6615 164.391 62.5831C164.47 62.5011 164.553 62.4602 164.641 62.4602C164.778 62.4602 164.877 62.4875 164.939 62.542C165 62.5933 165.031 62.6702 165.031 62.7725C165.031 62.793 165.028 62.8254 165.022 62.8698C165.014 62.9142 165.005 62.9619 164.996 63.0131C164.985 63.061 164.973 63.1071 164.959 63.1515C164.949 63.1959 164.939 63.2282 164.929 63.2488C165.055 63.1326 165.192 63.0183 165.338 62.9057C165.485 62.7895 165.637 62.6855 165.794 62.5933C165.95 62.5011 166.111 62.426 166.276 62.368C166.44 62.31 166.603 62.281 166.767 62.281C166.879 62.281 166.99 62.2945 167.1 62.3219C167.212 62.3493 167.311 62.3902 167.396 62.4449C167.486 62.496 167.557 62.5625 167.612 62.6445C167.667 62.7231 167.694 62.8152 167.694 62.921C167.694 63.061 167.651 63.2112 167.566 63.3716C167.484 63.5286 167.379 63.6873 167.253 63.8477C167.127 64.0082 166.99 64.1653 166.844 64.3188C166.697 64.469 166.558 64.6074 166.429 64.7337C166.303 64.8565 166.195 64.9623 166.107 65.0511C166.02 65.1364 165.976 65.1945 165.973 65.2252C165.973 65.2661 165.988 65.3003 166.019 65.3276C166.051 65.3515 166.101 65.3633 166.172 65.3633C166.232 65.3633 166.317 65.3361 166.429 65.2816C166.542 65.2268 166.698 65.133 166.9 64.9999C167.104 64.8634 167.363 64.6825 167.673 64.4572C167.987 64.2284 168.374 63.9417 168.83 63.5969Z" fill="black"/>
<path d="M171.23 62.9823C171.212 62.979 171.197 62.9772 171.183 62.9772C171.17 62.9772 171.154 62.9772 171.138 62.9772C171.008 62.9772 170.887 63.0029 170.774 63.0541C170.662 63.1053 170.557 63.1736 170.461 63.2589C170.37 63.3408 170.286 63.4346 170.21 63.5406C170.139 63.6464 170.075 63.7522 170.016 63.858C169.958 63.9603 169.909 64.0594 169.868 64.1549C169.83 64.2505 169.801 64.3308 169.78 64.3955C169.9 64.3341 170.023 64.2642 170.149 64.1857C170.279 64.1071 170.4 64.032 170.513 63.9603C170.625 63.8887 170.723 63.8238 170.805 63.7658C170.89 63.7078 170.949 63.6686 170.984 63.648C171.138 63.5524 171.244 63.4636 171.302 63.3817C171.36 63.2964 171.388 63.223 171.388 63.1616C171.388 63.1103 171.372 63.0694 171.337 63.0387C171.306 63.008 171.271 62.9892 171.23 62.9823ZM171.414 62.2758C171.697 62.2758 171.908 62.344 172.05 62.4805C172.19 62.617 172.259 62.8066 172.259 63.0489C172.259 63.1923 172.221 63.3425 172.147 63.4995C172.071 63.6565 171.942 63.8169 171.758 63.9808C171.572 64.1413 171.325 64.3069 171.014 64.4774C170.707 64.6448 170.321 64.8137 169.858 64.9844C169.874 65.0834 169.928 65.162 170.016 65.2199C170.105 65.2746 170.222 65.3018 170.37 65.3018C170.526 65.3018 170.694 65.2797 170.872 65.2353C171.052 65.1875 171.23 65.1278 171.404 65.0562C171.581 64.9844 171.753 64.9077 171.92 64.8257C172.088 64.7403 172.238 64.6602 172.372 64.5851C172.509 64.51 172.621 64.4451 172.709 64.3905C172.802 64.3359 172.863 64.3017 172.893 64.288C172.924 64.2675 172.951 64.2557 172.976 64.2522C173.003 64.2488 173.027 64.2471 173.047 64.2471C173.088 64.2471 173.123 64.2573 173.15 64.2778C173.178 64.2949 173.199 64.3171 173.216 64.3444C173.237 64.3683 173.251 64.3955 173.257 64.4264C173.264 64.4536 173.267 64.4774 173.267 64.498C173.267 64.5287 173.264 64.5662 173.257 64.6106C173.251 64.6517 173.225 64.6994 173.181 64.754C173.164 64.7711 173.105 64.8172 173.006 64.8923C172.912 64.9674 172.787 65.0562 172.632 65.1585C172.478 65.261 172.301 65.3701 172.095 65.4862C171.893 65.5989 171.679 65.703 171.449 65.7985C171.224 65.8941 170.989 65.9727 170.744 66.0341C170.498 66.0989 170.256 66.1314 170.016 66.1314C169.812 66.1314 169.628 66.0922 169.468 66.0136C169.312 65.9352 169.177 65.8294 169.064 65.6962C168.955 65.563 168.871 65.4095 168.813 65.2353C168.755 65.0612 168.727 64.8786 168.727 64.6874C168.727 64.5407 168.755 64.3802 168.813 64.2061C168.871 64.0287 168.955 63.8511 169.064 63.6736C169.173 63.4962 169.306 63.3238 169.464 63.1564C169.623 62.9858 169.803 62.8356 170 62.7058C170.198 62.5761 170.416 62.472 170.651 62.3936C170.89 62.315 171.144 62.2758 171.414 62.2758Z" fill="black"/>
<path d="M174.928 63.1564C174.802 63.4022 174.681 63.6429 174.569 63.8785C174.456 64.1107 174.35 64.3256 174.251 64.5237C174.21 64.6055 174.169 64.7011 174.128 64.8104C174.092 64.9162 174.072 65.01 174.072 65.0919C174.072 65.1398 174.083 65.1774 174.104 65.2046C174.127 65.2319 174.165 65.2456 174.216 65.2456C174.288 65.2456 174.377 65.2251 174.487 65.1842C174.596 65.1398 174.715 65.0834 174.841 65.0152C174.967 64.9436 175.1 64.8633 175.239 64.7745C175.379 64.6824 175.516 64.5884 175.65 64.4928C175.787 64.3939 175.916 64.2966 176.039 64.2011C176.162 64.102 176.27 64.0115 176.366 63.9296C176.421 63.8921 176.472 63.8733 176.519 63.8733C176.579 63.8733 176.626 63.8989 176.664 63.9501C176.7 64.0014 176.72 64.0663 176.72 64.1447C176.72 64.2233 176.7 64.3034 176.664 64.3853C176.626 64.4673 176.557 64.5476 176.459 64.626C176.237 64.8274 176.012 65.0187 175.782 65.1996C175.557 65.3805 175.332 65.5408 175.107 65.6809C174.885 65.8174 174.665 65.9267 174.446 66.0085C174.228 66.0904 174.016 66.1314 173.812 66.1314C173.675 66.1314 173.561 66.1126 173.468 66.075C173.376 66.041 173.301 65.9931 173.243 65.9317C173.189 65.8669 173.149 65.7935 173.125 65.7116C173.102 65.6261 173.09 65.5357 173.09 65.4402C173.09 65.2695 173.119 65.0919 173.176 64.9077C173.234 64.7233 173.3 64.5577 173.371 64.411C173.473 64.1993 173.575 63.9893 173.674 63.7812C173.775 63.573 173.874 63.3732 173.97 63.1821H173.75C173.558 63.1821 173.427 63.1514 173.356 63.0898C173.284 63.0284 173.248 62.9585 173.248 62.8801C173.248 62.8459 173.259 62.805 173.278 62.7571C173.303 62.7058 173.335 62.6598 173.376 62.6189C173.42 62.5745 173.473 62.5369 173.535 62.5062C173.596 62.4755 173.666 62.4602 173.745 62.4602H174.298L175.378 60.3147C175.446 60.1849 175.53 60.0928 175.629 60.0382C175.732 59.9801 175.837 59.9511 175.946 59.9511C176.05 59.9511 176.142 59.9785 176.228 60.033C176.314 60.0876 176.357 60.1781 176.357 60.3044C176.357 60.3693 176.342 60.4359 176.31 60.5042C176.282 60.5691 176.246 60.6458 176.197 60.7346C176.167 60.7925 176.129 60.8626 176.085 60.9446C176.041 61.023 175.992 61.1083 175.942 61.2006C175.893 61.2893 175.843 61.3831 175.788 61.4821C175.736 61.5811 175.685 61.6767 175.635 61.7688C175.518 61.9874 175.396 62.2177 175.265 62.4602H176.934C177.016 62.4602 177.093 62.4652 177.159 62.4755C177.228 62.4824 177.287 62.4994 177.334 62.5266C177.386 62.5506 177.424 62.5847 177.451 62.6291C177.479 62.6735 177.492 62.7332 177.492 62.8083C177.492 62.8459 177.486 62.8834 177.473 62.921C177.462 62.9585 177.441 62.9927 177.406 63.0234C177.375 63.0541 177.331 63.0797 177.273 63.1002C177.219 63.1207 177.146 63.1342 177.058 63.1411L174.928 63.1564Z" fill="black"/>
<path d="M178.902 62.9823C178.885 62.979 178.87 62.9772 178.857 62.9772C178.843 62.9772 178.828 62.9772 178.809 62.9772C178.68 62.9772 178.559 63.0029 178.446 63.0541C178.334 63.1053 178.23 63.1736 178.134 63.2589C178.042 63.3408 177.958 63.4346 177.884 63.5406C177.812 63.6464 177.747 63.7522 177.689 63.858C177.631 63.9603 177.581 64.0594 177.54 64.1549C177.502 64.2505 177.473 64.3308 177.453 64.3955C177.572 64.3341 177.695 64.2642 177.821 64.1857C177.952 64.1071 178.072 64.032 178.185 63.9603C178.299 63.8887 178.396 63.8238 178.477 63.7658C178.563 63.7078 178.622 63.6686 178.656 63.648C178.809 63.5524 178.916 63.4636 178.974 63.3817C179.031 63.2964 179.06 63.223 179.06 63.1616C179.06 63.1103 179.044 63.0694 179.01 63.0387C178.98 63.008 178.943 62.9892 178.902 62.9823ZM179.086 62.2758C179.37 62.2758 179.582 62.344 179.722 62.4805C179.861 62.617 179.931 62.8066 179.931 63.0489C179.931 63.1923 179.893 63.3425 179.819 63.4995C179.744 63.6565 179.614 63.8169 179.43 63.9808C179.246 64.1413 178.998 64.3069 178.688 64.4774C178.379 64.6448 177.995 64.8137 177.529 64.9844C177.548 65.0834 177.599 65.162 177.689 65.2199C177.777 65.2746 177.896 65.3018 178.042 65.3018C178.198 65.3018 178.366 65.2797 178.543 65.2353C178.724 65.1875 178.902 65.1278 179.077 65.0562C179.253 64.9844 179.427 64.9077 179.594 64.8257C179.761 64.7403 179.912 64.6602 180.044 64.5851C180.181 64.51 180.293 64.4451 180.381 64.3905C180.474 64.3359 180.535 64.3017 180.567 64.288C180.597 64.2675 180.625 64.2557 180.649 64.2522C180.676 64.2488 180.699 64.2471 180.72 64.2471C180.761 64.2471 180.795 64.2573 180.822 64.2778C180.85 64.2949 180.872 64.3171 180.889 64.3444C180.909 64.3683 180.923 64.3955 180.93 64.4264C180.936 64.4536 180.941 64.4774 180.941 64.498C180.941 64.5287 180.936 64.5662 180.93 64.6106C180.923 64.6517 180.898 64.6994 180.853 64.754C180.836 64.7711 180.778 64.8172 180.679 64.8923C180.584 64.9674 180.459 65.0562 180.305 65.1585C180.152 65.261 179.972 65.3701 179.767 65.4862C179.567 65.5989 179.351 65.703 179.123 65.7985C178.898 65.8941 178.662 65.9727 178.416 66.0341C178.169 66.0989 177.928 66.1314 177.689 66.1314C177.484 66.1314 177.301 66.0922 177.14 66.0136C176.984 65.9352 176.848 65.8294 176.736 65.6962C176.626 65.563 176.543 65.4095 176.485 65.2353C176.427 65.0612 176.398 64.8786 176.398 64.6874C176.398 64.5407 176.427 64.3802 176.485 64.2061C176.543 64.0287 176.626 63.8511 176.736 63.6736C176.845 63.4962 176.979 63.3238 177.136 63.1564C177.297 62.9858 177.475 62.8356 177.674 62.7058C177.871 62.5761 178.087 62.472 178.323 62.3936C178.563 62.315 178.817 62.2758 179.086 62.2758Z" fill="black"/>
<path d="M181.89 62.8955C181.959 62.7486 182.046 62.6393 182.147 62.5677C182.249 62.496 182.35 62.4602 182.45 62.4602C182.532 62.4602 182.605 62.4909 182.669 62.5524C182.734 62.6104 182.766 62.6974 182.766 62.8135C182.766 62.8579 182.762 62.9057 182.751 62.9569C182.742 63.0081 182.722 63.0627 182.695 63.1208C182.771 63.0251 182.877 62.9278 183.017 62.8289C183.158 62.7264 183.312 62.636 183.479 62.5575C183.649 62.4756 183.823 62.409 184 62.3578C184.181 62.3065 184.352 62.281 184.513 62.281C184.694 62.281 184.844 62.3254 184.963 62.414C185.086 62.4995 185.148 62.6462 185.148 62.8544C185.148 62.9773 185.128 63.1054 185.092 63.2384C185.054 63.3716 185.004 63.5048 184.943 63.6379C184.885 63.7709 184.818 63.9024 184.744 64.0321C184.671 64.1584 184.599 64.2779 184.528 64.3906C184.457 64.5032 184.39 64.6074 184.329 64.7028C184.271 64.7951 184.224 64.8719 184.19 64.9333C184.146 64.9879 184.124 65.0511 184.124 65.1227C184.124 65.1501 184.133 65.1739 184.149 65.1944C184.166 65.215 184.194 65.2252 184.232 65.2252C184.254 65.2252 184.282 65.2235 184.314 65.22C184.344 65.2131 184.382 65.1945 184.426 65.1637C184.61 65.0955 184.799 65.0101 184.989 64.9077C185.183 64.8053 185.37 64.6978 185.547 64.5852C185.724 64.469 185.887 64.3547 186.033 64.2421C186.183 64.1261 186.308 64.0219 186.407 63.9297C186.434 63.9058 186.462 63.8888 186.489 63.8786C186.516 63.8682 186.542 63.8632 186.567 63.8632C186.624 63.8632 186.668 63.8853 186.699 63.9297C186.734 63.974 186.75 64.0304 186.75 64.0987C186.75 64.2045 186.716 64.3223 186.649 64.452C186.583 64.5817 186.478 64.7028 186.335 64.8155C186.141 64.9555 185.962 65.0835 185.797 65.1996C185.638 65.3156 185.472 65.4249 185.302 65.5272C185.135 65.6262 184.954 65.7201 184.759 65.8089C184.568 65.8942 184.343 65.9745 184.083 66.0496C183.994 66.0769 183.912 66.0973 183.836 66.111C183.765 66.1247 183.698 66.1315 183.637 66.1315C183.456 66.1315 183.322 66.0819 183.237 65.983C183.155 65.8805 183.114 65.739 183.114 65.5579C183.114 65.5341 183.114 65.5119 183.114 65.4915C183.119 65.4675 183.122 65.4419 183.125 65.4146C183.132 65.3088 183.16 65.1928 183.207 65.0665C183.259 64.9401 183.318 64.8105 183.386 64.6773C183.458 64.5441 183.534 64.4128 183.611 64.2829C183.69 64.1499 183.762 64.0253 183.827 63.9093C183.896 63.7898 183.952 63.684 183.996 63.5917C184.04 63.4996 184.063 63.4245 184.063 63.3664C184.063 63.3153 184.048 63.2726 184.016 63.2384C183.988 63.2009 183.946 63.1822 183.888 63.1822C183.669 63.1822 183.461 63.2469 183.263 63.3768C183.069 63.5064 182.886 63.6668 182.716 63.8581C182.544 64.0458 182.388 64.2454 182.245 64.4572C182.102 64.6688 181.974 64.8582 181.866 65.0254C181.798 65.1381 181.734 65.2594 181.676 65.389C181.621 65.5154 181.564 65.6348 181.501 65.7475C181.44 65.8566 181.371 65.9471 181.292 66.0189C181.217 66.0939 181.121 66.1315 181.006 66.1315C180.886 66.1315 180.791 66.0939 180.724 66.0189C180.656 65.9438 180.621 65.8516 180.621 65.7423C180.621 65.6843 180.645 65.5905 180.693 65.4606C180.741 65.331 180.802 65.1808 180.878 65.0101C180.952 64.8395 181.036 64.6568 181.129 64.4622C181.223 64.2642 181.317 64.0697 181.41 63.8786C181.506 63.684 181.596 63.5013 181.681 63.3307C181.767 63.16 181.837 63.0148 181.89 62.8955Z" fill="black"/>
<path d="M189.514 62.752C189.514 62.8579 189.502 62.9756 189.479 63.1054C189.455 63.2316 189.415 63.3511 189.36 63.4637C189.306 63.5764 189.236 63.6703 189.151 63.7454C189.065 63.8205 188.959 63.8581 188.833 63.8581C188.764 63.8581 188.72 63.8477 188.701 63.8273C188.682 63.8068 188.675 63.7709 188.675 63.7197C188.675 63.689 188.675 63.6446 188.675 63.5867C188.678 63.5251 188.679 63.4672 188.679 63.4125C188.679 63.3511 188.672 63.2998 188.653 63.2589C188.637 63.2146 188.594 63.1924 188.526 63.1924C188.447 63.1924 188.358 63.2231 188.26 63.2845C188.164 63.3426 188.067 63.4193 187.968 63.5149C187.872 63.6106 187.778 63.7197 187.687 63.8427C187.594 63.9622 187.51 64.085 187.436 64.2113C187.364 64.3342 187.305 64.4537 187.261 64.5698C187.22 64.6858 187.2 64.7848 187.2 64.8667C187.2 64.9862 187.241 65.0801 187.323 65.1484C187.408 65.2166 187.522 65.2507 187.665 65.2507C187.819 65.2507 187.983 65.2252 188.158 65.1739C188.331 65.1227 188.504 65.0579 188.675 64.9793C188.848 64.9009 189.015 64.8155 189.176 64.7233C189.336 64.6312 189.482 64.5441 189.611 64.4622C189.745 64.3769 189.856 64.3051 189.944 64.2472C190.034 64.1858 190.092 64.1483 190.119 64.1346C190.174 64.1072 190.224 64.0935 190.272 64.0935C190.313 64.0935 190.347 64.1039 190.374 64.1242C190.405 64.1414 190.429 64.1636 190.446 64.1908C190.462 64.2147 190.475 64.2421 190.482 64.2728C190.488 64.3001 190.493 64.324 190.493 64.3445C190.493 64.3752 190.488 64.4128 190.482 64.4572C190.475 64.4981 190.449 64.5459 190.405 64.6005C190.388 64.621 190.332 64.6739 190.236 64.7592C190.143 64.8412 190.023 64.9385 189.873 65.0511C189.725 65.1637 189.555 65.2849 189.36 65.4146C189.169 65.5409 188.964 65.657 188.742 65.7629C188.523 65.8687 188.296 65.9556 188.061 66.0239C187.825 66.0956 187.592 66.1315 187.364 66.1315C187.189 66.1315 187.034 66.1041 186.898 66.0496C186.764 65.995 186.651 65.9216 186.56 65.8294C186.467 65.7338 186.397 65.6228 186.35 65.4965C186.302 65.3702 186.277 65.2372 186.277 65.0972C186.277 64.9436 186.314 64.7677 186.385 64.5698C186.457 64.3684 186.556 64.1636 186.683 63.9553C186.809 63.7471 186.957 63.5423 187.129 63.3409C187.299 63.1395 187.483 62.9602 187.68 62.8032C187.883 62.6462 188.091 62.52 188.305 62.4244C188.524 62.3287 188.745 62.281 188.967 62.281C189.041 62.281 189.111 62.2895 189.176 62.3066C189.245 62.3236 189.303 62.3509 189.35 62.3885C189.401 62.4227 189.441 62.4704 189.468 62.5318C189.499 62.5933 189.514 62.6667 189.514 62.752Z" fill="black"/>
<path d="M192.73 62.9823C192.714 62.979 192.698 62.9772 192.685 62.9772C192.671 62.9772 192.654 62.9772 192.638 62.9772C192.508 62.9772 192.387 63.0029 192.274 63.0541C192.162 63.1053 192.057 63.1736 191.963 63.2589C191.87 63.3408 191.786 63.4346 191.712 63.5406C191.639 63.6464 191.575 63.7522 191.517 63.858C191.458 63.9603 191.409 64.0594 191.368 64.1549C191.33 64.2505 191.301 64.3308 191.282 64.3955C191.4 64.3341 191.523 64.2642 191.649 64.1857C191.779 64.1071 191.9 64.032 192.013 63.9603C192.125 63.8887 192.223 63.8238 192.305 63.7658C192.39 63.7078 192.451 63.6686 192.484 63.648C192.638 63.5524 192.744 63.4636 192.802 63.3817C192.86 63.2964 192.888 63.223 192.888 63.1616C192.888 63.1103 192.872 63.0694 192.838 63.0387C192.806 63.008 192.771 62.9892 192.73 62.9823ZM192.914 62.2758C193.197 62.2758 193.41 62.344 193.55 62.4805C193.69 62.617 193.759 62.8066 193.759 63.0489C193.759 63.1923 193.721 63.3425 193.647 63.4995C193.571 63.6565 193.442 63.8169 193.258 63.9808C193.074 64.1413 192.826 64.3069 192.514 64.4774C192.207 64.6448 191.823 64.8137 191.358 64.9844C191.374 65.0834 191.428 65.162 191.517 65.2199C191.605 65.2746 191.722 65.3018 191.87 65.3018C192.026 65.3018 192.194 65.2797 192.372 65.2353C192.552 65.1875 192.73 65.1278 192.904 65.0562C193.081 64.9844 193.255 64.9077 193.422 64.8257C193.589 64.7403 193.738 64.6602 193.872 64.5851C194.009 64.51 194.121 64.4451 194.209 64.3905C194.302 64.3359 194.363 64.3017 194.395 64.288C194.425 64.2675 194.453 64.2557 194.475 64.2522C194.503 64.2488 194.527 64.2471 194.548 64.2471C194.59 64.2471 194.623 64.2573 194.65 64.2778C194.678 64.2949 194.7 64.3171 194.717 64.3444C194.737 64.3683 194.751 64.3955 194.758 64.4264C194.764 64.4536 194.767 64.4774 194.767 64.498C194.767 64.5287 194.764 64.5662 194.758 64.6106C194.751 64.6517 194.725 64.6994 194.681 64.754C194.664 64.7711 194.606 64.8172 194.507 64.8923C194.412 64.9674 194.287 65.0562 194.133 65.1585C193.98 65.261 193.801 65.3701 193.595 65.4862C193.395 65.5989 193.179 65.703 192.951 65.7985C192.724 65.8941 192.49 65.9727 192.244 66.0341C191.998 66.0989 191.756 66.1314 191.517 66.1314C191.312 66.1314 191.13 66.0922 190.968 66.0136C190.812 65.9352 190.677 65.8294 190.564 65.6962C190.455 65.563 190.371 65.4095 190.313 65.2353C190.255 65.0612 190.227 64.8786 190.227 64.6874C190.227 64.5407 190.255 64.3802 190.313 64.2061C190.371 64.0287 190.455 63.8511 190.564 63.6736C190.673 63.4962 190.807 63.3238 190.964 63.1564C191.123 62.9858 191.303 62.8356 191.5 62.7058C191.7 62.5761 191.915 62.472 192.151 62.3936C192.39 62.315 192.645 62.2758 192.914 62.2758Z" fill="black"/>
<path d="M200.78 65.2917C200.767 65.3975 200.735 65.4981 200.683 65.5937C200.632 65.6894 200.569 65.7746 200.495 65.8497C200.419 65.9215 200.334 65.9777 200.238 66.0188C200.142 66.0632 200.043 66.0854 199.941 66.0854C199.788 66.0854 199.665 66.0358 199.572 65.9368C199.481 65.8344 199.434 65.7099 199.434 65.563C199.434 65.4504 199.458 65.3429 199.505 65.2404C199.554 65.138 199.616 65.0475 199.695 64.9691C199.777 64.8871 199.87 64.8222 199.972 64.7745C200.074 64.7268 200.18 64.7027 200.289 64.7027C200.443 64.7027 200.565 64.7506 200.653 64.8462C200.741 64.9417 200.787 65.0629 200.787 65.2097C200.787 65.2234 200.787 65.2371 200.787 65.2506C200.787 65.261 200.784 65.2746 200.78 65.2917ZM203.193 59.859C203.005 60.2174 202.834 60.54 202.681 60.8267C202.527 61.1101 202.377 61.3864 202.229 61.6561C202.083 61.9258 201.933 62.204 201.779 62.4909C201.626 62.7741 201.455 63.095 201.267 63.4535C201.215 63.5524 201.142 63.6275 201.047 63.6787C200.951 63.7265 200.863 63.7505 200.78 63.7505C200.712 63.7505 200.656 63.7368 200.612 63.7095C200.571 63.6787 200.551 63.6327 200.551 63.5713C200.551 63.5302 200.559 63.491 200.575 63.4535C200.679 63.2145 200.774 62.9944 200.863 62.7929C200.951 62.5882 201.034 62.3918 201.113 62.204C201.196 62.0163 201.275 61.8337 201.349 61.6561C201.424 61.4787 201.501 61.2978 201.58 61.1134C201.662 60.9257 201.747 60.7294 201.835 60.5247C201.924 60.3197 202.019 60.0979 202.123 59.859C202.15 59.7976 202.187 59.7428 202.235 59.6951C202.285 59.6474 202.345 59.608 202.409 59.5773C202.474 59.5432 202.542 59.5194 202.614 59.5057C202.685 59.4886 202.757 59.48 202.828 59.48C202.938 59.48 203.03 59.5005 203.105 59.5415C203.184 59.5824 203.223 59.6474 203.223 59.7361C203.223 59.7737 203.213 59.8146 203.193 59.859Z" fill="black"/>
</svg>
