<?xml version="1.0" encoding="UTF-8"?>
<svg version="1.1" xmlns="http://www.w3.org/2000/svg" width="1024" height="1024">
<path d="M0 0 C3.2637386 2.03384689 6.25477001 4.3035741 9 7 C9 7.66 9 8.32 9 9 C9.58193115 9.25523438 10.1638623 9.51046875 10.76342773 9.7734375 C13.22640403 11.12416263 14.82791981 12.61547385 16.78515625 14.625 C17.48060547 15.33140625 18.17605469 16.0378125 18.89257812 16.765625 C19.60865234 17.50296875 20.32472656 18.2403125 21.0625 19 C22.48859839 20.46056988 23.91689484 21.91899767 25.34765625 23.375 C26.29137085 24.34566406 26.29137085 24.34566406 27.25415039 25.3359375 C29.10051934 27.1916303 29.10051934 27.1916303 32 29 C32 29.66 32 30.32 32 31 C32.56203125 31.23332031 33.1240625 31.46664062 33.703125 31.70703125 C36.56734142 33.31937076 38.47252021 35.3193562 40.75 37.6875 C43.68598169 40.68758609 46.60628954 43.60321813 49.8125 46.3125 C54.18538907 50.04675213 58.16911702 54.14247456 62.20874023 58.22827148 C65.75344654 61.79779125 69.38383597 65.1869307 73.22265625 68.44140625 C75.76681354 70.67243649 78.11034248 73.08365716 80.45703125 75.51953125 C82.13707372 77.21835505 82.13707372 77.21835505 85 79 C85 79.66 85 80.32 85 81 C85.55171875 81.22300781 86.1034375 81.44601563 86.671875 81.67578125 C89.7305676 83.41554097 91.8073812 85.65764482 94.25 88.1875 C97.34612359 91.38652943 100.45267774 94.42917983 103.828125 97.33203125 C109.04400554 101.84187775 113.8161336 106.76724714 118.64453125 111.68359375 C122.67562541 115.75890466 126.79771943 119.62703245 131.14257812 123.36523438 C133.89223148 125.78527629 136.4444069 128.37837764 139 131 C142.92788291 134.98227374 146.93201386 138.77492314 151.18359375 142.4140625 C160.09740123 150.19687075 160.09740123 150.19687075 162 155 C161.85856953 158.96005316 161.60244891 161.23689804 159.125 164.375 C154.22464592 168.12232959 148.09384321 167.3657431 142.1875 167.5625 C140.95749268 167.6049585 139.72748535 167.64741699 138.46020508 167.69116211 C118.65066501 168.31168209 98.81628127 168.08358045 79 168 C79.00785522 169.0355603 79.00785522 169.0355603 79.01586914 170.09204102 C79.03677867 173.24885126 79.04970442 176.40564686 79.0625 179.5625 C79.07087891 180.64853516 79.07925781 181.73457031 79.08789062 182.85351562 C79.10464581 188.36597213 78.87684 193.56359201 78 199 C78.29868656 201.00546689 78.63371323 203.00577205 79 205 C79.08734122 207.67361171 79.04613994 210.32388341 79 213 C78.34 213 77.68 213 77 213 C77.16371094 214.24346191 77.32742188 215.48692383 77.49609375 216.76806641 C78.12153378 222.42418976 78.10795279 228.0264149 78.0625 233.7109375 C78.05682007 235.34586655 78.05682007 235.34586655 78.05102539 237.01382446 C78.03888812 240.46759142 78.02024516 243.92127165 78 247.375 C77.97345415 251.94531007 77.95346201 256.51557963 77.9375 261.0859375 C77.92920166 262.13590912 77.92090332 263.18588074 77.91235352 264.26766968 C77.90739868 265.72531235 77.90739868 265.72531235 77.90234375 267.21240234 C77.89448853 268.49405777 77.89448853 268.49405777 77.88647461 269.80160522 C77.91116056 272.17828505 77.91116056 272.17828505 79 275 C78.7667061 276.62711605 78.52870543 278.25372577 78.26443481 279.87609863 C77.72832578 284.18204721 77.87958509 288.52692462 77.90234375 292.859375 C77.9037587 293.88556946 77.90517365 294.91176392 77.90663147 295.96905518 C77.91220097 299.22940053 77.92473991 302.48967565 77.9375 305.75 C77.94251966 307.95703025 77.94708175 310.16406158 77.95117188 312.37109375 C77.96097958 317.21476203 77.97517142 322.05839447 77.99327087 326.90203857 C78.00300847 329.93796081 77.97465656 332.07603031 77 335 C77.66 335.33 78.32 335.66 79 336 C78.34 336 77.68 336 77 336 C77 336.66 77 337.32 77 338 C77.66 338.33 78.32 338.66 79 339 C78.34 339 77.68 339 77 339 C77.16302518 340.16703964 77.32605036 341.33407928 77.49401569 342.53648376 C78.25819577 349.47989983 78.1224789 356.44168339 78.0957489 363.41625977 C78.09348401 364.98188312 78.09166108 366.54750717 78.09023982 368.11313152 C78.08504264 372.39995112 78.07348779 376.68673327 78.06084073 380.97353649 C78.04827836 385.60375005 78.0415837 390.23397275 78.03408813 394.86419678 C78.01840742 403.93326647 77.99706921 413.00231433 77.97351011 422.07136667 C77.9543675 429.45222774 77.93688701 436.83309089 77.92057228 444.21395874 C77.87407251 465.17309301 77.82340723 486.13221099 77.76722922 507.09132159 C77.76420227 508.22069718 77.76117532 509.35007278 77.75805664 510.51367188 C77.7535094 512.20982323 77.7535094 512.20982323 77.74887029 513.94024026 C77.70008811 532.22950272 77.66109749 550.51877099 77.62663569 568.80806553 C77.5910801 587.61980838 77.54823527 606.43152257 77.49788028 625.24323177 C77.46978945 635.79114858 77.44459648 646.339053 77.4272213 656.88699341 C77.41235279 665.87633904 77.39061728 674.86563713 77.36034616 683.85494459 C77.34512361 688.43116412 77.33285325 693.00733533 77.32924461 697.58358002 C77.27137555 761.22932605 68.55175039 820.68073115 23.34082031 868.57128906 C22.12683419 869.86485184 20.93324909 871.1774863 19.7421875 872.4921875 C-21.03926535 915.83136213 -86.99732385 929.60421634 -144 932 C-150.47805868 932.1841371 -156.9572715 932.19513614 -163.4375 932.1875 C-164.31162537 932.18722809 -165.18575073 932.18695618 -166.08636475 932.18667603 C-188.74129435 932.15441434 -212.9613651 931.82616276 -235 926 C-235.33 926.66 -235.66 927.32 -236 928 C-236.71357666 927.53682373 -237.42715332 927.07364746 -238.16235352 926.59643555 C-240.96021764 925.02238121 -243.29821231 924.21917856 -246.40234375 923.45703125 C-247.96903809 923.05955688 -247.96903809 923.05955688 -249.56738281 922.65405273 C-250.67952148 922.37634033 -251.79166016 922.09862793 -252.9375 921.8125 C-271.50203658 916.99480803 -292.84745382 911.25687572 -308.9375 900.375 C-312.30876853 898.10422518 -315.72379003 895.93889 -319.1875 893.8125 C-329.34672121 887.34111848 -338.47770225 879.6621243 -347.3125 871.5 C-347.96508789 870.90050537 -348.61767578 870.30101074 -349.29003906 869.68334961 C-349.89170898 869.11753174 -350.49337891 868.55171387 -351.11328125 867.96875 C-351.64735596 867.46794922 -352.18143066 866.96714844 -352.73168945 866.45117188 C-354 865 -354 865 -355 862 C-355.66 862 -356.32 862 -357 862 C-358.24584961 860.72509766 -358.24584961 860.72509766 -359.65234375 858.9140625 C-360.17602539 858.24012451 -360.69970703 857.56618652 -361.23925781 856.87182617 C-361.79967773 856.13037354 -362.36009766 855.3889209 -362.9375 854.625 C-363.51725586 853.85841064 -364.09701172 853.09182129 -364.69433594 852.30200195 C-386.62685725 822.83579747 -397.70211878 789.71194551 -402.75 753.5625 C-402.86561279 752.73645264 -402.98122559 751.91040527 -403.1003418 751.05932617 C-405.2746211 734.20164509 -405.20049417 717.24415734 -405.30329776 700.27806187 C-405.32114612 697.44753504 -405.34223114 694.61703582 -405.36332208 691.78653157 C-405.42614827 683.35428078 -405.48059815 674.92198936 -405.53263092 666.48966599 C-405.56242524 661.66767321 -405.59396803 656.8456927 -405.62567139 652.02371216 C-406.0174958 592.10093633 -406.22651691 532.17961594 -406.01115417 472.25556946 C-405.99992392 468.97779587 -405.99027103 465.70002111 -405.9810791 462.42224121 C-405.94526051 449.94944891 -405.88664359 437.47714803 -405.79046631 425.00466919 C-405.76199301 421.256838 -405.74189961 417.50911815 -405.72955322 413.76119995 C-405.71477989 409.47626712 -405.68102581 405.19191764 -405.63181686 400.90724564 C-405.6171105 399.36303219 -405.60895913 397.81873925 -405.60808182 396.27445602 C-405.59775319 387.07760483 -405.32486203 380.02524454 -399.0703125 372.7578125 C-398.42835938 372.21898437 -397.78640625 371.68015625 -397.125 371.125 C-396.48820313 370.57070313 -395.85140625 370.01640625 -395.1953125 369.4453125 C-389.1180344 365.44425752 -382.84113837 365.70340478 -375.82910156 365.70947266 C-374.15476044 365.69939682 -374.15476044 365.69939682 -372.44659424 365.68911743 C-368.7612257 365.67014025 -365.07603934 365.66621318 -361.390625 365.6640625 C-358.82240728 365.65763387 -356.2541903 365.65090546 -353.68597412 365.64389038 C-348.30267325 365.63191792 -342.91944435 365.62812368 -337.53613281 365.62939453 C-331.33423041 365.63059443 -325.13267687 365.60951777 -318.93086267 365.5779072 C-312.94329118 365.54848767 -306.95590742 365.5414216 -300.96825409 365.54261398 C-298.4310336 365.54025981 -295.8938103 365.53144674 -293.35663605 365.51594925 C-289.80029217 365.4962623 -286.24483601 365.50213918 -282.68847656 365.51416016 C-281.64916992 365.50292114 -280.60986328 365.49168213 -279.5390625 365.48010254 C-272.12710364 365.54347798 -264.7688503 366.62581367 -259.05615616 371.74028969 C-250.95866478 380.57175933 -251.85260733 391.31968631 -251.86196899 402.61491394 C-251.85954865 404.00913441 -251.85668567 405.40335417 -251.85341966 406.79757291 C-251.84568934 410.61968395 -251.84404846 414.44177702 -251.84336853 418.26389492 C-251.84152454 422.39030619 -251.83391492 426.51670705 -251.82688904 430.64311218 C-251.81537313 437.79387977 -251.80712336 444.94464501 -251.80076981 452.09541893 C-251.79042367 463.41375141 -251.76985305 474.73205472 -251.74765015 486.05036926 C-251.7401705 489.92706194 -251.73275668 493.80375474 -251.72536278 497.68044758 C-251.72351221 498.64930997 -251.72166165 499.61817236 -251.719755 500.61639422 C-251.69883377 511.64196505 -251.68000487 522.66753911 -251.66210938 533.69311523 C-251.66047119 534.70071954 -251.65883301 535.70832384 -251.65714519 536.74646161 C-251.63090254 553.04754673 -251.61223537 569.3486341 -251.59551747 585.64973136 C-251.57805164 602.41041988 -251.54915649 619.17106438 -251.5106281 635.93171769 C-251.4873202 646.25435856 -251.47324186 656.57692761 -251.47130047 666.899595 C-251.46917909 673.98786234 -251.4561504 681.07605852 -251.43482114 688.16429385 C-251.42288223 692.24372354 -251.41557975 696.32301206 -251.42153358 700.40245819 C-252.35671444 739.40824317 -252.35671444 739.40824317 -235 773 C-234.37867188 773.67289063 -233.75734375 774.34578125 -233.1171875 775.0390625 C-214.93505151 792.94466411 -187.39222372 795.03804415 -163.25439453 794.99511719 C-156.4411489 794.81226621 -149.71783621 794.27100965 -143.1159668 792.49243164 C-140.9920184 791.99814251 -138.97635975 791.77780414 -136.8046875 791.6015625 C-132.0189869 791.09461098 -127.67322244 789.91634205 -123.125 788.375 C-121.95372559 787.98066772 -121.95372559 787.98066772 -120.75878906 787.57836914 C-114.19522124 785.26401222 -108.57770589 782.18327942 -103 778 C-101.9275 777.236875 -100.855 776.47375 -99.75 775.6875 C-83.23914467 759.55189138 -81.95864638 737.3294973 -81.68702698 715.63023376 C-81.66645995 714.19034084 -81.64568419 712.75045089 -81.62472093 711.31056368 C-81.56887916 707.34904472 -81.51998521 703.38746938 -81.47341435 699.42583151 C-81.44317129 696.86154487 -81.4116155 694.29727659 -81.37993729 691.73300731 C-80.80285749 644.27014538 -80.86950537 596.8046178 -80.89646127 549.33907003 C-80.90155267 540.12630941 -80.9041855 530.91355042 -80.90512276 521.7007885 C-80.9051915 521.03661343 -80.90526024 520.37243837 -80.90533106 519.68813679 C-80.90566961 516.31220283 -80.90597091 512.93626888 -80.90625793 509.56033491 C-80.90833275 485.93369478 -80.91499648 462.30705811 -80.92456055 438.68041992 C-80.93381408 415.79370135 -80.94086331 392.90698375 -80.94506836 370.02026367 C-80.94519989 369.30902523 -80.94533141 368.5977868 -80.94546692 367.86499568 C-80.94678597 360.71944348 -80.9480617 353.57389128 -80.94930578 346.42833907 C-80.95183886 331.88491948 -80.9546601 317.34149995 -80.95765686 302.79808044 C-80.95779415 302.1300752 -80.95793144 301.46206996 -80.95807289 300.77382213 C-80.96720179 256.51587998 -80.98305909 212.25793976 -81 168 C-81.96608688 168.00666183 -82.93217377 168.01332367 -83.92753601 168.02018738 C-93.03523557 168.08102172 -102.14289386 168.12598379 -111.25075054 168.15543652 C-115.93312236 168.17108754 -120.61533006 168.19231556 -125.29760742 168.22631836 C-129.81689376 168.25893186 -134.33602231 168.27685725 -138.85541725 168.28463173 C-140.57899268 168.29017166 -142.30255954 168.30098984 -144.02606773 168.31719017 C-146.4416401 168.33899113 -148.85656176 168.34196585 -151.2722168 168.34057617 C-151.98359802 168.351362 -152.69497925 168.36214783 -153.42791748 168.3732605 C-158.8342125 168.33964125 -162.0195531 166.9804469 -165.8125 163.1875 C-167.4456216 160.17911811 -167.4742025 158.3871607 -167 155 C-164.13878635 149.51600718 -159.68995236 144.99965634 -155 141 C-154.34 141 -153.68 141 -153 141 C-152.67 140.01 -152.34 139.02 -152 138 C-150.45117187 136.47460937 -150.45117187 136.47460937 -148.46875 134.84375 C-143.89351626 130.9617335 -139.70205736 126.77859757 -135.5 122.5 C-130.76647934 117.68025856 -125.97904374 113.04127411 -120.85742188 108.63476562 C-118.10798384 106.21491323 -115.5533859 103.62353386 -113 101 C-109.82797675 97.74083325 -106.60531013 94.62373045 -103.15625 91.65625 C-98.71652728 87.81580544 -94.61139614 83.68628496 -90.5 79.5 C-85.79544471 74.70975153 -81.03735488 70.10594288 -75.94628906 65.72802734 C-72.01638547 62.23883296 -68.41221992 58.41154199 -64.76171875 54.63476562 C-64.17261719 54.03470703 -63.58351563 53.43464844 -62.9765625 52.81640625 C-62.45143066 52.27443604 -61.92629883 51.73246582 -61.38525391 51.17407227 C-60 50 -60 50 -58 50 C-57.67 49.01 -57.34 48.02 -57 47 C-55.62695312 45.65039062 -55.62695312 45.65039062 -53.78125 44.15625 C-49.85996606 40.82909999 -46.21428716 37.30224 -42.59375 33.65625 C-42.02060059 33.07979736 -41.44745117 32.50334473 -40.85693359 31.90942383 C-39.06931714 30.10822366 -37.28422981 28.30455464 -35.5 26.5 C-20.98963183 11.82433879 -20.98963183 11.82433879 -14 6 C-13.42781738 5.51096191 -12.85563477 5.02192383 -12.26611328 4.51806641 C-7.99943532 0.89627758 -5.71358291 -0.83106661 0 0 Z " fill="#CC2F31" transform="translate(641,40)"/>
<path d="M0 0 C0.33 0 0.66 0 1 0 C0.51298949 7.59064664 -0.99763587 14.67059167 -3 22 C-5.11331865 18.59265653 -5.11331865 18.59265653 -4.609375 15.95703125 C-4.32578125 15.24933594 -4.0421875 14.54164063 -3.75 13.8125 C-2.05233468 9.27030213 -0.95410851 4.74809295 0 0 Z " fill="#BB2A2C" transform="translate(712,809)"/>
<path d="M0 0 C2.4375 0.8125 2.4375 0.8125 5 2 C5.33 2.99 5.66 3.98 6 5 C1.545 4.01 1.545 4.01 -3 3 C-2.01 2.01 -1.02 1.02 0 0 Z " fill="#BE2A2C" transform="translate(339,941)"/>
<path d="M0 0 C1.98 0 3.96 0 6 0 C6 0.33 6 0.66 6 1 C4.02 1 2.04 1 0 1 C0 0.67 0 0.34 0 0 Z " fill="#B52A2B" transform="translate(479,973)"/>
<path d="M0 0 C0.33 0 0.66 0 1 0 C1 1.98 1 3.96 1 6 C0.67 6 0.34 6 0 6 C0 4.02 0 2.04 0 0 Z " fill="#C33033" transform="translate(390,738)"/>
<path d="M0 0 C0.33 0 0.66 0 1 0 C1 1.65 1 3.3 1 5 C0.67 5 0.34 5 0 5 C0 3.35 0 1.7 0 0 Z " fill="#B52E30" transform="translate(234,715)"/>
<path d="M0 0 C0.33 0 0.66 0 1 0 C1 1.65 1 3.3 1 5 C0.67 5 0.34 5 0 5 C0 3.35 0 1.7 0 0 Z " fill="#B82D30" transform="translate(719,714)"/>
<path d="M0 0 C4 1 4 1 4 1 Z " fill="#B5292C" transform="translate(471,973)"/>
<path d="M0 0 C1 4 1 4 1 4 Z " fill="#B42C30" transform="translate(234,731)"/>
<path d="M0 0 C0.99 0.495 0.99 0.495 2 1 C1.01 1.495 1.01 1.495 0 2 C0 1.34 0 0.68 0 0 Z " fill="#B12B2C" transform="translate(400,966)"/>
<path d="" fill="#B82C30" transform="translate(0,0)"/>
<path d="" fill="#B32D2F" transform="translate(0,0)"/>
<path d="" fill="#C33032" transform="translate(0,0)"/>
<path d="" fill="#C33032" transform="translate(0,0)"/>
<path d="" fill="#B62E31" transform="translate(0,0)"/>
<path d="" fill="#C32F33" transform="translate(0,0)"/>
<path d="" fill="#B72F30" transform="translate(0,0)"/>
<path d="" fill="#C33034" transform="translate(0,0)"/>
<path d="" fill="#C33133" transform="translate(0,0)"/>
<path d="" fill="#BB2E32" transform="translate(0,0)"/>
<path d="" fill="#BB2F33" transform="translate(0,0)"/>
<path d="" fill="#BA3033" transform="translate(0,0)"/>
<path d="" fill="#C23033" transform="translate(0,0)"/>
<path d="" fill="#B02E2F" transform="translate(0,0)"/>
<path d="" fill="#B52A2B" transform="translate(0,0)"/>
<path d="M0 0 C2 1 2 1 2 1 Z " fill="#B2282A" transform="translate(408,967)"/>
<path d="M0 0 C2 1 2 1 2 1 Z " fill="#B52B2D" transform="translate(552,966)"/>
<path d="M0 0 C2 1 2 1 2 1 Z " fill="#B42B2C" transform="translate(566,963)"/>
<path d="M0 0 C2 1 2 1 2 1 Z " fill="#AF292A" transform="translate(371,958)"/>
<path d="M0 0 C2 1 2 1 2 1 Z " fill="#B32B2C" transform="translate(586,957)"/>
<path d="" fill="#AB292A" transform="translate(0,0)"/>
<path d="M0 0 C2 1 2 1 2 1 Z " fill="#A92729" transform="translate(307,925)"/>
<path d="" fill="#AC282B" transform="translate(0,0)"/>
<path d="" fill="#AC292D" transform="translate(0,0)"/>
<path d="M0 0 C2 1 2 1 2 1 Z " fill="#C23032" transform="translate(422,824)"/>
<path d="" fill="#AC2C2D" transform="translate(0,0)"/>
<path d="" fill="#AF2B2F" transform="translate(0,0)"/>
<path d="" fill="#C43134" transform="translate(0,0)"/>
<path d="" fill="#B72E30" transform="translate(0,0)"/>
<path d="" fill="#B72E32" transform="translate(0,0)"/>
<path d="" fill="#C53133" transform="translate(0,0)"/>
<path d="" fill="#C32F33" transform="translate(0,0)"/>
<path d="" fill="#B82D30" transform="translate(0,0)"/>
<path d="" fill="#B52E30" transform="translate(0,0)"/>
<path d="" fill="#B42E31" transform="translate(0,0)"/>
<path d="" fill="#C33032" transform="translate(0,0)"/>
<path d="" fill="#B92F31" transform="translate(0,0)"/>
<path d="" fill="#C13031" transform="translate(0,0)"/>
<path d="" fill="#B82F30" transform="translate(0,0)"/>
<path d="" fill="#C32F33" transform="translate(0,0)"/>
<path d="" fill="#C23032" transform="translate(0,0)"/>
<path d="" fill="#C33033" transform="translate(0,0)"/>
<path d="" fill="#C43133" transform="translate(0,0)"/>
<path d="" fill="#C43034" transform="translate(0,0)"/>
<path d="" fill="#BD2E31" transform="translate(0,0)"/>
<path d="" fill="#C32F32" transform="translate(0,0)"/>
<path d="" fill="#BA2F32" transform="translate(0,0)"/>
<path d="" fill="#BD2F32" transform="translate(0,0)"/>
<path d="" fill="#C43034" transform="translate(0,0)"/>
<path d="" fill="#C23034" transform="translate(0,0)"/>
<path d="" fill="#C53032" transform="translate(0,0)"/>
<path d="" fill="#BA2F32" transform="translate(0,0)"/>
<path d="" fill="#BC3033" transform="translate(0,0)"/>
<path d="" fill="#C33034" transform="translate(0,0)"/>
<path d="" fill="#BB2E33" transform="translate(0,0)"/>
<path d="" fill="#BB2F32" transform="translate(0,0)"/>
<path d="" fill="#B52E31" transform="translate(0,0)"/>
<path d="" fill="#BD3132" transform="translate(0,0)"/>
<path d="" fill="#C93537" transform="translate(0,0)"/>
<path d="" fill="#B52D31" transform="translate(0,0)"/>
<path d="" fill="#BB3031" transform="translate(0,0)"/>
<path d="" fill="#B52A2B" transform="translate(0,0)"/>
<path d="" fill="#B72A2C" transform="translate(0,0)"/>
<path d="" fill="#B62A2C" transform="translate(0,0)"/>
<path d="" fill="#B52C2E" transform="translate(0,0)"/>
<path d="" fill="#B52C2D" transform="translate(0,0)"/>
<path d="" fill="#B12929" transform="translate(0,0)"/>
<path d="" fill="#B62A2C" transform="translate(0,0)"/>
<path d="" fill="#B42A2B" transform="translate(0,0)"/>
<path d="" fill="#B42C2E" transform="translate(0,0)"/>
<path d="" fill="#B42C2E" transform="translate(0,0)"/>
<path d="" fill="#000000" transform="translate(0,0)"/>
<path d="" fill="#B42B2C" transform="translate(0,0)"/>
<path d="" fill="#AA2827" transform="translate(0,0)"/>
<path d="" fill="#AE2928" transform="translate(0,0)"/>
<path d="" fill="#AE2729" transform="translate(0,0)"/>
<path d="" fill="#A9282A" transform="translate(0,0)"/>
<path d="" fill="#A9292A" transform="translate(0,0)"/>
<path d="" fill="#AB2829" transform="translate(0,0)"/>
<path d="" fill="#9A2526" transform="translate(0,0)"/>
<path d="" fill="#AA272A" transform="translate(0,0)"/>
<path d="" fill="#AD292A" transform="translate(0,0)"/>
<path d="" fill="#A5262A" transform="translate(0,0)"/>
<path d="" fill="#A92629" transform="translate(0,0)"/>
<path d="" fill="#AA292B" transform="translate(0,0)"/>
<path d="" fill="#A9262A" transform="translate(0,0)"/>
<path d="" fill="#AA272B" transform="translate(0,0)"/>
<path d="" fill="#AD2A2A" transform="translate(0,0)"/>
<path d="" fill="#AA292B" transform="translate(0,0)"/>
<path d="" fill="#AD2C2D" transform="translate(0,0)"/>
<path d="" fill="#A9292B" transform="translate(0,0)"/>
<path d="" fill="#AC2B2F" transform="translate(0,0)"/>
<path d="" fill="#A6292D" transform="translate(0,0)"/>
<path d="" fill="#AE2A2D" transform="translate(0,0)"/>
<path d="" fill="#C12E33" transform="translate(0,0)"/>
<path d="" fill="#C02F34" transform="translate(0,0)"/>
<path d="" fill="#C12F34" transform="translate(0,0)"/>
<path d="" fill="#BD2D2E" transform="translate(0,0)"/>
<path d="" fill="#AF2A2D" transform="translate(0,0)"/>
<path d="" fill="#C33133" transform="translate(0,0)"/>
<path d="" fill="#B32B2E" transform="translate(0,0)"/>
<path d="" fill="#B32C2D" transform="translate(0,0)"/>
<path d="" fill="#B02D31" transform="translate(0,0)"/>
<path d="" fill="#C13234" transform="translate(0,0)"/>
<path d="" fill="#C63237" transform="translate(0,0)"/>
<path d="" fill="#C53335" transform="translate(0,0)"/>
<path d="" fill="#C33335" transform="translate(0,0)"/>
<path d="" fill="#C33234" transform="translate(0,0)"/>
<path d="" fill="#C43133" transform="translate(0,0)"/>
<path d="" fill="#B12C2F" transform="translate(0,0)"/>
<path d="" fill="#C43232" transform="translate(0,0)"/>
<path d="" fill="#C63033" transform="translate(0,0)"/>
<path d="" fill="#B32E2F" transform="translate(0,0)"/>
<path d="" fill="#B02D30" transform="translate(0,0)"/>
<path d="" fill="#BF3034" transform="translate(0,0)"/>
<path d="" fill="#B12D30" transform="translate(0,0)"/>
<path d="" fill="#B82C31" transform="translate(0,0)"/>
<path d="" fill="#B32D30" transform="translate(0,0)"/>
<path d="" fill="#BA2F30" transform="translate(0,0)"/>
<path d="" fill="#B72D30" transform="translate(0,0)"/>
<path d="" fill="#C13133" transform="translate(0,0)"/>
<path d="" fill="#C42F34" transform="translate(0,0)"/>
<path d="" fill="#B92E2F" transform="translate(0,0)"/>
<path d="" fill="#B32E2F" transform="translate(0,0)"/>
<path d="" fill="#B62D30" transform="translate(0,0)"/>
<path d="" fill="#BF2F33" transform="translate(0,0)"/>
<path d="" fill="#C33233" transform="translate(0,0)"/>
<path d="" fill="#B12D31" transform="translate(0,0)"/>
<path d="" fill="#C23034" transform="translate(0,0)"/>
<path d="" fill="#C33132" transform="translate(0,0)"/>
<path d="" fill="#C43135" transform="translate(0,0)"/>
<path d="" fill="#C33233" transform="translate(0,0)"/>
<path d="" fill="#B02D30" transform="translate(0,0)"/>
<path d="" fill="#B82D2F" transform="translate(0,0)"/>
<path d="" fill="#C33033" transform="translate(0,0)"/>
<path d="" fill="#B92E31" transform="translate(0,0)"/>
<path d="" fill="#B82D30" transform="translate(0,0)"/>
<path d="" fill="#BE3033" transform="translate(0,0)"/>
<path d="" fill="#C43033" transform="translate(0,0)"/>
<path d="" fill="#C32E33" transform="translate(0,0)"/>
<path d="" fill="#C33134" transform="translate(0,0)"/>
<path d="" fill="#B63030" transform="translate(0,0)"/>
<path d="" fill="#B82E30" transform="translate(0,0)"/>
<path d="" fill="#C33034" transform="translate(0,0)"/>
<path d="" fill="#B83030" transform="translate(0,0)"/>
<path d="" fill="#C43133" transform="translate(0,0)"/>
<path d="" fill="#BA3034" transform="translate(0,0)"/>
<path d="" fill="#BB2E30" transform="translate(0,0)"/>
<path d="" fill="#C43033" transform="translate(0,0)"/>
<path d="" fill="#BA2F31" transform="translate(0,0)"/>
<path d="" fill="#BA3032" transform="translate(0,0)"/>
<path d="" fill="#BC3030" transform="translate(0,0)"/>
<path d="" fill="#C32F34" transform="translate(0,0)"/>
<path d="" fill="#BB3032" transform="translate(0,0)"/>
<path d="" fill="#C43134" transform="translate(0,0)"/>
<path d="" fill="#C23033" transform="translate(0,0)"/>
<path d="" fill="#BB2F2F" transform="translate(0,0)"/>
<path d="" fill="#C32F31" transform="translate(0,0)"/>
<path d="" fill="#BB3133" transform="translate(0,0)"/>
<path d="" fill="#C22F32" transform="translate(0,0)"/>
<path d="" fill="#C53033" transform="translate(0,0)"/>
<path d="" fill="#BB3030" transform="translate(0,0)"/>
<path d="" fill="#BB2F33" transform="translate(0,0)"/>
<path d="" fill="#BB2F32" transform="translate(0,0)"/>
<path d="" fill="#C52F33" transform="translate(0,0)"/>
<path d="" fill="#C63134" transform="translate(0,0)"/>
<path d="" fill="#BC2E33" transform="translate(0,0)"/>
<path d="" fill="#BD3132" transform="translate(0,0)"/>
<path d="" fill="#C42F33" transform="translate(0,0)"/>
<path d="" fill="#C33132" transform="translate(0,0)"/>
<path d="" fill="#C32F33" transform="translate(0,0)"/>
<path d="" fill="#C32F33" transform="translate(0,0)"/>
<path d="" fill="#C32F33" transform="translate(0,0)"/>
<path d="" fill="#BA3031" transform="translate(0,0)"/>
<path d="" fill="#BB2E32" transform="translate(0,0)"/>
<path d="" fill="#C53034" transform="translate(0,0)"/>
<path d="" fill="#BB2F32" transform="translate(0,0)"/>
<path d="" fill="#C43033" transform="translate(0,0)"/>
<path d="" fill="#C33133" transform="translate(0,0)"/>
<path d="" fill="#BB2F34" transform="translate(0,0)"/>
<path d="" fill="#C23034" transform="translate(0,0)"/>
<path d="" fill="#BE3032" transform="translate(0,0)"/>
<path d="" fill="#BC3233" transform="translate(0,0)"/>
<path d="" fill="#000000" transform="translate(0,0)"/>
<path d="" fill="#C23033" transform="translate(0,0)"/>
<path d="" fill="#BC3133" transform="translate(0,0)"/>
<path d="" fill="#C43134" transform="translate(0,0)"/>
<path d="" fill="#BD3134" transform="translate(0,0)"/>
<path d="" fill="#C52F35" transform="translate(0,0)"/>
<path d="" fill="#BC3032" transform="translate(0,0)"/>
<path d="" fill="#BC3033" transform="translate(0,0)"/>
<path d="" fill="#C43034" transform="translate(0,0)"/>
<path d="" fill="#C43133" transform="translate(0,0)"/>
<path d="" fill="#C33133" transform="translate(0,0)"/>
<path d="" fill="#C33135" transform="translate(0,0)"/>
<path d="" fill="#C33034" transform="translate(0,0)"/>
<path d="" fill="#C23035" transform="translate(0,0)"/>
<path d="" fill="#BC2E33" transform="translate(0,0)"/>
<path d="" fill="#C13034" transform="translate(0,0)"/>
<path d="" fill="#C23234" transform="translate(0,0)"/>
<path d="" fill="#C12F33" transform="translate(0,0)"/>
<path d="" fill="#BA2F34" transform="translate(0,0)"/>
<path d="" fill="#C22F32" transform="translate(0,0)"/>
<path d="" fill="#C23034" transform="translate(0,0)"/>
<path d="" fill="#C23232" transform="translate(0,0)"/>
<path d="" fill="#C22E33" transform="translate(0,0)"/>
<path d="" fill="#BB2E34" transform="translate(0,0)"/>
<path d="" fill="#C02E34" transform="translate(0,0)"/>
<path d="" fill="#B52E31" transform="translate(0,0)"/>
<path d="" fill="#B42F31" transform="translate(0,0)"/>
<path d="" fill="#BE2F34" transform="translate(0,0)"/>
<path d="" fill="#BE3033" transform="translate(0,0)"/>
<path d="" fill="#BE2F34" transform="translate(0,0)"/>
<path d="" fill="#BB2F33" transform="translate(0,0)"/>
<path d="" fill="#B72D31" transform="translate(0,0)"/>
<path d="" fill="#AE2D30" transform="translate(0,0)"/>
<path d="" fill="#B62F30" transform="translate(0,0)"/>
<path d="" fill="#BA3032" transform="translate(0,0)"/>
<path d="" fill="#BC2F31" transform="translate(0,0)"/>
<path d="" fill="#A52B2D" transform="translate(0,0)"/>
<path d="" fill="#BA3132" transform="translate(0,0)"/>
<path d="" fill="#B52F34" transform="translate(0,0)"/>
<path d="" fill="#B73032" transform="translate(0,0)"/>
<path d="" fill="#BC3234" transform="translate(0,0)"/>
<path d="" fill="#BB3034" transform="translate(0,0)"/>
<path d="" fill="#BB3036" transform="translate(0,0)"/>
<path d="" fill="#BC3234" transform="translate(0,0)"/>
<path d="" fill="#B93033" transform="translate(0,0)"/>
<path d="" fill="#B32D31" transform="translate(0,0)"/>
<path d="" fill="#BA2F31" transform="translate(0,0)"/>
<path d="" fill="#BB3033" transform="translate(0,0)"/>
<path d="" fill="#BC3132" transform="translate(0,0)"/>
<path d="" fill="#BC3132" transform="translate(0,0)"/>
<path d="" fill="#BC3031" transform="translate(0,0)"/>
<path d="" fill="#010000" transform="translate(0,0)"/>
<path d="" fill="#BD2F32" transform="translate(0,0)"/>
<path d="" fill="#BE3133" transform="translate(0,0)"/>
<path d="" fill="#BD3032" transform="translate(0,0)"/>
<path d="" fill="#BD3133" transform="translate(0,0)"/>
<path d="" fill="#BC3032" transform="translate(0,0)"/>
<path d="" fill="#BD3132" transform="translate(0,0)"/>
<path d="" fill="#BD3034" transform="translate(0,0)"/>
<path d="" fill="#BE3033" transform="translate(0,0)"/>
<path d="" fill="#040000" transform="translate(0,0)"/>
<path d="" fill="#C03334" transform="translate(0,0)"/>
<path d="" fill="#C13134" transform="translate(0,0)"/>
<path d="" fill="#C13133" transform="translate(0,0)"/>
<path d="" fill="#C03234" transform="translate(0,0)"/>
<path d="" fill="#C13235" transform="translate(0,0)"/>
<path d="" fill="#C03434" transform="translate(0,0)"/>
<path d="" fill="#C33132" transform="translate(0,0)"/>
<path d="" fill="#C33135" transform="translate(0,0)"/>
<path d="" fill="#CA3537" transform="translate(0,0)"/>
<path d="" fill="#CC3738" transform="translate(0,0)"/>
<path d="" fill="#C83637" transform="translate(0,0)"/>
<path d="" fill="#982829" transform="translate(0,0)"/>
<path d="" fill="#902528" transform="translate(0,0)"/>
<path d="" fill="#902829" transform="translate(0,0)"/>
<path d="" fill="#9D292A" transform="translate(0,0)"/>
<path d="" fill="#AC2C2D" transform="translate(0,0)"/>
<path d="" fill="#B22D2E" transform="translate(0,0)"/>
<path d="" fill="#B22F30" transform="translate(0,0)"/>
<path d="" fill="#B92D31" transform="translate(0,0)"/>
<path d="" fill="#B82D32" transform="translate(0,0)"/>
<path d="" fill="#B92F30" transform="translate(0,0)"/>
<path d="" fill="#B72F33" transform="translate(0,0)"/>
<path d="" fill="#B82E33" transform="translate(0,0)"/>
<path d="" fill="#BF3031" transform="translate(0,0)"/>
<path d="" fill="#BA2F31" transform="translate(0,0)"/>
<path d="" fill="#BD3035" transform="translate(0,0)"/>
<path d="" fill="#BD2E33" transform="translate(0,0)"/>
<path d="" fill="#BC2D33" transform="translate(0,0)"/>
<path d="" fill="#BD2F32" transform="translate(0,0)"/>
<path d="" fill="#BA3031" transform="translate(0,0)"/>
<path d="" fill="#B73032" transform="translate(0,0)"/>
<path d="" fill="#B82F32" transform="translate(0,0)"/>
<path d="" fill="#AD2C2E" transform="translate(0,0)"/>
</svg>
