<svg width="37" height="36" viewBox="0 0 37 36" fill="none" xmlns="http://www.w3.org/2000/svg">
<path d="M36.2716 17.9628C36.2716 27.0348 29.5489 34.5348 20.8155 35.7518C19.9989 35.8651 19.1634 35.9243 18.3154 35.9243C17.3365 35.9243 16.3752 35.8462 15.4391 35.6952C6.88813 34.3183 0.35791 26.9026 0.35791 17.9628C0.35791 8.04247 8.39801 0 18.3141 0C28.2302 0 36.2716 8.04247 36.2716 17.9628Z" fill="#1877F2"/>
<path d="M20.8154 14.4223V18.3353H25.6546L24.8883 23.6063H20.8154V35.7506C19.9989 35.8639 19.1634 35.923 18.3153 35.923C17.3364 35.923 16.3751 35.845 15.439 35.694V23.6063H10.9761V18.3353H15.439V13.5476C15.439 10.5773 17.846 8.16833 20.8167 8.16833V8.17085C20.8255 8.17085 20.8331 8.16833 20.8419 8.16833H25.6559V12.727H22.5103C21.5754 12.727 20.8167 13.4859 20.8167 14.4211L20.8154 14.4223Z" fill="white"/>
</svg>
