<svg width="37" height="37" viewBox="0 0 37 37" fill="none" xmlns="http://www.w3.org/2000/svg">
<path d="M18.3552 0.435547H18.2734C8.37867 0.435547 0.357422 8.45916 0.357422 18.3568V18.4386C0.357422 28.3362 8.37867 36.3598 18.2734 36.3598H18.3552C28.2499 36.3598 36.2711 28.3362 36.2711 18.4386V18.3568C36.2711 8.45916 28.2499 0.435547 18.3552 0.435547Z" fill="url(#paint0_linear_1134_289)"/>
<path d="M23.8713 7.74426H12.7586C9.68851 7.74426 7.19092 10.2426 7.19092 13.3136V23.4831C7.19092 26.5541 9.68851 29.0524 12.7586 29.0524H23.8713C26.9414 29.0524 29.439 26.5541 29.439 23.4831V13.3136C29.439 10.2426 26.9414 7.74426 23.8713 7.74426ZM9.15502 13.3136C9.15502 11.3262 10.7718 9.70894 12.7586 9.70894H23.8713C25.858 9.70894 27.4749 11.3262 27.4749 13.3136V23.4831C27.4749 25.4704 25.858 27.0877 23.8713 27.0877H12.7586C10.7718 27.0877 9.15502 25.4704 9.15502 23.4831V13.3136Z" fill="white"/>
<path d="M18.3151 23.5774C21.17 23.5774 23.494 21.254 23.494 18.397C23.494 15.54 21.1713 13.2166 18.3151 13.2166C15.4589 13.2166 13.1362 15.54 13.1362 18.397C13.1362 21.254 15.4589 23.5774 18.3151 23.5774ZM18.3151 15.1825C20.088 15.1825 21.5299 16.6249 21.5299 18.3983C21.5299 20.1716 20.088 21.614 18.3151 21.614C16.5423 21.614 15.1003 20.1716 15.1003 18.3983C15.1003 16.6249 16.5423 15.1825 18.3151 15.1825Z" fill="white"/>
<path d="M23.973 14.0536C24.7418 14.0536 25.3684 13.4281 25.3684 12.6578C25.3684 11.8875 24.743 11.262 23.973 11.262C23.203 11.262 22.5776 11.8875 22.5776 12.6578C22.5776 13.4281 23.203 14.0536 23.973 14.0536Z" fill="white"/>
<defs>
<linearGradient id="paint0_linear_1134_289" x1="5.60425" y1="31.1114" x2="31.0318" y2="5.69266" gradientUnits="userSpaceOnUse">
<stop stop-color="#FAAD4F"/>
<stop offset="0.35" stop-color="#DD2A7B"/>
<stop offset="0.62" stop-color="#9537B0"/>
<stop offset="1" stop-color="#515BD4"/>
</linearGradient>
</defs>
</svg>
