<svg width="37" height="37" viewBox="0 0 37 37" fill="none" xmlns="http://www.w3.org/2000/svg">
<path d="M18.3552 0.871094H18.2734C8.37868 0.871094 0.357422 8.8947 0.357422 18.7923V18.8741C0.357422 28.7718 8.37868 36.7954 18.2734 36.7954H18.3552C28.2499 36.7954 36.2711 28.7718 36.2711 18.8741V18.7923C36.2711 8.8947 28.2499 0.871094 18.3552 0.871094Z" fill="#007EBB"/>
<path d="M8.92224 12.8127C8.44914 12.3734 8.21387 11.8297 8.21387 11.1828C8.21387 10.5359 8.4504 9.96824 8.92224 9.52773C9.39533 9.08848 10.0043 8.86823 10.7505 8.86823C11.4966 8.86823 12.0817 9.08848 12.5535 9.52773C13.0266 9.96698 13.2619 10.5195 13.2619 11.1828C13.2619 11.8461 13.0253 12.3734 12.5535 12.8127C12.0804 13.2519 11.4802 13.4722 10.7505 13.4722C10.0207 13.4722 9.39533 13.2519 8.92224 12.8127ZM12.8643 15.3324V28.7994H8.6102V15.3324H12.8643Z" fill="#FEFFFC"/>
<path d="M27.0257 16.6627C27.9531 17.6696 28.4161 19.0516 28.4161 20.8111V28.5616H24.3759V21.3573C24.3759 20.47 24.1457 19.7803 23.6864 19.2894C23.2272 18.7986 22.6081 18.5519 21.833 18.5519C21.058 18.5519 20.4389 18.7973 19.9796 19.2894C19.5204 19.7803 19.2901 20.47 19.2901 21.3573V28.5616H15.2261V15.2946H19.2901V17.0542C19.7016 16.4676 20.2565 16.0045 20.9535 15.6634C21.6506 15.3223 22.4345 15.1524 23.3064 15.1524C24.8591 15.1524 26.0997 15.6558 27.0257 16.6627Z" fill="#FEFFFC"/>
</svg>
