<svg width="37" height="37" viewBox="0 0 37 37" fill="none" xmlns="http://www.w3.org/2000/svg">
<path d="M18.3552 0.306641H18.2734C8.37867 0.306641 0.357422 8.33025 0.357422 18.2279V18.3097C0.357422 28.2073 8.37867 36.2309 18.2734 36.2309H18.3552C28.2499 36.2309 36.2711 28.2073 36.2711 18.3097V18.2279C36.2711 8.33025 28.2499 0.306641 18.3552 0.306641Z" fill="#FF0000"/>
<path fill-rule="evenodd" clip-rule="evenodd" d="M16.6752 23.1804C16.6539 23.2547 16.6337 23.3176 16.6174 23.3806C15.6674 27.1035 15.5617 27.9304 14.5853 29.6597C14.1198 30.4816 13.5951 31.2607 13.0151 32.0057C12.9496 32.0901 12.888 32.1983 12.7571 32.1719C12.6137 32.1417 12.6024 32.012 12.5873 31.8975C12.4312 30.766 12.3444 29.632 12.3822 28.4892C12.4312 27.0015 12.6149 26.4906 14.5325 18.4254C14.5602 18.3021 14.5287 18.2001 14.4884 18.0894C14.0292 16.8509 13.9386 15.5936 14.34 14.3199C15.2081 11.5686 18.326 11.3584 18.8709 13.6276C19.2068 15.031 18.3185 16.8685 17.6365 19.5846C17.0716 21.8249 19.7088 23.4183 21.9623 21.7821C24.0409 20.2743 24.8475 16.6596 24.694 14.0971C24.392 8.98844 18.7916 7.88465 15.2396 9.52964C11.1667 11.4138 10.2407 16.4633 12.0802 18.7716C12.313 19.0648 12.7521 19.2448 12.6753 19.5418C12.5571 20.0037 12.4526 20.4694 12.3243 20.9288C12.2287 21.2711 11.6838 21.3957 11.3378 21.2548C10.6596 20.9804 10.0947 20.5487 9.6367 19.9798C8.07523 18.0453 7.62856 14.2192 9.69332 10.9795C11.9808 7.39128 16.2361 5.93885 20.1215 6.37936C24.7619 6.90672 27.6948 10.0784 28.2434 13.6767C28.4938 15.3154 28.3139 19.3568 26.0138 22.2138C23.3678 25.4963 19.0785 25.714 17.0993 23.699C16.947 23.5442 16.825 23.3642 16.6752 23.1792V23.1804Z" fill="white"/>
</svg>
