<svg width="29" height="30" viewBox="0 0 29 30" fill="none" xmlns="http://www.w3.org/2000/svg">
<path d="M25.6505 0H2.85049C2.09462 0 1.36971 0.300267 0.835234 0.834746C0.300755 1.36922 0.000488281 2.09413 0.000488281 2.85V10.83C0.000488281 18.5663 3.75109 23.2588 6.89749 25.8338C10.2762 28.5969 13.6577 29.5388 13.8002 29.5802C14.0951 29.6599 14.4059 29.6599 14.7008 29.5802C14.8433 29.5403 18.2248 28.5969 21.6035 25.8338C24.7499 23.2588 28.5005 18.5663 28.5005 10.83V2.85C28.5005 2.09413 28.2002 1.36922 27.6657 0.834746C27.1313 0.300267 26.4064 0 25.6505 0Z" fill="#00D839"/>
<path d="M6.96801 14.8115C6.78248 14.626 6.63531 14.4057 6.5349 14.1633C6.43449 13.9209 6.38281 13.6611 6.38281 13.3987C6.38281 13.1363 6.43449 12.8765 6.5349 12.6341C6.63531 12.3917 6.78248 12.1715 6.96801 11.9859C7.15354 11.8004 7.3738 11.6532 7.61621 11.5528C7.85861 11.4524 8.11842 11.4007 8.3808 11.4007C8.64318 11.4007 8.90299 11.4524 9.1454 11.5528C9.38781 11.6532 9.60807 11.8004 9.7936 11.9859L12.3682 14.5639L20.2649 6.66552C20.6396 6.29082 21.1478 6.08032 21.6777 6.08032C22.2076 6.08032 22.7158 6.29082 23.0905 6.66552C23.4652 7.04022 23.6757 7.54841 23.6757 8.07831C23.6757 8.60821 23.4652 9.11641 23.0905 9.49111L13.7827 18.7989C13.5974 18.9849 13.3772 19.1324 13.1347 19.2331C12.8923 19.3337 12.6324 19.3856 12.3699 19.3856C12.1074 19.3856 11.8474 19.3337 11.605 19.2331C11.3626 19.1324 11.1424 18.9849 10.9571 18.7989L6.96801 14.8115Z" fill="white"/>
</svg>
