<svg width="37" height="36" viewBox="0 0 37 36" fill="none" xmlns="http://www.w3.org/2000/svg">
<path d="M36.2689 18.0384C36.2689 27.1104 29.5461 34.6105 20.8128 35.8275C19.9962 35.9408 19.1607 36 18.3127 36C17.3338 36 16.3725 35.9219 15.4363 35.7709C6.88666 34.394 0.356445 26.9783 0.356445 18.0384C0.356445 8.11815 8.39654 0.0756836 18.3139 0.0756836C28.2313 0.0756836 36.2714 8.11815 36.2714 18.0384H36.2689Z" fill="#1C1C1B"/>
<path d="M7.63899 7.99738L15.9207 19.0731L7.5874 28.0784H9.46343L16.7599 20.1945L22.6547 28.0784H29.0377L20.2905 16.3797L28.0475 7.99738H26.1715L19.4525 15.2582L14.0233 7.99738H7.64024H7.63899ZM10.397 9.37932H13.3287L26.2772 26.6964H23.3455L10.397 9.37932Z" fill="white"/>
</svg>
