<svg width="37" height="37" viewBox="0 0 37 37" fill="none" xmlns="http://www.w3.org/2000/svg">
<path d="M36.2712 18.6533C36.2712 8.76123 28.2545 0.742126 18.3654 0.742126C8.47622 0.742126 0.459473 8.76123 0.459473 18.6533C0.459473 28.5453 8.47622 36.5644 18.3654 36.5644C28.2545 36.5644 36.2712 28.5453 36.2712 18.6533Z" fill="#FF0209"/>
<path d="M25.9661 26.5862C25.4326 26.6441 24.8866 26.6542 24.3631 26.6529C20.2802 26.6491 16.1972 26.6454 12.1155 26.6428C10.8308 26.6428 9.4317 26.6013 8.43895 25.7845C7.32038 24.8619 7.08762 23.2622 6.99702 21.8148C6.8712 19.8313 6.86113 17.8414 6.96431 15.8566C7.02093 14.7667 7.12033 13.6503 7.58965 12.6635C7.92685 11.955 8.48928 11.3181 9.20899 10.9833C10.0457 10.5944 10.9214 10.6636 11.8223 10.6624C13.9789 10.6598 16.1356 10.6586 18.2922 10.6561C20.5343 10.6536 22.7778 10.6523 25.0199 10.6498C26.0794 10.6498 27.2168 10.6712 28.0812 11.2841C29.1973 12.0745 29.5005 13.5785 29.6402 14.9391C29.8981 17.445 29.9019 19.9773 29.6502 22.4832C29.5458 23.5165 29.3721 24.6089 28.6914 25.393C28.017 26.1709 27.0167 26.4704 25.9674 26.5849L25.9661 26.5862Z" fill="white"/>
<path d="M22.0164 18.6532L15.9316 15.1392V22.1673L22.0164 18.6532Z" fill="#FF0209"/>
</svg>
